<svg width="23" height="17" viewBox="0 0 23 17" fill="none" xmlns="http://www.w3.org/2000/svg">
<path fill-rule="evenodd" clip-rule="evenodd" d="M23 0.5H0V16.5H23V0.5Z" fill="#F0F0F0"/>
<path fill-rule="evenodd" clip-rule="evenodd" d="M23 2.5H0V4.5H23V2.5Z" fill="#D80027"/>
<path fill-rule="evenodd" clip-rule="evenodd" d="M23 6.5H0V8.5H23V6.5Z" fill="#D80027"/>
<path fill-rule="evenodd" clip-rule="evenodd" d="M23 10.5H0V12.5H23V10.5Z" fill="#D80027"/>
<path fill-rule="evenodd" clip-rule="evenodd" d="M23 14.5H0V16.5H23V14.5Z" fill="#D80027"/>
<path fill-rule="evenodd" clip-rule="evenodd" d="M9 0.5H0V7.5H9V0.5Z" fill="#2E52B2"/>
<path fill-rule="evenodd" clip-rule="evenodd" d="M3.50011 3.5L3.38198 3.8821H3L3.30909 4.1179L3.19102 4.5L3.50011 4.26346L3.80898 4.5L3.69091 4.1179L4 3.8821H3.61802L3.50011 3.5Z" fill="#F0F0F0"/>
<path fill-rule="evenodd" clip-rule="evenodd" d="M3.61802 5.88165L3.50011 5.5L3.38198 5.88165H3L3.30909 6.11763L3.19102 6.5L3.50011 6.26402L3.80898 6.5L3.69091 6.11763L4 5.88165H3.61802Z" fill="#F0F0F0"/>
<path fill-rule="evenodd" clip-rule="evenodd" d="M1.61802 5.88165L1.50011 5.5L1.38205 5.88165H1L1.30916 6.11763L1.19102 6.5L1.50011 6.26402L1.80905 6.5L1.69099 6.11763L2 5.88165H1.61802Z" fill="#F0F0F0"/>
<path fill-rule="evenodd" clip-rule="evenodd" d="M1.50011 3.5L1.38205 3.8821H1L1.30916 4.1179L1.19102 4.5L1.50011 4.26346L1.80905 4.5L1.69099 4.1179L2 3.8821H1.61802L1.50011 3.5Z" fill="#F0F0F0"/>
<path fill-rule="evenodd" clip-rule="evenodd" d="M3.50011 1.5L3.38198 1.88165H3L3.30909 2.11763L3.19102 2.5L3.50011 2.26402L3.80898 2.5L3.69091 2.11763L4 1.88165H3.61802L3.50011 1.5Z" fill="#F0F0F0"/>
<path fill-rule="evenodd" clip-rule="evenodd" d="M1.50011 1.5L1.38205 1.88165H1L1.30916 2.11763L1.19102 2.5L1.50011 2.26402L1.80905 2.5L1.69099 2.11763L2 1.88165H1.61802L1.50011 1.5Z" fill="#F0F0F0"/>
<path fill-rule="evenodd" clip-rule="evenodd" d="M5.50007 3.5L5.38202 3.8821H5L5.30906 4.1179L5.19108 4.5L5.50007 4.26346L5.80899 4.5L5.69094 4.1179L6 3.8821H5.61805L5.50007 3.5Z" fill="#F0F0F0"/>
<path fill-rule="evenodd" clip-rule="evenodd" d="M5.61805 5.88165L5.50007 5.5L5.38202 5.88165H5L5.30906 6.11763L5.19108 6.5L5.50007 6.26402L5.80899 6.5L5.69094 6.11763L6 5.88165H5.61805Z" fill="#F0F0F0"/>
<path fill-rule="evenodd" clip-rule="evenodd" d="M7.61802 5.88165L7.50011 5.5L7.38198 5.88165H7L7.30909 6.11763L7.19095 6.5L7.50011 6.26402L7.80905 6.5L7.69091 6.11763L8 5.88165H7.61802Z" fill="#F0F0F0"/>
<path fill-rule="evenodd" clip-rule="evenodd" d="M7.50011 3.5L7.38198 3.8821H7L7.30909 4.1179L7.19095 4.5L7.50011 4.26346L7.80905 4.5L7.69091 4.1179L8 3.8821H7.61802L7.50011 3.5Z" fill="#F0F0F0"/>
<path fill-rule="evenodd" clip-rule="evenodd" d="M5.50007 1.5L5.38202 1.88165H5L5.30906 2.11763L5.19108 2.5L5.50007 2.26402L5.80899 2.5L5.69094 2.11763L6 1.88165H5.61805L5.50007 1.5Z" fill="#F0F0F0"/>
<path fill-rule="evenodd" clip-rule="evenodd" d="M7.50011 1.5L7.38198 1.88165H7L7.30909 2.11763L7.19095 2.5L7.50011 2.26402L7.80905 2.5L7.69091 2.11763L8 1.88165H7.61802L7.50011 1.5Z" fill="#F0F0F0"/>
</svg>
