<svg width="23" height="24" viewBox="0 0 23 24" fill="none" xmlns="http://www.w3.org/2000/svg">
<path fill-rule="evenodd" clip-rule="evenodd" d="M19.4085 14.0559C20.8109 14.6 22.5639 15.6215 22.951 17.3961C23.1202 18.1691 22.8194 18.5635 22.5375 18.7582C21.994 19.1334 21.1024 19.0724 19.8112 18.572L4.86837 12.7727C3.89226 12.3945 2.60172 11.5848 1.58019 10.71C1.35924 10.5203 1.16081 10.338 0.985892 10.1626C0.132609 9.30701 -0.16899 8.61995 0.0896688 8.11412C0.287415 7.7271 0.751807 7.63649 1.14039 7.63039L1.80512 4.39768L4.44022 5.42091L5.88073 8.83977L9.68909 10.2894L10.3319 3L13.2563 5.69005L15.228 12.4337L19.4085 14.0559ZM5.30365 11.9196L20.2473 17.7182C21.5575 18.2266 21.8686 18.028 21.8718 18.0257C21.916 17.9953 21.9592 17.849 21.898 17.5705C21.6571 16.4641 20.6729 15.5686 18.9723 14.9095L14.3179 13.1027L12.2862 6.15637L11.2154 5.17128L10.6425 11.6715L5.03236 9.53609L3.59068 6.1133L2.61867 5.73644L2.02074 8.6473L1.51189 8.58817C1.29495 8.56298 1.15956 8.56283 1.07875 8.56898C1.13704 8.79208 1.48254 9.33221 2.4217 10.1203C3.3417 10.8905 4.47272 11.597 5.30365 11.9196ZM23 20H0V21H23V20Z" fill="white"/>
</svg>
