<svg width="23" height="24" viewBox="0 0 23 24" fill="none" xmlns="http://www.w3.org/2000/svg">
<path fill-rule="evenodd" clip-rule="evenodd" d="M21.7123 10.6977H21.1651V7.36679C21.1651 6.00478 20.0708 4.90084 18.7311 4.90084H18.2264L18.2311 3.66308C18.2311 2.74552 17.4953 2 16.5896 2H1.99528C0.90566 2 0.0141509 2.88889 0 3.99283C0 4.00239 0 4.01195 0 4.02151V20.3369C0 21.2545 0.735849 22 1.64151 22H18.7358C20.0802 22 21.1698 20.8913 21.1698 19.534V16.1983H21.717C22.4245 16.1983 23 15.6153 23 14.8984V11.9976C22.9953 11.2808 22.4198 10.6977 21.7123 10.6977ZM1.99528 3.14695H16.5896C16.8679 3.14695 17.0991 3.37634 17.0991 3.6583L17.0943 4.90084H1.99528C1.51887 4.90084 1.13208 4.50896 1.13208 4.02628C1.13208 3.54361 1.51887 3.14695 1.99528 3.14695ZM20.033 19.5293C20.033 20.2557 19.4481 20.8483 18.7311 20.8483H1.63679C1.35849 20.8483 1.12736 20.6189 1.12736 20.3321V5.84707C1.39151 5.9761 1.68396 6.04779 1.99528 6.04779H18.7311C19.4481 6.04779 20.033 6.64038 20.033 7.36679V10.6977H16.1698C15.4623 10.6977 14.8868 11.2808 14.8868 11.9976V14.8984C14.8868 15.6153 15.4623 16.1983 16.1698 16.1983H20.033V19.5293ZM21.8632 14.8984C21.8632 14.9845 21.7972 15.0514 21.7123 15.0514H16.1745C16.0896 15.0514 16.0236 14.9845 16.0236 14.8984V11.9976C16.0236 11.9164 16.0896 11.8447 16.1745 11.8447H21.7123C21.7925 11.8447 21.8632 11.9116 21.8632 11.9976V14.8984V14.8984Z" fill="white"/>
</svg>
