<svg width="32" height="32" viewBox="0 0 32 32" fill="none" xmlns="http://www.w3.org/2000/svg">
<path fill-rule="evenodd" clip-rule="evenodd" d="M3.62687 14.0601L3.62494 14.0726L3.62205 14.0871C3.61916 14.1092 3.61627 14.1304 3.61338 14.1526V14.1545V14.1555V14.1564C3.61242 14.1603 3.61146 14.1641 3.61146 14.1689C3.60953 14.1815 3.60761 14.194 3.60568 14.2075L3.60087 14.2412L3.5999 14.2479L3.59894 14.2575V14.2585V14.2633L3.59798 14.2691V14.271L3.59605 14.2806V14.2893V14.2903L3.59413 14.296C3.58931 14.3365 3.58353 14.3789 3.57872 14.4212C3.5739 14.4578 3.57005 14.4944 3.56524 14.5329C3.56427 14.5474 3.56235 14.5609 3.56138 14.5753V14.5763L3.56042 14.5792V14.5801C3.55561 14.6244 3.55079 14.6706 3.54598 14.7159C3.54213 14.7496 3.53924 14.7843 3.53635 14.818V14.8218L3.53153 14.8546C3.52961 14.869 3.52864 14.8825 3.52768 14.895C3.52672 14.9095 3.52576 14.9239 3.52383 14.9374C3.52383 14.9451 3.52287 14.9518 3.5219 14.9595C3.52094 14.9701 3.51998 14.9817 3.51901 14.9923C3.51805 15.0058 3.51805 15.0192 3.51613 15.0327C3.51613 15.0395 3.51613 15.0462 3.51516 15.052C3.51131 15.0982 3.50746 15.1473 3.50553 15.2032L3.50457 15.2041V15.2051V15.207C3.50361 15.2311 3.50264 15.2542 3.50168 15.2783C3.49976 15.3023 3.49879 15.3274 3.49783 15.3524L3.49687 15.3543V15.3572V15.3611V15.362C3.49687 15.3659 3.4959 15.3678 3.4959 15.3707C3.4959 15.3765 3.4959 15.3813 3.4959 15.3871V15.3948V15.3958V15.3958L3.49494 15.4044C3.49398 15.4323 3.49301 15.4603 3.49205 15.4892C3.49109 15.4998 3.49013 15.5123 3.49013 15.5248C3.4882 15.5758 3.48627 15.623 3.48627 15.6721C3.48531 15.6798 3.48531 15.6875 3.48531 15.6962V15.7135C3.48435 15.754 3.48338 15.7935 3.48338 15.8339V15.856V15.8666V15.8676V15.909C3.48242 15.9206 3.48242 15.9331 3.48242 15.9456C3.48242 15.9543 3.48242 15.9629 3.48242 15.9716C3.48242 15.9803 3.48242 15.9889 3.48242 15.9976C3.48242 16.0092 3.48242 16.0217 3.48338 16.0332V16.0737V16.1064C3.51901 18.4869 4.47235 20.7209 6.16909 22.3936C7.86776 24.0692 10.1172 24.9907 12.5025 24.9907C12.8819 24.9907 13.2584 24.9666 13.6301 24.9195C13.7986 24.8992 13.9662 24.8752 14.1328 24.8453C14.1328 24.8443 14.1328 24.8443 14.1328 24.8443C12.8983 24.099 11.8303 23.0995 10.9916 21.8977C10.6873 21.4615 10.4186 21.006 10.1875 20.5351C10.1355 20.4292 10.0855 20.3223 10.0373 20.2144C10.0315 20.2029 10.0258 20.1923 10.0209 20.1798C9.43546 18.8653 9.13213 17.4382 9.13213 15.9716C9.13213 13.8377 9.77539 11.7885 10.9916 10.0455C11.2709 9.64494 11.5771 9.26745 11.9045 8.91405C12.9715 7.76331 14.2821 6.87064 15.7573 6.2996C16.2051 6.12627 16.6615 5.98568 17.1257 5.8759C17.8989 5.69486 18.6934 5.60338 19.4994 5.60338C21.3829 5.60338 23.1933 6.10412 24.7745 7.04108C24.7745 7.04108 24.7745 7.04012 24.7735 7.04012C24.7726 7.03916 24.7726 7.0382 24.7706 7.0382C24.7572 7.02375 24.7418 7.00931 24.7263 6.9939C24.7071 6.97464 24.6869 6.95634 24.6666 6.93708C24.6609 6.93131 24.6551 6.92553 24.6483 6.91975L24.6474 6.91879L24.6435 6.91494L24.6416 6.91301L24.6378 6.90916C24.6214 6.89279 24.6021 6.87545 24.5838 6.85812C24.5636 6.83982 24.5463 6.82249 24.5261 6.80323L24.5232 6.80131L24.5212 6.79938L24.5164 6.79457C24.5126 6.79168 24.5097 6.78879 24.5068 6.7859C24.4846 6.76471 24.4635 6.74449 24.4403 6.72523L24.4365 6.72042L24.4076 6.69442C24.4028 6.69057 24.3989 6.68575 24.3932 6.6819C24.3614 6.65301 24.3296 6.62412 24.2978 6.59523C24.2612 6.56345 24.2266 6.53264 24.1919 6.50279C24.1803 6.49316 24.1678 6.48353 24.1572 6.4739C24.1332 6.45271 24.1091 6.43249 24.085 6.41227L24.0359 6.37182L24.0099 6.34871L24.0089 6.34775L23.9897 6.33234L23.9791 6.32368C23.9502 6.2996 23.9232 6.27649 23.8953 6.25434L23.8905 6.25049L23.8876 6.24857L23.8857 6.24664L23.8818 6.24375C23.8616 6.22642 23.8404 6.21005 23.8192 6.19271L23.8163 6.19079L23.8154 6.18983L23.8144 6.18886C23.747 6.13494 23.6758 6.08005 23.6055 6.02516L23.6035 6.0242L23.6016 6.02323C23.5823 6.00783 23.5641 5.99338 23.5448 5.97894L23.5207 5.9616L23.5072 5.95101C23.5043 5.94812 23.5005 5.9462 23.4976 5.94331C23.4966 5.94234 23.4957 5.94234 23.4947 5.94138L23.4938 5.94042L23.4909 5.93849L23.4889 5.93753L23.4861 5.93464L23.4466 5.90575L23.4321 5.89516L23.3772 5.85471C23.3724 5.85086 23.3666 5.84701 23.3609 5.84316C23.3503 5.83545 23.3397 5.82871 23.3301 5.82101L23.3089 5.8056L23.3079 5.80464L23.3069 5.80368H23.305L23.3041 5.80271C23.2829 5.78634 23.2617 5.7719 23.2405 5.75649C23.2357 5.7536 23.2309 5.74975 23.2251 5.7459L23.2193 5.74205L23.2135 5.7382C23.1615 5.7016 23.1095 5.66597 23.0575 5.62938L23.0566 5.62842L23.0556 5.62745L23.0537 5.62649C23.0296 5.61108 23.0065 5.59375 22.9824 5.57834C22.9766 5.57449 22.9718 5.57064 22.9651 5.56679V5.56582L22.9632 5.56486C22.9275 5.54175 22.8919 5.51768 22.8572 5.49553C22.8553 5.4936 22.8524 5.49264 22.8505 5.49168L22.8486 5.48879L22.8447 5.48686C22.837 5.48205 22.8293 5.47723 22.8216 5.47242C22.7966 5.45605 22.7706 5.43871 22.7455 5.42331L22.7417 5.42042H22.7407L22.7378 5.41753C22.6993 5.39249 22.6608 5.36938 22.6223 5.34531L22.6184 5.34242L22.6175 5.34145L22.6117 5.33857C22.5722 5.31353 22.5327 5.28849 22.4923 5.26538L22.4287 5.22686L22.4278 5.2259C22.4181 5.22012 22.4095 5.21531 22.3998 5.20857C22.3873 5.20182 22.3748 5.19412 22.3632 5.18738L22.3603 5.18545V5.18545L22.3584 5.18449C22.3507 5.17968 22.343 5.17582 22.3353 5.17101C22.3074 5.15464 22.2785 5.13827 22.2496 5.1219L22.2275 5.10842C22.2178 5.10264 22.2082 5.09782 22.1986 5.09205C22.1716 5.07664 22.1446 5.06123 22.1186 5.04679C22.1158 5.04486 22.1138 5.0439 22.1109 5.04197C21.9338 4.94279 21.7518 4.84745 21.5707 4.75694C21.5669 4.75501 21.563 4.75212 21.5582 4.7502L21.5563 4.74923H21.5553L21.5515 4.74731C21.511 4.72612 21.4706 4.70686 21.4301 4.6876L21.3232 4.63657L21.3223 4.6356C21.3194 4.63368 21.3165 4.63271 21.3126 4.63175C21.3107 4.62982 21.3088 4.62982 21.3069 4.6279L21.304 4.62694H21.303L21.3011 4.62597C21.1749 4.56627 21.0584 4.51427 20.9458 4.46612L20.9429 4.46516L20.94 4.46323H20.9371L20.9342 4.46131C20.9072 4.44975 20.8803 4.4382 20.8523 4.42664L20.8418 4.42182L20.8331 4.41797L20.8321 4.41701H20.8312L20.783 4.39679C20.7657 4.38908 20.7483 4.38234 20.731 4.3756C20.7223 4.37175 20.7146 4.36886 20.7069 4.36597C20.5856 4.31686 20.4874 4.27738 20.3959 4.24464L20.341 4.22442L20.3333 4.22153L20.2765 4.20034C20.1234 4.14449 19.9645 4.09057 19.8046 4.03953L19.8027 4.03857L19.8008 4.0376C19.7979 4.0376 19.795 4.03664 19.7921 4.03568C19.7623 4.02605 19.7315 4.01642 19.7016 4.00679C19.6698 3.99716 19.639 3.98753 19.6072 3.97886C19.5889 3.97308 19.5706 3.96731 19.5514 3.96153C19.4821 3.94131 19.4156 3.92205 19.353 3.90471H19.3492V3.90471L19.3472 3.90375L19.3453 3.90279C19.3366 3.90086 19.328 3.89797 19.3193 3.89508C19.3058 3.8922 19.2914 3.88834 19.2779 3.88449L19.2692 3.8816L19.2567 3.87871C19.1258 3.84308 18.9919 3.81131 18.8571 3.77953C18.7772 3.76123 18.6982 3.7439 18.6183 3.72657C18.4844 3.69864 18.3496 3.66975 18.2148 3.64568C18.1638 3.63701 18.1137 3.62738 18.0636 3.61968L18.0607 3.61871H18.0588H18.0578C18.0078 3.61005 17.9567 3.60234 17.9066 3.59464C17.8835 3.59175 17.8604 3.5879 17.8363 3.58501C17.8075 3.5802 17.7776 3.57538 17.7487 3.57153C17.6052 3.55131 17.4598 3.53397 17.3144 3.51857C17.0342 3.48968 16.7521 3.46945 16.4689 3.45982C16.312 3.45405 16.155 3.4502 15.9971 3.4502C15.7332 3.4502 15.4675 3.45982 15.2017 3.47716C15.1747 3.47812 15.1458 3.47908 15.1179 3.48101C14.8261 3.50123 14.5343 3.53205 14.2455 3.57153C14.1935 3.57923 14.1424 3.58694 14.0904 3.59464C14.0895 3.5956 14.0875 3.5956 14.0866 3.5956C14.0856 3.5956 14.0856 3.5956 14.0846 3.5956L3.62687 14.0572V14.0601Z" fill="white"/>
<path fill-rule="evenodd" clip-rule="evenodd" d="M28.376 17.8657L28.377 17.8561L28.3779 17.8465C28.3808 17.8292 28.3837 17.8099 28.3856 17.7935L28.3866 17.7887L28.3876 17.782L28.3885 17.7743C28.3914 17.7512 28.3962 17.728 28.3982 17.7049L28.4001 17.6895L28.403 17.6741C28.4039 17.6664 28.4049 17.6597 28.4059 17.652L28.4155 17.574L28.4232 17.52C28.4299 17.468 28.4348 17.4199 28.4405 17.3708L28.4415 17.364C28.4463 17.3178 28.4511 17.2745 28.455 17.2292C28.4588 17.1926 28.4627 17.157 28.4656 17.1233V17.1214L28.4685 17.0867C28.4713 17.0626 28.4733 17.0376 28.4752 17.0145V17.0049L28.4762 16.9952C28.48 16.9635 28.4819 16.9317 28.4839 16.9009V16.896L28.4848 16.8883C28.4887 16.8421 28.4925 16.793 28.4945 16.7381V16.7352C28.4983 16.6861 28.5012 16.638 28.5031 16.5908L28.5041 16.5773V16.558V16.5388C28.507 16.4993 28.5089 16.4589 28.5099 16.4184C28.5118 16.3635 28.5137 16.3115 28.5147 16.2595L28.5156 16.2537V16.2297C28.5156 16.1921 28.5166 16.1546 28.5166 16.116V16.0746L28.5176 16.0679C28.5185 16.0352 28.5185 16.0034 28.5185 15.9716C28.5185 15.9379 28.5185 15.9032 28.5176 15.8705V15.8676L28.5166 15.8349C28.4819 13.4544 27.5276 11.2213 25.8319 9.54767C24.1322 7.87308 21.8837 6.95056 19.4975 6.95056C18.9467 6.95056 18.4016 6.99967 17.8682 7.09693C19.1027 7.84323 20.1706 8.84278 21.0093 10.0455C22.2265 11.7885 22.8698 13.8377 22.8698 15.9716C22.8698 18.1046 22.2265 20.1537 21.0093 21.8977C19.821 23.6002 18.1734 24.8954 16.2427 25.6426C15.0515 26.1039 13.7929 26.3379 12.5025 26.3379C10.619 26.3379 8.80957 25.8381 7.22742 24.9012L7.23031 24.905L7.23801 24.9108L7.24475 24.9175C7.25245 24.9262 7.26016 24.9329 7.26786 24.9397L7.2929 24.9647C7.31312 24.9849 7.33238 25.0042 7.35357 25.0235L7.35742 25.0263L7.36127 25.0302C7.39497 25.062 7.43445 25.1015 7.47394 25.1361L7.47971 25.1409L7.48549 25.1467C7.51149 25.1708 7.53653 25.1949 7.56349 25.2189L7.56542 25.2209L7.56734 25.2228C7.6126 25.2652 7.65882 25.3066 7.70601 25.347L7.7089 25.3489L7.71082 25.3518C7.74164 25.3788 7.77149 25.4057 7.80327 25.4327L7.80905 25.4366L7.82927 25.4549L7.83119 25.4558L7.92075 25.5319L7.93808 25.5473L7.9429 25.5521C7.96697 25.5723 7.99105 25.5926 8.01512 25.6118L8.02475 25.6195L8.03342 25.6282C8.05364 25.6455 8.07771 25.6648 8.10371 25.685L8.11238 25.6927L8.12105 25.6985C8.13934 25.7158 8.1586 25.7312 8.1769 25.7447L8.18268 25.7495L8.18845 25.7534C8.2549 25.8083 8.32423 25.8612 8.39453 25.9152C8.40994 25.9267 8.42438 25.9392 8.43979 25.9498C8.45712 25.9633 8.47349 25.9758 8.49179 25.9893C8.50142 25.997 8.51105 26.0037 8.51971 26.0114L8.53705 26.023C8.56401 26.0442 8.5929 26.0644 8.62082 26.0856L8.64682 26.1049C8.66127 26.1145 8.67571 26.1251 8.69016 26.1347L8.69497 26.1395L8.70075 26.1434C8.72194 26.1588 8.74312 26.1732 8.76334 26.1877L8.78645 26.204C8.83749 26.2406 8.89045 26.2763 8.94342 26.3138L8.94823 26.3157L8.95305 26.3196C8.97616 26.336 8.99927 26.3514 9.02238 26.3668L9.03971 26.3783L9.09749 26.4169L9.15912 26.4573C9.18994 26.4775 9.22171 26.4997 9.25542 26.5189C9.28816 26.5411 9.31994 26.5613 9.35171 26.5815H9.43164L9.57319 26.7173C9.59534 26.7298 9.61749 26.7433 9.63964 26.7568C9.68201 26.7818 9.72631 26.8088 9.76964 26.8329L9.77445 26.8348L9.77831 26.8377C9.81201 26.8579 9.84668 26.8772 9.88231 26.8964C10.0662 27.0004 10.254 27.0996 10.4408 27.192C10.4832 27.2132 10.5236 27.2335 10.565 27.2527C10.5708 27.2566 10.5776 27.2585 10.5833 27.2623C10.6219 27.2806 10.6604 27.298 10.6999 27.3172C10.8173 27.3731 10.9377 27.427 11.0562 27.4761L11.0581 27.478L11.061 27.479C11.0908 27.4915 11.1207 27.505 11.1496 27.5175C11.1582 27.5204 11.1679 27.5252 11.1775 27.5291C11.217 27.5454 11.2565 27.5609 11.2959 27.5782C11.3922 27.6167 11.4962 27.6572 11.606 27.6976L11.6089 27.6995L11.6128 27.7005C11.6465 27.713 11.6792 27.7265 11.7139 27.738L11.7187 27.74L11.7235 27.7409C11.8824 27.7997 12.0413 27.8536 12.1934 27.9017L12.1982 27.9037L12.203 27.9046C12.2339 27.9152 12.2647 27.9258 12.2955 27.9345L12.3003 27.9354L12.3042 27.9364C12.3504 27.9518 12.3976 27.9653 12.4438 27.9797L12.4823 27.9913C12.5391 28.0067 12.594 28.0231 12.6489 28.0385C12.6797 28.0472 12.7076 28.0539 12.7356 28.0616L12.7423 28.0635C13.087 28.156 13.4385 28.2349 13.7842 28.2956L13.7881 28.2966L13.7929 28.2975C13.8343 28.3052 13.8796 28.3129 13.9364 28.3226H13.9393L13.9422 28.3235C13.998 28.3322 14.0442 28.3399 14.0866 28.3457L14.0933 28.3476H14.1001C14.1482 28.3563 14.1983 28.363 14.2465 28.3697H14.2513C14.8271 28.4506 15.4165 28.492 16.0019 28.492C16.5874 28.492 17.1777 28.4506 17.7536 28.3697L17.7651 28.3678C17.8123 28.362 17.8576 28.3563 17.9038 28.3476H17.9105L17.9153 28.3457L28.376 17.886C28.3731 17.8783 28.3741 17.8715 28.376 17.8657Z" fill="white"/>
<path fill-rule="evenodd" clip-rule="evenodd" d="M18.0588 3.62162H18.0598V3.62065C18.0087 3.61295 17.9586 3.60428 17.9086 3.59658C17.8845 3.59273 17.8614 3.58984 17.8383 3.58695C17.8614 3.58984 17.8845 3.59369 17.9086 3.59658C17.9577 3.60428 18.0087 3.61295 18.0588 3.62162Z" fill="white"/>
<path fill-rule="evenodd" clip-rule="evenodd" d="M21.3021 4.62794L21.303 4.6289L21.3021 4.62794C21.175 4.56823 21.0584 4.51623 20.9458 4.46808L20.9429 4.46712L20.9458 4.46808C21.0584 4.51623 21.175 4.56823 21.3021 4.62794Z" fill="white"/>
<path fill-rule="evenodd" clip-rule="evenodd" d="M19.7941 4.03858C19.7642 4.02895 19.7344 4.01932 19.7036 4.00969C19.6718 4.00102 19.64 3.99139 19.6092 3.98176C19.64 3.99139 19.6718 4.00102 19.7036 4.01065C19.7334 4.01932 19.7642 4.02895 19.7941 4.03858Z" fill="white"/>
<path fill-rule="evenodd" clip-rule="evenodd" d="M19.3203 3.89801C19.3068 3.89416 19.2933 3.89031 19.2789 3.88742L19.2712 3.88453L19.2799 3.88742C19.2933 3.89127 19.3068 3.89512 19.3203 3.89801Z" fill="white"/>
<path fill-rule="evenodd" clip-rule="evenodd" d="M19.3511 3.90858C19.3521 3.90858 19.353 3.90762 19.353 3.90665C19.353 3.90569 19.3521 3.90473 19.3511 3.90473C19.3501 3.90473 19.3492 3.90569 19.3492 3.90665C19.3492 3.90762 19.3501 3.90858 19.3511 3.90858Z" fill="white"/>
<path fill-rule="evenodd" clip-rule="evenodd" d="M20.8427 4.42473L20.8533 4.42858C20.8813 4.44013 20.9082 4.45169 20.9352 4.46421L20.9381 4.46517L20.9362 4.46421C20.9082 4.45169 20.8813 4.44013 20.8533 4.42858L20.8427 4.42473L20.835 4.42087L20.8331 4.41991L20.8341 4.42087L20.8427 4.42473Z" fill="white"/>
<path fill-rule="evenodd" clip-rule="evenodd" d="M21.3233 4.63849L21.4302 4.68953C21.4716 4.70879 21.512 4.72805 21.5515 4.74923L21.5563 4.75116H21.5573L21.5553 4.7502L21.5515 4.74827C21.5111 4.72805 21.4716 4.70879 21.4302 4.68953L21.3233 4.63753V4.63753C21.3194 4.63657 21.3165 4.63464 21.3136 4.63368C21.3175 4.63464 21.3204 4.6356 21.3233 4.63753V4.63849Z" fill="white"/>
<path fill-rule="evenodd" clip-rule="evenodd" d="M20.3969 4.24653C20.4883 4.28023 20.5866 4.31875 20.7079 4.36786C20.7156 4.37075 20.7233 4.37364 20.732 4.37749C20.7243 4.37364 20.7156 4.36978 20.7079 4.3669C20.5866 4.31875 20.4883 4.28023 20.3969 4.24653L20.342 4.2263L20.3343 4.22341L20.342 4.2263L20.3969 4.24653Z" fill="white"/>
<path fill-rule="evenodd" clip-rule="evenodd" d="M3.59701 14.2585L3.59605 14.2633V14.2682L3.59701 14.2633V14.2585Z" fill="white"/>
<path fill-rule="evenodd" clip-rule="evenodd" d="M3.59512 14.2806L3.59416 14.2883V14.2903V14.2883L3.59512 14.2806Z" fill="white"/>
<path fill-rule="evenodd" clip-rule="evenodd" d="M3.61242 14.1526C3.61531 14.1304 3.61916 14.1092 3.62205 14.0881L3.62398 14.0726L3.62205 14.0881C3.61916 14.1083 3.61531 14.1304 3.61242 14.1526V14.1545V14.1564V14.1545V14.1526Z" fill="white"/>
<path fill-rule="evenodd" clip-rule="evenodd" d="M3.6105 14.1699C3.60857 14.1824 3.60664 14.1949 3.60472 14.2084L3.5999 14.2421L3.60472 14.2084C3.60664 14.1949 3.60857 14.1824 3.6105 14.1699Z" fill="white"/>
<path fill-rule="evenodd" clip-rule="evenodd" d="M3.55854 14.5753C3.56047 14.5609 3.56143 14.5474 3.56336 14.533C3.56143 14.5474 3.56047 14.5609 3.55854 14.5753V14.5763V14.5792V14.5763V14.5753Z" fill="white"/>
<path fill-rule="evenodd" clip-rule="evenodd" d="M3.50073 15.2773C3.49881 15.3024 3.49785 15.3274 3.49592 15.3524V15.3544L3.49688 15.3524C3.49785 15.3274 3.49881 15.3024 3.50073 15.2773Z" fill="white"/>
<path fill-rule="evenodd" clip-rule="evenodd" d="M3.52771 14.895C3.52578 14.9095 3.52482 14.9229 3.52385 14.9374C3.52289 14.9451 3.52193 14.9518 3.52193 14.9595C3.52193 14.9518 3.52289 14.9441 3.52385 14.9374C3.52482 14.9229 3.52578 14.9085 3.52771 14.895Z" fill="white"/>
<path fill-rule="evenodd" clip-rule="evenodd" d="M3.51517 15.052C3.51517 15.0462 3.51517 15.0395 3.51613 15.0327C3.51517 15.0395 3.51517 15.0462 3.51517 15.052C3.51035 15.0982 3.50746 15.1473 3.50457 15.2032V15.2041V15.2032C3.50746 15.1473 3.51035 15.0982 3.51517 15.052Z" fill="white"/>
<path fill-rule="evenodd" clip-rule="evenodd" d="M15.1198 3.48389C15.1487 3.48196 15.1766 3.481 15.2036 3.47907C15.1766 3.481 15.1487 3.48196 15.1198 3.48389Z" fill="white"/>
<path fill-rule="evenodd" clip-rule="evenodd" d="M14.0876 3.59758L14.0866 3.59854L14.0895 3.59758H14.0876Z" fill="white"/>
<path fill-rule="evenodd" clip-rule="evenodd" d="M10.02 20.1797C10.0248 20.1913 10.0306 20.2028 10.0354 20.2144C10.0306 20.2028 10.0248 20.1913 10.02 20.1797Z" fill="white"/>
<path fill-rule="evenodd" clip-rule="evenodd" d="M16.4709 3.46175C16.754 3.47138 17.0362 3.49161 17.3164 3.5205C17.0362 3.49161 16.754 3.47138 16.4709 3.46175Z" fill="white"/>
<path fill-rule="evenodd" clip-rule="evenodd" d="M18.6193 3.72941C18.7002 3.74675 18.7791 3.76408 18.8581 3.78238C18.7791 3.76408 18.7002 3.74675 18.6193 3.72941Z" fill="white"/>
<path fill-rule="evenodd" clip-rule="evenodd" d="M21.5707 4.75792C21.7537 4.84843 21.9347 4.94377 22.111 5.04392C21.9338 4.94377 21.7537 4.84843 21.5707 4.75792Z" fill="white"/>
<path fill-rule="evenodd" clip-rule="evenodd" d="M11.9036 8.914C12.9696 7.76326 14.2802 6.8706 15.7564 6.2986C16.2032 6.12526 16.6596 5.98467 17.1238 5.87585C16.6596 5.98467 16.2032 6.12526 15.7554 6.2986C14.2802 6.86963 12.9696 7.76326 11.9036 8.914Z" fill="white"/>
<path fill-rule="evenodd" clip-rule="evenodd" d="M14.1318 24.8443C12.8973 24.099 11.8294 23.0994 10.9897 21.8976C10.6854 21.4614 10.4177 21.0059 10.1856 20.535C10.4177 21.0059 10.6854 21.4614 10.9897 21.8976C11.8284 23.0994 12.8963 24.099 14.1318 24.8443Z" fill="white"/>
<path fill-rule="evenodd" clip-rule="evenodd" d="M6.16817 22.3935C4.47143 20.7199 3.51714 18.4868 3.48247 16.1064L3.48151 16.0727V16.0332C3.48151 16.0207 3.48151 16.0091 3.48151 15.9966C3.48151 16.0091 3.48151 16.0207 3.48151 16.0322C3.48151 16.0457 3.48151 16.0592 3.48151 16.0727L3.48247 16.1064C3.51714 18.4878 4.47143 20.7199 6.16817 22.3935C7.86684 24.0681 10.1154 24.9916 12.5016 24.9916C12.881 24.9916 13.2565 24.9666 13.6282 24.9194C13.2565 24.9656 12.881 24.9907 12.5016 24.9907C10.1154 24.9907 7.86684 24.0691 6.16817 22.3935Z" fill="white"/>
<path fill-rule="evenodd" clip-rule="evenodd" d="M3.48438 15.7126V15.6962C3.48438 15.6876 3.48438 15.6799 3.48535 15.6722C3.48631 15.623 3.48727 15.5749 3.4892 15.5239C3.49016 15.5123 3.49016 15.4998 3.49112 15.4882C3.49016 15.4998 3.49016 15.5123 3.4892 15.5239C3.48727 15.5749 3.48631 15.623 3.48535 15.6722C3.48535 15.6799 3.48535 15.6876 3.48438 15.6962V15.7001V15.7078V15.7126C3.48342 15.753 3.48342 15.7925 3.48246 15.833V15.8561V15.833C3.48246 15.7925 3.48342 15.753 3.48438 15.7126Z" fill="white"/>
</svg>
