<svg width="24" height="24" viewBox="0 0 24 24" fill="none" xmlns="http://www.w3.org/2000/svg">
<path fill-rule="evenodd" clip-rule="evenodd" d="M20.4894 3.51071C15.8086 -1.17001 8.19201 -1.17047 3.51076 3.51071C-1.17049 8.19189 -1.17002 15.8079 3.51076 20.4891C8.19155 25.1703 15.8082 25.1703 20.4894 20.4891C25.1702 15.8079 25.1702 8.19143 20.4894 3.51071ZM16.7344 16.7342C16.3738 17.0948 15.7892 17.0948 15.4286 16.7342L12.0001 13.3057L8.40857 16.8972C8.04794 17.2578 7.46337 17.2578 7.10274 16.8972C6.74211 16.5366 6.74211 15.952 7.10274 15.5914L10.6942 11.9999L7.26574 8.57145C6.90511 8.21083 6.90511 7.62579 7.26574 7.26563C7.62636 6.90501 8.21094 6.90501 8.57157 7.26563L12.0001 10.6941L15.2651 7.42909C15.6258 7.06847 16.2103 7.06847 16.571 7.42909C16.9316 7.78971 16.9316 8.37428 16.571 8.73491L13.3059 11.9999L16.7344 15.4284C17.0951 15.789 17.0951 16.3736 16.7344 16.7342Z" fill="white"/>
</svg>
