<svg width="226" height="186" viewBox="0 0 226 186" fill="none" xmlns="http://www.w3.org/2000/svg">
<path opacity="0.1" fill-rule="evenodd" clip-rule="evenodd" d="M131.308 24.9391C116.82 24.4351 103.021 19.7591 89.844 14.6411C76.667 9.52412 63.616 3.85312 49.475 1.14212C40.379 -0.601877 29.976 -0.847877 22.6492 4.02812C15.5953 8.72912 13.3163 16.8221 12.0918 24.3391C11.1695 29.9941 10.6277 35.9471 13.1529 41.2391C14.908 44.9151 18.0197 48.0041 20.1733 51.5251C27.666 63.7751 22.3694 78.8821 14.2521 90.8431C10.4464 96.4551 6.02509 101.813 3.08579 107.781C0.14639 113.749 -1.21241 120.597 1.35979 126.691C3.90729 132.735 9.98079 137.266 16.5601 140.456C29.923 146.937 45.662 148.791 61.022 149.841C95.011 152.167 129.179 151.159 163.258 150.152C175.87 149.778 188.537 149.4 200.943 147.45C207.834 146.366 214.946 144.649 219.949 140.499C226.298 135.231 227.872 126.312 223.616 119.706C216.479 108.627 196.752 105.876 191.758 93.9861C189.013 87.4401 191.832 80.1511 195.823 74.0801C204.384 61.0601 218.731 49.6361 219.486 34.7531C220.005 24.5321 213.108 14.2941 202.443 9.45712C191.265 4.38812 175.763 5.02412 167.52 13.4171C159.025 22.0581 144.102 25.3821 131.308 24.9391Z" fill="#FA7268"/>
<path opacity="0.1" fill-rule="evenodd" clip-rule="evenodd" d="M121.237 182.044C158.819 182.044 189.285 177.922 189.285 172.838C189.285 167.754 158.819 163.633 121.237 163.633C83.655 163.633 53.189 167.754 53.189 172.838C53.189 177.922 83.655 182.044 121.237 182.044Z" fill="#B643D5"/>
<path fill-rule="evenodd" clip-rule="evenodd" d="M158.372 62.8821H157.414C157.13 62.8821 156.901 63.1111 156.901 63.3941V78.7161C156.901 78.9991 157.13 79.2291 157.414 79.2291H158.372C158.655 79.2291 158.884 78.9991 158.884 78.7161V63.3941C158.884 63.1111 158.655 62.8821 158.372 62.8821Z" fill="#3A3768"/>
<path fill-rule="evenodd" clip-rule="evenodd" d="M91.589 50.074H91.501C91.218 50.074 90.989 50.304 90.989 50.587V54.943C90.989 55.226 91.218 55.456 91.501 55.456H91.589C91.872 55.456 92.101 55.226 92.101 54.943V50.587C92.101 50.304 91.872 50.074 91.589 50.074Z" fill="#3A3768"/>
<path fill-rule="evenodd" clip-rule="evenodd" d="M91.688 59.929H91.46C91.177 59.929 90.947 60.158 90.947 60.441V68.783C90.947 69.066 91.177 69.295 91.46 69.295H91.688C91.971 69.295 92.201 69.066 92.201 68.783V60.441C92.201 60.158 91.971 59.929 91.688 59.929Z" fill="#3A3768"/>
<path fill-rule="evenodd" clip-rule="evenodd" d="M91.649 72.572H91.481C91.198 72.572 90.969 72.802 90.969 73.085V81.507C90.969 81.79 91.198 82.019 91.481 82.019H91.649C91.932 82.019 92.162 81.79 92.162 81.507V73.085C92.162 72.802 91.932 72.572 91.649 72.572Z" fill="#3A3768"/>
<path fill-rule="evenodd" clip-rule="evenodd" d="M149.243 32.29H100.347C95.527 32.29 91.619 36.198 91.619 41.019V158.416C91.619 163.237 95.527 167.145 100.347 167.145H149.243C154.064 167.145 157.972 163.237 157.972 158.416V41.019C157.972 36.198 154.064 32.29 149.243 32.29Z" fill="#3A3768"/>
<path fill-rule="evenodd" clip-rule="evenodd" d="M148.611 35.7939H141V36.7099C141 37.2789 140.888 37.8439 140.669 38.3699C140.451 38.8969 140.132 39.3749 139.728 39.7779C139.325 40.1809 138.847 40.5009 138.32 40.7179C137.794 40.9359 137.229 41.0479 136.659 41.0479H112.453C111.883 41.0479 111.319 40.9359 110.792 40.7179C110.265 40.5009 109.787 40.1809 109.384 39.7779C108.981 39.3749 108.661 38.8969 108.443 38.3699C108.224 37.8439 108.112 37.2789 108.112 36.7099V35.7939H100.987C99.589 35.7939 98.249 36.3489 97.26 37.3369C96.272 38.3259 95.717 39.6659 95.717 41.0639V158.363C95.717 159.761 96.272 161.101 97.26 162.089C98.249 163.077 99.589 163.633 100.987 163.633H148.611C150.009 163.633 151.349 163.077 152.338 162.089C153.326 161.101 153.881 159.761 153.881 158.363V41.0729C153.882 40.3799 153.747 39.6939 153.482 39.0529C153.218 38.4129 152.83 37.8309 152.341 37.3409C151.851 36.8499 151.27 36.4609 150.63 36.1959C149.99 35.9309 149.304 35.7939 148.611 35.7939Z" fill="white"/>
<path fill-rule="evenodd" clip-rule="evenodd" d="M126.794 36.3169H119.261C118.782 36.3169 118.395 36.7049 118.395 37.1839V37.3309C118.395 37.8099 118.782 38.1979 119.261 38.1979H126.794C127.272 38.1979 127.66 37.8099 127.66 37.3309V37.1839C127.66 36.7049 127.272 36.3169 126.794 36.3169Z" fill="#E6E8EC"/>
<path fill-rule="evenodd" clip-rule="evenodd" d="M130.129 38.3259C130.719 38.3259 131.197 37.8479 131.197 37.2579C131.197 36.6689 130.719 36.1899 130.129 36.1899C129.539 36.1899 129.061 36.6689 129.061 37.2579C129.061 37.8479 129.539 38.3259 130.129 38.3259Z" fill="#E6E8EC"/>
<path fill-rule="evenodd" clip-rule="evenodd" d="M180.944 26.376C180.944 26.376 162.094 25.239 164.315 38.447C164.315 38.447 163.867 40.782 165.99 41.841C165.99 41.841 166.023 40.862 167.924 41.196C168.601 41.308 169.288 41.341 169.972 41.295C170.895 41.234 171.774 40.875 172.475 40.271C172.475 40.271 177.774 38.082 179.833 29.423C179.833 29.423 181.358 27.533 181.297 27.048L178.116 28.407C178.116 28.407 179.204 30.701 178.34 32.609C178.34 32.609 178.237 28.489 177.626 28.579C177.503 28.597 175.974 29.374 175.974 29.374C175.974 29.374 177.843 33.37 176.433 36.275C176.433 36.275 176.968 31.35 175.39 29.662L173.151 30.97C173.151 30.97 175.336 35.098 173.854 38.467C173.854 38.467 174.235 33.3 172.679 31.288L170.651 32.87C170.651 32.87 172.703 36.938 171.452 39.732C171.452 39.732 171.289 33.719 170.212 33.264C170.212 33.264 168.436 34.832 168.166 35.472C168.166 35.472 169.571 38.427 168.698 39.985C168.698 39.985 168.163 35.978 167.725 35.955C167.725 35.955 165.956 38.61 165.773 40.433C165.773 40.433 165.849 37.726 167.297 35.705C167.297 35.705 165.587 35.998 164.588 37.106C164.588 37.106 164.864 35.23 167.734 35.064C167.734 35.064 169.195 33.05 169.585 32.929C169.585 32.929 166.733 32.689 165.002 33.457C165.002 33.457 166.525 31.686 170.109 32.492L172.112 30.856C172.112 30.856 168.356 30.343 166.762 30.909C166.762 30.909 168.595 29.342 172.652 30.484L174.832 29.181C174.832 29.181 171.629 28.492 169.721 28.733C169.721 28.733 171.736 27.648 175.473 28.825L177.04 28.125C177.04 28.125 174.693 27.663 174.006 27.589C173.319 27.516 173.283 27.328 173.283 27.328C174.769 27.08 176.295 27.249 177.691 27.818C177.691 27.818 181 26.584 180.944 26.376Z" fill="#FA7268"/>
<path fill-rule="evenodd" clip-rule="evenodd" d="M161.609 20.501C161.609 20.501 153.102 19.989 154.096 25.957C154.096 25.957 153.897 27.011 154.853 27.49C154.853 27.49 154.868 27.043 155.728 27.197C156.033 27.248 156.344 27.264 156.652 27.242C157.07 27.214 157.467 27.051 157.783 26.776C157.783 26.776 160.178 25.787 161.11 21.874C161.11 21.874 161.797 21.021 161.77 20.801L160.333 21.415C160.333 21.415 160.823 22.451 160.438 23.313C160.438 23.313 160.391 21.453 160.116 21.495C160.06 21.495 159.368 21.856 159.368 21.856C159.368 21.856 160.214 23.662 159.576 24.974C159.576 24.974 159.818 22.749 159.104 21.985L158.092 22.585C158.092 22.585 159.079 24.45 158.41 25.973C158.41 25.973 158.582 23.638 157.879 22.729L156.964 23.445C156.964 23.445 157.89 25.283 157.326 26.546C157.326 26.546 157.25 23.828 156.764 23.622C156.764 23.622 155.963 24.329 155.84 24.62C155.84 24.62 156.476 25.964 156.082 26.66C156.082 26.66 155.84 24.849 155.634 24.84C155.634 24.84 154.835 26.04 154.752 26.855C154.792 26.095 155.03 25.359 155.441 24.719C154.98 24.806 154.555 25.026 154.217 25.352C154.217 25.352 154.342 24.504 155.638 24.43C155.638 24.43 156.31 23.519 156.476 23.463C156.476 23.463 155.186 23.356 154.405 23.703C154.405 23.703 155.092 22.903 156.711 23.266L157.606 22.527C157.606 22.527 155.907 22.303 155.188 22.552C155.188 22.552 156.017 21.844 157.85 22.359L158.835 21.771C158.835 21.771 157.387 21.459 156.525 21.571C156.525 21.571 157.436 21.081 159.124 21.612L159.829 21.296C159.829 21.296 158.768 21.088 158.457 21.054C158.146 21.021 158.13 20.936 158.13 20.936C158.802 20.824 159.492 20.901 160.122 21.159C160.122 21.159 161.636 20.595 161.609 20.501Z" fill="#FA7268"/>
<path fill-rule="evenodd" clip-rule="evenodd" d="M70.943 142.095C70.943 142.095 79.45 141.582 78.456 147.551C78.456 147.551 78.655 148.605 77.699 149.084C77.699 149.084 77.684 148.636 76.824 148.791C76.519 148.842 76.208 148.857 75.899 148.836C75.482 148.808 75.085 148.644 74.769 148.37C74.769 148.37 72.373 147.38 71.442 143.467C71.442 143.467 70.755 142.614 70.782 142.395L72.219 143.008C72.219 143.008 71.729 144.045 72.114 144.907C72.114 144.907 72.161 143.046 72.436 143.089C72.492 143.089 73.184 143.449 73.184 143.449C73.184 143.449 72.338 145.256 72.976 146.568C72.976 146.568 72.734 144.343 73.448 143.579L74.46 144.179C74.46 144.179 73.473 146.044 74.142 147.566C74.142 147.566 73.97 145.231 74.673 144.322L75.588 145.039C75.588 145.039 74.661 146.877 75.225 148.139C75.225 148.139 75.302 145.422 75.787 145.216C75.787 145.216 76.589 145.923 76.712 146.214C76.712 146.214 76.076 147.557 76.47 148.254C76.47 148.254 76.712 146.442 76.918 146.434C76.918 146.434 77.717 147.633 77.8 148.448C77.76 147.689 77.522 146.952 77.11 146.313C77.572 146.4 77.997 146.62 78.335 146.946C78.335 146.946 78.21 146.098 76.913 146.024C76.913 146.024 76.242 145.113 76.076 145.057C76.076 145.057 77.366 144.949 78.147 145.296C78.147 145.296 77.46 144.497 75.841 144.86L74.946 144.121C74.946 144.121 76.645 143.897 77.363 144.146C77.363 144.146 76.535 143.438 74.702 143.953L73.717 143.364C73.717 143.364 75.165 143.053 76.027 143.165C76.027 143.165 75.116 142.675 73.428 143.205L72.723 142.89C72.723 142.89 73.784 142.682 74.095 142.648C74.406 142.614 74.422 142.529 74.422 142.529C73.75 142.418 73.06 142.495 72.429 142.753C72.429 142.753 70.916 142.189 70.943 142.095Z" fill="#FA7268"/>
<path fill-rule="evenodd" clip-rule="evenodd" d="M63.97 106.993C63.97 106.993 51.936 106.296 53.342 114.403C53.342 114.403 53.06 115.835 54.413 116.486C54.413 116.486 54.435 115.877 55.651 116.087C56.083 116.157 56.522 116.177 56.959 116.148C57.549 116.111 58.111 115.888 58.558 115.516C58.558 115.516 61.946 114.172 63.264 108.856C63.264 108.856 64.236 107.698 64.198 107.4L62.165 108.233C62.165 108.233 62.858 109.641 62.314 110.812C62.314 110.812 62.247 108.285 61.858 108.343C61.778 108.343 60.8 108.832 60.8 108.832C60.8 108.832 61.997 111.286 61.094 113.068C61.094 113.068 61.436 110.045 60.426 109.008L58.995 109.823C58.995 109.823 60.391 112.356 59.445 114.424C59.445 114.424 59.688 111.253 58.694 110.018L57.399 110.991C57.399 110.991 58.71 113.487 57.912 115.202C57.912 115.202 57.804 111.511 57.117 111.231C57.117 111.231 55.983 112.192 55.809 112.587C55.809 112.587 56.709 114.412 56.151 115.357C56.151 115.357 55.809 112.898 55.518 112.885C55.518 112.885 54.387 114.515 54.27 115.622C54.327 114.59 54.663 113.59 55.245 112.721C54.593 112.84 53.991 113.139 53.513 113.582C53.513 113.582 53.691 112.429 55.524 112.329C55.524 112.329 56.474 111.091 56.709 111.015C56.709 111.015 54.884 110.869 53.779 111.341C53.779 111.341 54.751 110.255 57.041 110.748L58.308 109.744C58.308 109.744 55.904 109.44 54.888 109.778C54.888 109.778 56.059 108.817 58.653 109.516L60.046 108.717C60.046 108.717 57.997 108.294 56.778 108.446C56.778 108.446 58.067 107.78 60.455 108.501L61.452 108.072C61.452 108.072 59.951 107.789 59.511 107.744C59.071 107.698 59.049 107.582 59.049 107.582C59.999 107.431 60.975 107.536 61.867 107.886C61.867 107.886 64.008 107.12 63.97 106.993Z" fill="#FA7268"/>
<path opacity="0.1" fill-rule="evenodd" clip-rule="evenodd" d="M33.3934 180.503C36.7229 180.503 39.422 180.047 39.422 179.484C39.422 178.922 36.7229 178.466 33.3934 178.466C30.0639 178.466 27.3647 178.922 27.3647 179.484C27.3647 180.047 30.0639 180.503 33.3934 180.503Z" fill="#6C63FF"/>
<path opacity="0.1" fill-rule="evenodd" clip-rule="evenodd" d="M56.712 185.968C60.042 185.968 62.741 185.512 62.741 184.949C62.741 184.387 60.042 183.931 56.712 183.931C53.383 183.931 50.684 184.387 50.684 184.949C50.684 185.512 53.383 185.968 56.712 185.968Z" fill="#6C63FF"/>
<path fill-rule="evenodd" clip-rule="evenodd" d="M193.261 183.563C198.232 183.563 202.262 182.882 202.262 182.041C202.262 181.2 198.232 180.519 193.261 180.519C188.289 180.519 184.259 181.2 184.259 182.041C184.259 182.882 188.289 183.563 193.261 183.563Z" fill="#FA7268"/>
<path fill-rule="evenodd" clip-rule="evenodd" d="M196.983 179.551C197.394 179.216 197.693 178.764 197.841 178.255C197.953 177.742 197.733 177.136 197.241 176.937C196.69 176.726 196.101 177.109 195.656 177.494C195.21 177.879 194.698 178.32 194.113 178.237C194.414 177.965 194.639 177.62 194.767 177.235C194.894 176.85 194.92 176.439 194.841 176.041C194.815 175.876 194.744 175.721 194.637 175.593C194.333 175.266 193.778 175.405 193.413 175.665C192.249 176.482 191.924 178.065 191.917 179.486C191.799 178.974 191.899 178.439 191.895 177.919C191.891 177.4 191.749 176.8 191.304 176.525C191.029 176.377 190.72 176.305 190.409 176.314C189.885 176.294 189.303 176.348 188.944 176.731C188.497 177.205 188.618 178.002 189.003 178.521C189.388 179.041 189.976 179.374 190.518 179.735C190.952 179.993 191.321 180.346 191.6 180.767C191.633 180.826 191.66 180.888 191.68 180.953H194.951C195.688 180.579 196.372 180.108 196.983 179.551Z" fill="#FA7268"/>
<path fill-rule="evenodd" clip-rule="evenodd" d="M76.126 172.187C81.097 172.187 85.127 171.506 85.127 170.665C85.127 169.824 81.097 169.143 76.126 169.143C71.154 169.143 67.124 169.824 67.124 170.665C67.124 171.506 71.154 172.187 76.126 172.187Z" fill="#FA7268"/>
<path fill-rule="evenodd" clip-rule="evenodd" d="M79.848 168.175C80.258 167.84 80.557 167.388 80.706 166.879C80.817 166.366 80.598 165.76 80.106 165.561C79.555 165.35 78.966 165.733 78.521 166.118C78.075 166.503 77.563 166.944 76.978 166.861C77.279 166.589 77.504 166.244 77.632 165.859C77.759 165.474 77.785 165.063 77.706 164.665C77.68 164.5 77.609 164.345 77.502 164.217C77.198 163.89 76.642 164.029 76.278 164.289C75.113 165.106 74.789 166.689 74.782 168.11C74.663 167.598 74.764 167.063 74.76 166.543C74.755 166.024 74.614 165.424 74.169 165.149C73.894 165.001 73.585 164.929 73.273 164.938C72.749 164.918 72.167 164.972 71.809 165.355C71.361 165.829 71.482 166.626 71.867 167.146C72.252 167.665 72.841 167.998 73.383 168.359C73.816 168.617 74.186 168.97 74.464 169.391C74.498 169.45 74.525 169.512 74.545 169.577H77.815C78.553 169.203 79.237 168.732 79.848 168.175Z" fill="#FA7268"/>
<path fill-rule="evenodd" clip-rule="evenodd" d="M59.311 161.967C59.311 162.533 59.248 162.992 59.17 162.992C59.091 162.992 59.029 162.533 59.029 161.967C59.029 161.401 59.107 161.667 59.186 161.667C59.264 161.667 59.311 161.401 59.311 161.967Z" fill="#FFD037"/>
<path fill-rule="evenodd" clip-rule="evenodd" d="M60.095 162.953C59.598 163.224 59.164 163.387 59.128 163.318C59.093 163.248 59.462 162.973 59.959 162.702C60.456 162.431 60.261 162.628 60.297 162.702C60.333 162.776 60.592 162.682 60.095 162.953Z" fill="#FFD037"/>
<path fill-rule="evenodd" clip-rule="evenodd" d="M76.182 97.554C76.214 97.584 76.255 97.604 76.299 97.61C76.343 97.615 76.388 97.607 76.426 97.585C76.344 97.586 76.262 97.576 76.182 97.554Z" fill="url(#paint0_linear_0:3080)"/>
<path fill-rule="evenodd" clip-rule="evenodd" d="M103.008 53.0049C102.536 52.8659 101.864 52.6399 101.052 52.3559C101.895 51.2539 102.511 49.9959 102.865 48.6549L102.796 48.6819C102.807 48.6404 102.819 48.5997 102.83 48.5589C102.842 48.5182 102.854 48.4774 102.865 48.4359C101.311 49.0759 99.59 47.9879 98.495 46.5979C98.0192 45.994 97.6095 45.3257 97.2001 44.6577L97.2 44.6577C96.6671 43.7883 96.1345 42.9195 95.457 42.1939C94.957 41.6859 94.419 41.2169 93.848 40.7909C93.494 40.5129 93.111 40.2239 92.679 40.2109C92.2677 40.1991 91.9082 40.4342 91.5444 40.672C91.2907 40.8378 91.0349 41.0051 90.758 41.0909C90.314 41.1919 89.851 41.1749 89.415 41.0409C88.7496 40.886 88.0933 40.6812 87.4376 40.4767L87.4375 40.4766C86.3796 40.1466 85.3232 39.8171 84.233 39.6979C83.283 39.5789 82.319 39.6889 81.421 40.0179C80.8437 40.2404 80.4712 40.6035 80.087 40.9779C79.8755 41.184 79.6605 41.3936 79.406 41.5849C78.7793 42.0584 77.6522 42.1415 76.759 42.2074C76.5449 42.2232 76.3441 42.238 76.167 42.2569C75.057 42.3849 73.939 42.4319 72.822 42.3979C72.18 42.3399 71.533 42.3639 70.897 42.4699C69.567 42.7649 68.5 43.8349 67.503 44.8649C67.23 45.0999 67.034 45.4119 66.942 45.7609C66.929 45.8589 66.929 45.9579 66.942 46.0559C66.931 46.3239 66.977 46.5909 67.076 46.8399C67.377 47.7649 67.806 48.6439 68.352 49.4499C68.4392 49.5766 68.5295 49.7016 68.6198 49.8267L68.6198 49.8267L68.6198 49.8267C68.951 50.2854 69.2832 50.7455 69.471 51.2939C69.581 51.6379 69.639 51.9969 69.644 52.3579C69.631 52.7409 69.591 53.1239 69.525 53.5019C69.349 54.5439 69.06 55.5639 68.663 56.5439C68.6365 56.6094 68.6097 56.6748 68.5828 56.7403C68.3959 57.1949 68.2079 57.6524 68.159 58.1489C68.153 58.2629 68.153 58.3759 68.159 58.4899C68.122 59.4583 68.6397 60.2778 69.1665 61.1118C69.5928 61.7866 70.025 62.4709 70.174 63.2509C70.201 63.3949 70.217 63.5409 70.223 63.6879C70.185 64.7759 69.574 65.8389 68.674 66.2599C68.7313 66.2824 68.7892 66.3028 68.8475 66.3234L68.914 66.3469C68.836 66.3959 68.756 66.4409 68.674 66.4819C68.838 66.5439 69.006 66.5979 69.176 66.6469C68.146 67.5489 67.282 68.6229 66.621 69.8219C63.608 75.5369 43.071 86.7479 43.071 86.7479C43.071 86.7479 43.187 86.8129 43.375 86.9249C43.3093 86.9655 43.2406 87.0114 43.1651 87.0618L43.1648 87.062L43.129 87.0859C41.352 88.2859 37.1789 91.7869 40.951 96.2019C40.951 96.2019 43.895 91.4899 45.957 89.4859C46.051 89.3969 46.14 89.3139 46.227 89.2349C46.274 89.3059 46.304 89.3849 46.318 89.4689C46.332 89.5519 46.329 89.6369 46.308 89.7189L59.814 82.0249C59.814 82.0249 64.613 78.6169 65.952 77.8469C65.9934 77.8232 66.0406 77.7957 66.0931 77.765L66.0932 77.765C66.626 77.4543 67.7143 76.8197 68.994 76.5239L68.838 76.5939C69.342 76.4529 69.863 76.3769 70.387 76.3699C72.778 76.4079 75.366 78.1829 76.221 85.2149C77.365 94.6309 76.834 96.3269 76.467 96.5599C76.421 96.5569 76.376 96.5489 76.333 96.5359C76.344 96.5459 76.356 96.5549 76.368 96.5619C76.318 96.5589 76.269 96.5499 76.221 96.5359C76.246 96.5599 76.278 96.5779 76.313 96.5859C76.347 96.5949 76.383 96.5939 76.418 96.5849C76.443 96.5919 76.469 96.5939 76.494 96.5909C76.52 96.5879 76.545 96.5799 76.568 96.5669H76.749C76.749 96.6253 76.7429 96.686 76.7368 96.7464L76.7367 96.7465L76.7367 96.7467C76.734 96.7742 76.7312 96.8017 76.729 96.8289C76.711 96.8289 76.621 96.8799 76.729 96.8869C76.702 97.4179 76.704 98.0059 76.729 98.5999C75.54 98.6669 74.354 98.7379 73.313 98.8029L73.407 98.3039L73.449 98.0799C74.36 98.0059 75.227 97.7359 75.327 96.9829C75.551 95.3359 73.313 94.4559 71.421 94.3459C69.529 94.2359 58.139 95.0069 58.139 95.0069C58.139 95.0069 56.431 97.2449 61.846 97.9409C62.008 98.0269 62.175 98.1209 62.346 98.2189C64.466 99.4459 67.344 101.702 68.721 102.815L68.914 102.97L68.296 103.469C71.1935 104.133 73.9943 113.882 75.8541 120.356L75.8542 120.356C76.1497 121.385 76.4214 122.33 76.666 123.144C78.45 129.079 82.359 128.86 85.596 127.982C88.629 127.156 89.017 118.226 89.053 117.104V116.99L94.445 123.731L94.855 124.244C95.014 124.326 95.168 124.405 95.321 124.479C99.406 126.451 103.919 122.672 102.634 118.374C101.338 114.031 99.323 107.613 97.98 104.899C96.861 102.627 95.404 98.8549 94.522 96.4859C94.636 96.4389 94.747 96.3859 94.855 96.3249C94.855 96.3249 94.835 96.2199 94.799 96.0249L94.855 95.9959C94.855 95.9959 93.557 89.1569 93.485 84.3009V84.0459V83.8869C94.461 83.6629 95.079 83.5739 95.079 83.5739L95.097 83.3629L94.983 83.3879L95.524 77.0879C95.524 77.0879 97.517 72.7919 95.992 71.0009C95.528 70.4759 95.218 69.8319 95.097 69.1409C94.842 67.4929 95.097 64.7509 98.65 62.4699C104.119 58.9529 106.241 56.0939 106.241 56.0939C106.241 56.0939 106.357 53.9939 103.008 53.0049ZM92.146 57.3749V54.4639C92.6229 54.4409 93.1049 54.455 93.5876 54.4691C94.1312 54.4851 94.6758 54.501 95.215 54.4639C95.716 54.4289 96.213 54.3449 96.697 54.2139L96.944 54.3859C95.453 55.5469 93.846 56.5489 92.146 57.3749ZM77.841 103.869C77.445 103.576 77.042 103.283 76.642 103.001C77.306 104.075 77.868 105.209 78.321 106.388C78.305 106.319 78.088 105.304 77.841 103.869Z" fill="url(#paint1_linear_0:3080)"/>
<path fill-rule="evenodd" clip-rule="evenodd" d="M85.409 101.162L85.167 102.474L84.981 103.477L84.643 105.313L81.366 107.607C81.366 107.607 81.07 107.354 80.582 106.956C79.239 105.85 76.416 103.598 74.343 102.389C73.81 102.049 73.233 101.783 72.628 101.599L85.409 101.162Z" fill="#FFBDC6"/>
<path opacity="0.1" fill-rule="evenodd" clip-rule="evenodd" d="M85.409 101.162L85.167 102.474C84.444 102.513 83.719 102.476 83.004 102.362L75.357 102.472C74.997 102.449 74.659 102.422 74.343 102.389C73.81 102.049 73.233 101.783 72.628 101.599L85.409 101.162Z" fill="black"/>
<path fill-rule="evenodd" clip-rule="evenodd" d="M83.003 102.139C83.003 102.139 86.825 102.795 87.049 101.163C87.272 99.5309 85.081 98.6489 83.225 98.5389C81.369 98.4289 70.225 99.1949 70.225 99.1949C70.225 99.1949 68.26 101.816 75.358 102.255L83.003 102.139Z" fill="#474463"/>
<path opacity="0.1" fill-rule="evenodd" clip-rule="evenodd" d="M85.409 101.162L85.167 102.474L84.981 103.477L84.643 105.313L81.366 107.607C81.366 107.607 81.07 107.354 80.582 106.956C79.239 105.85 76.416 103.598 74.343 102.389C73.81 102.049 73.233 101.783 72.628 101.599L85.409 101.162Z" fill="black"/>
<path opacity="0.1" fill-rule="evenodd" clip-rule="evenodd" d="M85.409 101.162L85.167 102.474C84.444 102.513 83.719 102.476 83.004 102.362L75.357 102.472C74.997 102.449 74.659 102.422 74.343 102.389C73.81 102.049 73.233 101.783 72.628 101.599L85.409 101.162Z" fill="black"/>
<path opacity="0.1" fill-rule="evenodd" clip-rule="evenodd" d="M83.004 102.135C83.004 102.135 86.828 102.789 87.047 101.15C87.267 99.511 85.079 98.638 83.224 98.528C81.368 98.419 70.224 99.184 70.224 99.184C70.224 99.184 68.258 101.806 75.357 102.242L83.004 102.135Z" fill="black"/>
<path fill-rule="evenodd" clip-rule="evenodd" d="M91.359 48.2849H71.368V71.9899H91.359V48.2849Z" fill="#474463"/>
<path opacity="0.1" fill-rule="evenodd" clip-rule="evenodd" d="M91.359 48.3931H71.368V72.0981H91.359V48.3931Z" fill="black"/>
<path fill-rule="evenodd" clip-rule="evenodd" d="M47.941 88.866C47.612 88.948 47.191 89.266 46.723 89.727C44.708 91.722 41.823 96.403 41.823 96.403C38.1334 92.009 42.217 88.536 43.956 87.343C44.379 87.054 44.664 86.896 44.664 86.896L47.941 88.866Z" fill="#FFBDC6"/>
<path fill-rule="evenodd" clip-rule="evenodd" d="M85.189 55.7671C85.189 55.7671 86.172 62.6481 89.559 64.2871C92.946 65.9261 85.189 68.9881 85.189 68.9881L74.594 65.0531C74.594 65.0531 80.602 63.0851 79.4 57.2961L85.189 55.7671Z" fill="#FFBDC6"/>
<path fill-rule="evenodd" clip-rule="evenodd" d="M73.827 97.1689L73.587 98.4759L73.393 99.4839L73.055 101.319L69.777 103.612C69.777 103.612 69.482 103.361 68.994 102.963C67.651 101.857 64.828 99.6049 62.752 98.3959C62.219 98.0549 61.643 97.7899 61.038 97.6049L73.827 97.1689Z" fill="#FFBDC6"/>
<path opacity="0.1" fill-rule="evenodd" clip-rule="evenodd" d="M73.826 97.1689L73.587 98.4759C72.864 98.5159 72.139 98.4779 71.424 98.3639L63.777 98.4739C63.417 98.4519 63.076 98.4249 62.761 98.3909C62.228 98.0509 61.651 97.7849 61.046 97.6009L73.826 97.1689Z" fill="black"/>
<path fill-rule="evenodd" clip-rule="evenodd" d="M71.425 98.152C71.425 98.152 75.249 98.806 75.466 97.17C75.683 95.533 73.5 94.656 71.642 94.546C69.784 94.436 58.645 95.202 58.645 95.202C58.645 95.202 56.677 97.823 63.778 98.262L71.425 98.152Z" fill="#474463"/>
<path opacity="0.1" fill-rule="evenodd" clip-rule="evenodd" d="M73.393 99.483L73.055 101.319L69.778 103.611C69.778 103.611 69.482 103.361 68.994 102.962L73.328 99.407L73.393 99.483Z" fill="black"/>
<path fill-rule="evenodd" clip-rule="evenodd" d="M95.039 124.491C94.889 124.417 94.739 124.341 94.592 124.267L94.189 123.759L88.903 117.057C88.903 117.057 88.903 117.097 88.903 117.173C88.867 118.292 88.487 127.162 85.518 127.981C82.351 128.854 78.529 129.074 76.788 123.175C75.046 117.276 71.863 104.386 68.594 103.62L73.457 99.633C73.457 99.633 76.676 103.399 77.988 107.003C77.938 106.779 75.715 96.392 77.54 94.554H93.49C93.49 94.554 95.953 101.567 97.641 105.042C98.955 107.739 100.927 114.117 102.196 118.434C103.454 122.696 99.037 126.459 95.039 124.491Z" fill="#B643D5"/>
<path opacity="0.1" fill-rule="evenodd" clip-rule="evenodd" d="M94.583 96.513C92.121 97.971 81.311 97.377 77.794 97.14L76.835 97.071C76.733 97.071 76.851 97.012 76.851 97.012L76.95 96.021L79.571 89.359L93.607 81.219C93.323 82.076 93.229 83.388 93.251 84.89C93.316 89.717 94.583 96.513 94.583 96.513Z" fill="black"/>
<path fill-rule="evenodd" clip-rule="evenodd" d="M94.584 96.184C92.121 97.642 81.311 97.048 77.794 96.811L76.836 96.744L76.677 96.731L76.851 96.686L77.715 96.462L79.571 89.034L93.608 80.896C93.323 81.754 93.229 83.066 93.252 84.568C93.317 89.39 94.584 96.184 94.584 96.184Z" fill="#F6F6F6"/>
<path opacity="0.1" fill-rule="evenodd" clip-rule="evenodd" d="M93.244 84.563C90.39 85.222 84.108 87.154 81.695 91.817C80.085 94.922 78.731 96.254 77.786 96.811L76.828 96.744C76.834 96.725 76.84 96.705 76.844 96.686L77.708 96.462L79.564 89.034L93.6 80.896C93.318 81.749 93.222 83.061 93.244 84.563Z" fill="black"/>
<path opacity="0.1" fill-rule="evenodd" clip-rule="evenodd" d="M44.663 86.8999L47.94 88.8659C47.611 88.9489 47.19 89.2669 46.723 89.7279C46.449 88.9309 44.735 87.8179 43.956 87.3439C44.379 87.0589 44.663 86.8999 44.663 86.8999Z" fill="black"/>
<path opacity="0.1" fill-rule="evenodd" clip-rule="evenodd" d="M76.243 96.8709C76.207 96.8899 76.167 96.8969 76.126 96.8909C76.086 96.8859 76.049 96.8679 76.02 96.8399C76.092 96.8609 76.168 96.8719 76.243 96.8709Z" fill="black"/>
<path fill-rule="evenodd" clip-rule="evenodd" d="M83.658 63.851C83.658 63.851 80.708 64.178 78.633 61.993C78.633 61.993 69.902 64.507 66.945 70.186C63.987 75.866 43.887 87.01 43.887 87.01C43.887 87.01 47.383 88.975 47.054 89.958L60.274 82.311C60.274 82.311 64.975 78.926 66.28 78.16C67.585 77.395 74.802 72.698 76.331 85.478C77.86 98.259 76.331 96.73 76.331 96.73C76.331 96.73 78.516 97.496 81.684 91.377C84.852 85.259 94.681 83.84 94.681 83.84L95.228 77.397C95.228 77.397 97.177 73.125 95.675 71.352C95.22 70.828 94.918 70.188 94.8 69.503C94.552 67.867 94.8 65.14 98.279 62.875C103.631 59.378 105.707 56.539 105.707 56.539C105.707 56.539 105.816 54.462 102.539 53.479C99.262 52.496 85.935 47.144 85.935 47.144L85.487 49.002L96.002 56.423C96.002 56.423 90.759 60.676 86.6 60.573C86.6 60.573 87.372 63.741 83.658 63.851Z" fill="#B643D5"/>
<path opacity="0.1" fill-rule="evenodd" clip-rule="evenodd" d="M85.683 58.762C85.425 57.887 85.223 56.995 85.079 56.094L79.29 57.623C79.545 58.728 79.499 59.881 79.158 60.963C80.341 61.279 81.592 61.238 82.753 60.847C83.913 60.456 84.933 59.73 85.683 58.762Z" fill="black"/>
<path fill-rule="evenodd" clip-rule="evenodd" d="M80.874 60.847C84.312 60.847 87.099 58.06 87.099 54.621C87.099 51.183 84.312 48.396 80.874 48.396C77.435 48.396 74.648 51.183 74.648 54.621C74.648 58.06 77.435 60.847 80.874 60.847Z" fill="#FFBDC6"/>
<path opacity="0.1" fill-rule="evenodd" clip-rule="evenodd" d="M84.186 40.4609C85.914 40.6559 87.555 41.3989 89.256 41.8039C89.681 41.9369 90.134 41.9549 90.568 41.8559C91.229 41.6499 91.766 40.9599 92.451 40.9809C92.872 40.9809 93.246 41.2809 93.593 41.5559C94.15 41.9809 94.673 42.4479 95.16 42.9529C96.333 44.2269 97.06 45.9409 98.13 47.3269C99.2 48.7129 100.888 49.7899 102.408 49.1539C101.374 53.1839 97.987 56.2529 94.322 56.5029C92.861 56.6019 91.363 56.2979 89.948 56.7269C89.595 56.8709 89.224 56.9609 88.844 56.9959C88.03 56.9959 87.374 56.2479 86.865 55.5209C85.675 53.8099 84.732 51.8669 83.391 50.3069C82.943 49.7919 82.426 49.3019 81.799 49.2079C81.173 49.1139 80.597 49.4109 80.04 49.6999C79.12 50.1769 78.18 50.6719 77.465 51.4909C76.751 52.3099 76.301 53.5279 76.597 54.6249C76.756 55.2209 77.118 55.7579 77.125 56.3799C77.139 57.3719 76.261 58.0999 76.089 59.0669C76.05 59.4729 76.036 59.8809 76.046 60.2889C75.97 61.6139 75.104 62.6999 74.199 63.5329C73.846 63.8569 73.456 64.2039 73.353 64.7059C73.284 65.0459 73.353 65.4089 73.308 65.7539C73.176 66.6129 72.319 67.0499 71.56 67.1639C70.673 67.2929 69.768 67.1859 68.936 66.8529C69.997 66.3489 70.651 64.9229 70.405 63.6429C70.067 61.8699 68.285 60.5979 68.437 58.7909C68.521 58.2379 68.687 57.6999 68.93 57.1949C69.318 56.2209 69.6 55.2079 69.771 54.1729C69.906 53.3719 69.97 52.5229 69.72 51.7619C69.496 51.0659 69.028 50.5149 68.632 49.9289C68.094 49.1299 67.67 48.2599 67.371 47.3449C67.262 47.0749 67.221 46.7819 67.251 46.4919C67.338 46.1449 67.529 45.8319 67.799 45.5969C68.773 44.5739 69.814 43.5079 71.119 43.2169C71.741 43.1119 72.375 43.0869 73.004 43.1429C74.097 43.1789 75.192 43.1319 76.279 43.0039C77.174 42.8989 78.688 42.9149 79.447 42.3329C80.154 41.7889 80.553 41.1099 81.423 40.7659C82.306 40.4409 83.254 40.3369 84.186 40.4609Z" fill="black"/>
<path opacity="0.1" fill-rule="evenodd" clip-rule="evenodd" d="M87.646 104.761C87.646 104.761 91.25 111.862 90.158 114.044L87.646 104.761Z" fill="black"/>
<path opacity="0.1" fill-rule="evenodd" clip-rule="evenodd" d="M94.181 123.75L88.902 117.056C88.902 117.056 88.902 117.097 88.902 117.173C88.902 117.173 88.598 115.006 89.603 115.733C91.806 117.327 95.329 119.94 95.405 120.39C95.482 120.84 94.691 122.637 94.181 123.75Z" fill="black"/>
<g opacity="0.1">
<path opacity="0.1" fill-rule="evenodd" clip-rule="evenodd" d="M86.719 60.5741C86.719 60.5741 87.166 62.4181 85.725 63.3411C87.941 62.9621 88.039 61.2361 87.963 60.4861C87.552 60.5521 87.135 60.5811 86.719 60.5741Z" fill="black"/>
<path opacity="0.1" fill-rule="evenodd" clip-rule="evenodd" d="M45.209 86.5711C45.209 86.5711 65.307 75.4291 68.267 69.7501C70.382 65.6731 75.482 63.2291 78.191 62.1721C76.216 62.8431 69.563 65.3751 67.065 70.1861C64.116 75.8661 44.007 87.0101 44.007 87.0101L45.209 86.5711Z" fill="black"/>
<path opacity="0.1" fill-rule="evenodd" clip-rule="evenodd" d="M90.631 59.705C94.052 58.641 97.32 55.986 97.32 55.986L86.825 48.554L87.065 47.538L86.06 47.135L85.623 48.993L96.111 56.421C94.43 57.742 92.589 58.846 90.631 59.705Z" fill="black"/>
<path opacity="0.1" fill-rule="evenodd" clip-rule="evenodd" d="M90.691 84.8791C92.031 84.4221 93.406 84.0751 94.802 83.8401L94.819 83.6301C93.413 83.9391 92.033 84.3571 90.691 84.8791Z" fill="black"/>
<path opacity="0.1" fill-rule="evenodd" clip-rule="evenodd" d="M77.98 96.3231H77.884C77.848 96.3411 77.807 96.3481 77.767 96.3431C77.727 96.3371 77.69 96.3191 77.66 96.2921C77.733 96.3131 77.808 96.3231 77.884 96.3231C78.242 96.1151 78.779 94.4831 77.66 85.0401C76.456 74.9661 71.716 75.7521 69.124 76.9121C71.775 76.1821 75.421 76.8131 76.458 85.4771C77.588 94.9191 77.049 96.5511 76.682 96.7601C77.147 96.7421 77.598 96.5911 77.98 96.3231Z" fill="black"/>
<path opacity="0.1" fill-rule="evenodd" clip-rule="evenodd" d="M76.682 96.7611C76.606 96.7611 76.531 96.7511 76.458 96.7291C76.488 96.7571 76.525 96.7751 76.565 96.7801C76.605 96.7861 76.646 96.7791 76.682 96.7611Z" fill="black"/>
</g>
<path fill-rule="evenodd" clip-rule="evenodd" d="M84.186 40.242C85.914 40.439 87.555 41.18 89.256 41.586C89.681 41.718 90.134 41.735 90.568 41.635C91.228 41.431 91.766 40.739 92.451 40.76C92.871 40.773 93.245 41.06 93.592 41.335C94.149 41.761 94.673 42.228 95.159 42.732C96.332 44.006 97.06 45.72 98.13 47.106C99.2 48.492 100.888 49.569 102.408 48.933C101.374 52.963 97.987 56.032 94.322 56.282C92.86 56.383 91.363 56.079 89.948 56.506C89.595 56.651 89.223 56.741 88.844 56.775C88.029 56.775 87.373 56.027 86.865 55.3C85.674 53.589 84.732 51.648 83.391 50.088C82.943 49.571 82.426 49.081 81.799 48.987C81.172 48.893 80.597 49.193 80.04 49.481C79.119 49.958 78.179 50.451 77.465 51.272C76.751 52.094 76.301 53.307 76.597 54.407C76.755 55.002 77.118 55.539 77.125 56.162C77.138 57.156 76.261 57.881 76.088 58.848C76.049 59.254 76.035 59.662 76.046 60.07C75.97 61.396 75.103 62.479 74.199 63.314C73.845 63.637 73.456 63.986 73.353 64.485C73.283 64.827 73.353 65.188 73.308 65.535C73.176 66.395 72.319 66.831 71.56 66.943C70.673 67.074 69.767 66.967 68.936 66.632C69.997 66.13 70.651 64.702 70.404 63.424C70.066 61.651 68.284 60.377 68.437 58.573C68.52 58.019 68.686 57.481 68.929 56.976C69.318 56.001 69.6 54.987 69.771 53.952C69.905 53.153 69.97 52.304 69.719 51.541C69.496 50.847 69.028 50.294 68.631 49.708C68.094 48.909 67.67 48.041 67.371 47.126C67.263 46.855 67.221 46.562 67.25 46.271C67.34 45.928 67.531 45.62 67.799 45.387C68.773 44.364 69.813 43.301 71.119 43.007C71.741 42.904 72.375 42.88 73.004 42.936C74.097 42.97 75.192 42.924 76.279 42.797C77.174 42.692 78.687 42.705 79.446 42.125C80.154 41.583 80.552 40.903 81.423 40.558C82.305 40.231 83.253 40.123 84.186 40.242Z" fill="#474463"/>
<path fill-rule="evenodd" clip-rule="evenodd" d="M125.199 113.925C132.132 113.925 137.752 108.305 137.752 101.372C137.752 94.4401 132.132 88.8201 125.199 88.8201C118.267 88.8201 112.647 94.4401 112.647 101.372C112.647 108.305 118.267 113.925 125.199 113.925Z" fill="white"/>
<path fill-rule="evenodd" clip-rule="evenodd" d="M138.865 109.039C140.708 106.281 141.692 103.037 141.692 99.7189C141.692 95.2699 139.924 91.0019 136.778 87.8559C133.632 84.7099 129.365 82.9419 124.916 82.9419C121.597 82.9419 118.354 83.9259 115.595 85.7699C112.836 87.6129 110.686 90.2329 109.416 93.2989C108.146 96.3639 107.814 99.7379 108.462 102.992C109.109 106.246 110.707 109.235 113.053 111.582C115.399 113.928 118.388 115.526 121.643 116.173C124.897 116.82 128.27 116.488 131.336 115.218C134.401 113.949 137.021 111.798 138.865 109.039ZM135.421 96.1549L122.977 108.6V108.609C122.876 108.709 122.757 108.789 122.626 108.844C122.494 108.898 122.353 108.926 122.211 108.926C122.069 108.926 121.928 108.898 121.797 108.844C121.665 108.789 121.546 108.709 121.446 108.609L114.41 101.575C114.207 101.371 114.094 101.096 114.094 100.809C114.094 100.522 114.207 100.247 114.41 100.044L115.941 98.5029C116.144 98.3009 116.42 98.1869 116.706 98.1869C116.993 98.1869 117.269 98.3009 117.472 98.5029L122.211 103.254L132.361 93.1039C132.461 93.0029 132.581 92.9229 132.712 92.8689C132.843 92.8139 132.984 92.7859 133.126 92.7859C133.268 92.7859 133.408 92.8139 133.54 92.8689C133.671 92.9229 133.79 93.0029 133.89 93.1039L135.421 94.6239C135.522 94.7239 135.602 94.8439 135.657 94.9749C135.711 95.1059 135.739 95.2469 135.739 95.3889C135.739 95.5319 135.711 95.6719 135.657 95.8039C135.602 95.9349 135.522 96.0549 135.421 96.1549Z" fill="#FA7268"/>
<path opacity="0.1" fill-rule="evenodd" clip-rule="evenodd" d="M188.029 171.038C191.358 171.038 194.057 170.582 194.057 170.019C194.057 169.456 191.358 169 188.029 169C184.699 169 182 169.456 182 170.019C182 170.582 184.699 171.038 188.029 171.038Z" fill="#6C63FF"/>
<defs>
<linearGradient id="paint0_linear_0:3080" x1="76.334" y1="97.612" x2="76.334" y2="97.554" gradientUnits="userSpaceOnUse">
<stop stop-color="#808080" stop-opacity="0.25"/>
<stop offset="0.54" stop-color="#808080" stop-opacity="0.12"/>
<stop offset="1" stop-color="#808080" stop-opacity="0.1"/>
</linearGradient>
<linearGradient id="paint1_linear_0:3080" x1="37511.7" y1="54454.7" x2="37511.7" y2="19239.7" gradientUnits="userSpaceOnUse">
<stop stop-color="#808080" stop-opacity="0.25"/>
<stop offset="0.54" stop-color="#808080" stop-opacity="0.12"/>
<stop offset="1" stop-color="#808080" stop-opacity="0.1"/>
</linearGradient>
</defs>
</svg>
