<svg width="20" height="20" viewBox="0 0 20 20" fill="none" xmlns="http://www.w3.org/2000/svg">
<path fill-rule="evenodd" clip-rule="evenodd" d="M19.5434 3.28132C19.2393 2.99858 18.8784 2.85719 18.4618 2.85719H16.9235V1.78573C16.9235 1.29475 16.735 0.874334 16.3584 0.524632C15.9817 0.174929 15.5292 0 15.0001 0H14.2311C13.7021 0 13.2495 0.174929 12.8729 0.524671C12.4961 0.874334 12.3078 1.29479 12.3078 1.78577V2.85723H7.69261V1.78577C7.69261 1.29479 7.50422 0.874373 7.12757 0.524671C6.751 0.174929 6.29828 0 5.76932 0H5.00015C4.47131 0 4.01855 0.174929 3.6419 0.524671C3.26533 0.874334 3.0769 1.29479 3.0769 1.78577V2.85723H1.53856C1.12179 2.85723 0.761258 2.99862 0.456763 3.28136C0.152268 3.56406 0 3.89899 0 4.28587V18.5716C0 18.9582 0.152268 19.293 0.456763 19.5759C0.761216 19.8586 1.12174 20 1.53856 20H18.4615C18.8781 20 19.239 19.8586 19.5432 19.5759C19.8477 19.2931 20 18.9581 20 18.5716V4.28583C20 3.89883 19.8478 3.56406 19.5434 3.28132ZM5.00002 18.5714H1.53856V15.357H5.00002V18.5714ZM5.00002 14.6429H1.53856V11.0716H5.00002V14.6429ZM5.00002 10.357H1.53856V7.14291H5.00002V10.357ZM4.72975 5.25113C4.6536 5.18041 4.61558 5.09688 4.61558 5.00005V1.78588C4.61558 1.68918 4.6536 1.6054 4.72975 1.53481C4.80591 1.46409 4.89587 1.42879 5.00015 1.42879H5.76932C5.87347 1.42879 5.96369 1.46409 6.03972 1.53481C6.11587 1.60544 6.15397 1.68918 6.15397 1.78588V5.00005C6.15397 5.09692 6.1157 5.18045 6.03972 5.25113C5.96364 5.32184 5.8736 5.35714 5.76932 5.35714H5.00015C4.896 5.35718 4.80591 5.32184 4.72975 5.25113ZM9.61548 18.5714H5.76919V15.357H9.61548V18.5714ZM9.61548 14.6429H5.76919V11.0716H9.61548V14.6429ZM9.61548 10.357H5.76919V7.14291H9.61548V10.357ZM14.2311 18.5714H10.3849V15.357H14.2311V18.5714ZM14.2311 14.6429H10.3849V11.0716H14.2311V14.6429ZM14.2311 10.357H10.3849V7.14291H14.2311V10.357ZM13.9605 5.25113C13.8845 5.18041 13.8466 5.09688 13.8466 5.00005V1.78588C13.8466 1.68918 13.8845 1.6054 13.9605 1.53481C14.0366 1.46409 14.1268 1.42879 14.2311 1.42879H15.0001C15.1045 1.42879 15.1945 1.46409 15.2707 1.53481C15.3468 1.60544 15.3847 1.68918 15.3847 1.78588V5.00005C15.3847 5.09692 15.3467 5.18045 15.2707 5.25113C15.1946 5.32184 15.1045 5.35714 15.0001 5.35714H14.2311C14.1268 5.35718 14.0364 5.32184 13.9605 5.25113ZM18.4615 18.5714H14.9999V15.357H18.4615V18.5714ZM18.4615 14.6429H14.9999V11.0716H18.4615V14.6429ZM18.4615 10.357H14.9999V7.14291H18.4615V10.357Z" fill="#727376"/>
</svg>
