<svg width="20" height="20" viewBox="0 0 20 20" fill="none" xmlns="http://www.w3.org/2000/svg">
<path fill-rule="evenodd" clip-rule="evenodd" d="M19.9421 1.17895C19.8421 0.967882 19.6285 0.833252 19.3938 0.833252H0.606192C0.371569 0.833252 0.15804 0.967882 0.0579029 1.17895C-0.0421535 1.39002 -0.0107949 1.6395 0.138481 1.81954L7.36073 10.531V18.5638C7.36073 18.7723 7.46911 18.966 7.64724 19.076C7.74487 19.1362 7.85567 19.1666 7.96688 19.1666C8.05878 19.1666 8.15099 19.1458 8.23602 19.1039L12.2939 17.1037C12.5001 17.0021 12.6305 16.7932 12.6308 16.5644L12.6387 10.5312L19.8614 1.81946C20.0107 1.6395 20.0422 1.38994 19.9421 1.17895ZM11.5653 9.931C11.476 10.0387 11.427 10.174 11.4268 10.3137L11.4191 16.1894L8.57312 17.5922V10.3145C8.57312 10.1745 8.52422 10.0389 8.43467 9.931L1.89157 2.03881H18.1084L11.5653 9.931Z" fill="#868686"/>
</svg>
