<svg width="77" height="71" viewBox="0 0 77 71" fill="none" xmlns="http://www.w3.org/2000/svg">
<path fill-rule="evenodd" clip-rule="evenodd" d="M0 29.594L4.263 31.153C5.099 28.867 5.832 26.504 6.443 24.135L2.043 23C1.471 25.224 0.786 27.44 0 29.594Z" fill="#B643D5"/>
<path fill-rule="evenodd" clip-rule="evenodd" d="M55.6256 14.6313L52.9736 18.3153C59.4916 23.0153 63.3616 30.5553 63.3796 38.5913C63.3806 43.0183 62.9646 47.4363 62.1376 51.7863L66.5966 52.6383C67.4776 48.0073 67.9206 43.3043 67.9196 38.5913C67.9006 29.0953 63.3286 20.1843 55.6256 14.6313Z" fill="#B643D5"/>
<path fill-rule="evenodd" clip-rule="evenodd" d="M17.5993 24.8011C24.3903 14.5511 37.6323 10.7711 48.8113 15.8911L50.7093 11.7681C46.8543 9.98814 42.6563 9.07114 38.4103 9.08114C28.5173 9.07814 19.2813 14.0371 13.8193 22.2851L17.5993 24.8011Z" fill="#B643D5"/>
<path fill-rule="evenodd" clip-rule="evenodd" d="M15.5187 28.6031L11.3607 26.7871C9.72973 30.5081 8.89173 34.5281 8.89973 38.5911C8.90073 41.4341 8.13273 44.2251 6.67773 46.6681L10.5767 48.9941C12.4507 45.8481 13.4397 42.2531 13.4397 38.5911C13.4317 35.1531 14.1397 31.7511 15.5187 28.6031Z" fill="#B643D5"/>
<path fill-rule="evenodd" clip-rule="evenodd" d="M46.582 68.3283L50.545 70.5393C54.847 62.8603 57.543 54.3873 58.47 45.6353L53.957 45.1533C53.092 53.2983 50.583 61.1823 46.582 68.3283Z" fill="#B643D5"/>
<path fill-rule="evenodd" clip-rule="evenodd" d="M38.4101 18.1612C35.7821 18.1572 33.1791 18.6642 30.7441 19.6522L32.4561 23.8612C34.3461 23.0912 36.3691 22.6972 38.4101 22.7012C47.1821 22.7112 54.2901 29.8192 54.3001 38.5912C54.3001 39.3252 54.2871 40.0552 54.2611 40.7812L58.8011 40.9402C58.8291 40.1592 58.8421 39.3792 58.8421 38.5912C58.8301 27.3122 49.6891 18.1722 38.4101 18.1612Z" fill="#B643D5"/>
<path fill-rule="evenodd" clip-rule="evenodd" d="M27.9127 26.6731L24.9117 23.2681C20.5087 27.1441 17.9837 32.7251 17.9797 38.5911C17.9927 44.6971 15.7497 50.5931 11.6807 55.1461L15.0627 58.1741C19.8767 52.7891 22.5327 45.8151 22.5197 38.5911C22.5227 34.0281 24.4877 29.6871 27.9127 26.6731Z" fill="#B643D5"/>
<path fill-rule="evenodd" clip-rule="evenodd" d="M38.4099 27.2412C32.1409 27.2412 27.0599 32.3222 27.0599 38.5912C27.0589 40.0142 26.9709 41.4352 26.7939 42.8472L31.2979 43.4152C31.4989 41.8152 31.5999 40.2042 31.5999 38.5912C31.5999 34.8302 34.6489 31.7812 38.4099 31.7812C42.1709 31.7812 45.2199 34.8302 45.2199 38.5912C45.2289 44.5192 44.2209 50.4052 42.2419 55.9932L46.5209 57.5092C48.6729 51.4342 49.7689 45.0362 49.7599 38.5912C49.7519 32.3252 44.6749 27.2482 38.4099 27.2412Z" fill="#B643D5"/>
<path fill-rule="evenodd" clip-rule="evenodd" d="M25.9786 47.1011C24.5666 52.5191 21.8466 57.5071 18.0566 61.6291L21.3986 64.6961C25.6896 60.0291 28.7706 54.3811 30.3736 48.2471L25.9786 47.1011Z" fill="#B643D5"/>
<path fill-rule="evenodd" clip-rule="evenodd" d="M36.1399 38.5913C36.1309 48.7473 32.5419 58.5753 26.0039 66.3463L29.4769 69.2683C36.7039 60.6783 40.6709 49.8163 40.6799 38.5913H36.1399Z" fill="#B643D5"/>
<path fill-rule="evenodd" clip-rule="evenodd" d="M71.8196 19.2959L67.8896 21.5659C70.8856 26.7399 72.4616 32.6119 72.4596 38.5909C72.4636 41.4539 72.0816 44.3049 71.3246 47.0669L75.7016 48.2749C76.5676 45.1199 77.0036 41.8619 76.9996 38.5909C76.9996 31.8149 75.2126 25.1599 71.8196 19.2959Z" fill="#B643D5"/>
<path fill-rule="evenodd" clip-rule="evenodd" d="M38.4103 4.54112C48.7463 4.52912 58.5243 9.23112 64.9693 17.3121L68.5083 14.4701C56.7733 -0.199877 36.1723 -4.27388 19.7373 4.82712L21.9413 8.79512C26.9823 6.00512 32.6493 4.54112 38.4103 4.54112Z" fill="#B643D5"/>
<path fill-rule="evenodd" clip-rule="evenodd" d="M17.131 12.0323L14.289 8.48633C10.55 11.4833 7.401 15.1493 5 19.2963L8.929 21.5663C11.049 17.9073 13.83 14.6753 17.131 12.0323Z" fill="#B643D5"/>
</svg>
