<svg width="25" height="21" viewBox="0 0 25 21" fill="none" xmlns="http://www.w3.org/2000/svg">
<path d="M14.881 5.83331H13.0952V11.6666L18.1905 14.6299L19.0476 13.2183L14.881 10.7916V5.83331ZM14.2857 0C11.4441 0 8.71889 1.10624 6.70957 3.07537C4.70025 5.04449 3.57143 7.7152 3.57143 10.5H0L4.71429 15.2016L9.52381 10.5H5.95238C5.95238 8.33403 6.83036 6.25682 8.39316 4.72528C9.95596 3.19373 12.0756 2.33332 14.2857 2.33332C16.4959 2.33332 18.6155 3.19373 20.1783 4.72528C21.7411 6.25682 22.619 8.33403 22.619 10.5C22.619 12.6659 21.7411 14.7431 20.1783 16.2746C18.6155 17.8062 16.4959 18.6666 14.2857 18.6666C11.9881 18.6666 9.90476 17.7449 8.40476 16.2633L6.71429 17.9199C7.70413 18.9006 8.88354 19.6781 10.1836 20.207C11.4836 20.7358 12.8781 21.0054 14.2857 20.9999C17.1273 20.9999 19.8525 19.8937 21.8619 17.9246C23.8712 15.9554 25 13.2847 25 10.5C25 7.7152 23.8712 5.04449 21.8619 3.07537C19.8525 1.10624 17.1273 0 14.2857 0" fill="white"/>
</svg>
