<svg width="281" height="234" viewBox="0 0 281 234" fill="none" xmlns="http://www.w3.org/2000/svg">
<path opacity="0.1" fill-rule="evenodd" clip-rule="evenodd" d="M163.681 31.9129C145.731 31.2889 128.635 25.4919 112.31 19.1479C95.985 12.8039 79.815 5.77494 62.294 2.41494C51.0255 0.252944 38.1369 -0.0520563 29.0591 5.99194C20.3197 11.8189 17.4962 21.8509 15.9791 31.1689C14.8364 38.1789 14.1652 45.5579 17.2937 52.1179C19.4682 56.6739 23.3234 60.5039 25.9916 64.8689C35.2746 80.0539 28.7124 98.7789 18.6555 113.606C13.9405 120.563 8.46281 127.204 4.82111 134.602C1.17951 142 -0.504088 150.489 2.68271 158.042C5.83901 165.535 13.3636 171.151 21.5151 175.106C38.0703 183.139 57.571 185.437 76.6 186.739C118.711 189.622 161.044 188.373 203.265 187.124C218.891 186.661 234.584 186.192 249.955 183.775C258.492 182.432 267.303 180.303 273.502 175.159C281.368 168.629 283.318 157.573 278.045 149.384C269.203 135.651 244.763 132.24 238.575 117.502C235.175 109.388 238.667 100.353 243.612 92.8269C254.218 76.6879 271.993 62.5269 272.928 44.0789C273.572 31.4079 265.026 18.7179 251.813 12.7209C237.965 6.43894 218.758 7.22694 208.546 17.6299C198.02 28.3419 179.532 32.4629 163.681 31.9129Z" fill="#F8AFA6"/>
<path opacity="0.1" fill-rule="evenodd" clip-rule="evenodd" d="M135.098 229.135C181.659 229.135 219.405 224.026 219.405 217.724C219.405 211.422 181.659 206.313 135.098 206.313C88.536 206.313 50.7905 211.422 50.7905 217.724C50.7905 224.026 88.536 229.135 135.098 229.135Z" fill="#F8AFA6"/>
<path fill-rule="evenodd" clip-rule="evenodd" d="M76.728 183.753C76.728 183.753 82.552 182.82 86.047 186.938C86.047 186.938 83.484 188.959 77.971 186.161L76.728 183.753Z" fill="#FA7268"/>
<path fill-rule="evenodd" clip-rule="evenodd" d="M76.107 183.661C76.107 183.661 72.39 188.262 74.212 193.332C74.212 193.332 77.241 192.119 77.571 185.942L76.107 183.661Z" fill="#FA7268"/>
<path fill-rule="evenodd" clip-rule="evenodd" d="M72.778 176.139C72.778 176.139 75.108 171.865 84.427 177.848C84.427 177.848 83.185 180.723 79.069 180.49C74.953 180.257 73.852 178.392 72.778 176.139Z" fill="#FA7268"/>
<path fill-rule="evenodd" clip-rule="evenodd" d="M72.166 175.831C72.166 175.831 67.332 175.276 66.863 186.348C66.863 186.348 69.928 186.986 72.105 183.481C74.282 179.977 73.381 178.017 72.166 175.831Z" fill="#FA7268"/>
<path fill-rule="evenodd" clip-rule="evenodd" d="M69.348 167.001C69.348 167.001 72.066 159.461 81.931 164.822C81.931 164.822 79.679 171.74 70.357 169.565L69.348 167.001Z" fill="#FA7268"/>
<path fill-rule="evenodd" clip-rule="evenodd" d="M66.319 155.732C66.319 155.732 71.444 148.117 80.533 155.177C80.533 155.177 77.349 162.325 67.095 158.44L66.319 155.732Z" fill="#FA7268"/>
<path fill-rule="evenodd" clip-rule="evenodd" d="M65.231 145.008C65.231 145.008 71.211 138.015 80.209 145.008C80.209 145.008 74.537 151.147 65.231 146.795V145.008Z" fill="#FA7268"/>
<path fill-rule="evenodd" clip-rule="evenodd" d="M64.3 134.597C64.3 134.597 70.357 127.29 78.98 134.209C78.98 134.209 72.143 140.658 64.3 136.306V134.597Z" fill="#FA7268"/>
<path fill-rule="evenodd" clip-rule="evenodd" d="M64.843 125.348C64.843 125.348 71.222 115.946 79.291 122.317C79.291 122.317 72.454 130.401 64.843 127.135V125.348Z" fill="#FA7268"/>
<path fill-rule="evenodd" clip-rule="evenodd" d="M66.319 114.547C66.319 114.547 73.075 105.223 80.922 112.372C80.922 112.372 72.92 120.452 66.319 116.257V114.547Z" fill="#FA7268"/>
<path fill-rule="evenodd" clip-rule="evenodd" d="M68.574 104.893C68.574 104.893 76.57 96.132 83.551 99.62C83.551 99.62 75.213 108.925 68.224 107.216L68.574 104.893Z" fill="#FA7268"/>
<path fill-rule="evenodd" clip-rule="evenodd" d="M71.367 95.7441C71.367 95.7441 80.611 85.0181 85.969 88.5931C85.969 88.5931 79.169 96.9181 70.715 97.7641L71.367 95.7441Z" fill="#FA7268"/>
<path fill-rule="evenodd" clip-rule="evenodd" d="M75.402 85.1269C75.402 85.1269 83.484 76.3639 89.387 78.5389C89.387 78.5389 82.475 87.6329 74.318 87.8659L75.402 85.1269Z" fill="#FA7268"/>
<path fill-rule="evenodd" clip-rule="evenodd" d="M79.058 75.198C79.058 75.198 87.989 66.806 91.871 68.283C91.871 68.283 85.426 77.607 78.669 77.063L79.058 75.198Z" fill="#FA7268"/>
<path fill-rule="evenodd" clip-rule="evenodd" d="M82.63 66.0289C82.63 66.0289 90.318 56.0059 94.512 56.7829C94.512 56.7829 89.852 65.7189 82.63 67.0509V66.0289Z" fill="#FA7268"/>
<path fill-rule="evenodd" clip-rule="evenodd" d="M86.505 53.675C86.505 53.675 93.303 45.988 96.972 46.008C96.972 46.008 91.608 56.275 86.228 56.181L86.505 53.675Z" fill="#FA7268"/>
<path fill-rule="evenodd" clip-rule="evenodd" d="M88.804 45.4361L95.366 29.4301C95.366 29.4301 95.696 43.8991 87.966 48.4051L88.804 45.4361Z" fill="#FA7268"/>
<path fill-rule="evenodd" clip-rule="evenodd" d="M91.467 27.784C91.467 27.784 92.554 14.42 91.855 13.332C91.855 13.332 96.551 24.432 91.422 33.689L91.467 27.784Z" fill="#FA7268"/>
<path fill-rule="evenodd" clip-rule="evenodd" d="M69.095 166.82C69.095 166.82 62.286 162.599 57.882 172.925C57.882 172.925 63.939 176.949 69.894 169.453L69.095 166.82Z" fill="#FA7268"/>
<path fill-rule="evenodd" clip-rule="evenodd" d="M66.103 155.301C66.103 155.301 57.754 151.491 53.7021 162.272C53.7021 162.272 60.153 166.712 66.863 158.026L66.103 155.301Z" fill="#FA7268"/>
<path fill-rule="evenodd" clip-rule="evenodd" d="M64.843 145.65C64.843 145.65 58.864 138.657 49.8662 145.65C49.8662 145.65 55.535 151.788 64.843 147.437V145.65Z" fill="#FA7268"/>
<path fill-rule="evenodd" clip-rule="evenodd" d="M64.097 134.597C64.097 134.597 58.037 127.29 49.417 134.209C49.417 134.209 56.251 140.658 64.097 136.306V134.597Z" fill="#FA7268"/>
<path fill-rule="evenodd" clip-rule="evenodd" d="M64.843 125.614C64.843 125.614 60.594 115.083 51.3584 119.612C51.3584 119.612 56.351 128.952 64.469 127.362L64.843 125.614Z" fill="#FA7268"/>
<path fill-rule="evenodd" clip-rule="evenodd" d="M66.855 114.495C66.855 114.495 62.633 103.781 53.2642 108.748C53.2642 108.748 59 118.568 66.438 116.151L66.855 114.495Z" fill="#FA7268"/>
<path fill-rule="evenodd" clip-rule="evenodd" d="M69.472 104.949C69.472 104.949 67.808 93.199 60.056 92.147C60.056 92.147 61.701 104.535 68.438 107.063L69.472 104.949Z" fill="#FA7268"/>
<path fill-rule="evenodd" clip-rule="evenodd" d="M71.567 95.764C71.567 95.764 70.915 81.611 64.494 81.12C64.494 81.12 64.71 91.859 70.843 97.77L71.567 95.764Z" fill="#FA7268"/>
<path fill-rule="evenodd" clip-rule="evenodd" d="M76.071 84.722C76.071 84.722 74.154 72.956 68.027 71.516C68.027 71.516 68.787 82.913 75.463 87.611L76.071 84.722Z" fill="#FA7268"/>
<path fill-rule="evenodd" clip-rule="evenodd" d="M79.785 75.284C79.785 75.284 79.718 63.024 75.974 61.223C75.974 61.223 73.652 72.323 78.7 76.849L79.785 75.284Z" fill="#FA7268"/>
<path fill-rule="evenodd" clip-rule="evenodd" d="M82.916 65.885C82.916 65.885 82.389 53.258 78.514 51.479C78.514 51.479 77.186 61.469 82.334 66.709L82.916 65.885Z" fill="#FA7268"/>
<path fill-rule="evenodd" clip-rule="evenodd" d="M87.048 54.674C87.048 54.674 87.023 44.407 84.255 41.998C84.255 41.998 81.504 53.248 85.603 56.739L87.048 54.674Z" fill="#FA7268"/>
<path fill-rule="evenodd" clip-rule="evenodd" d="M88.477 44.931L85.786 27.84C85.786 27.84 82.125 41.845 88.604 48.014L88.477 44.931Z" fill="#FA7268"/>
<path fill-rule="evenodd" clip-rule="evenodd" d="M89.004 27.9451C89.004 27.9451 82.089 16.4591 82.234 15.1801C82.234 15.1801 82.966 27.2231 91.664 33.2171L89.004 27.9451Z" fill="#FA7268"/>
<path fill-rule="evenodd" clip-rule="evenodd" d="M89.813 24.5549C89.813 24.5549 83.29 8.23494 80.339 6.91394C80.339 6.91394 89.658 11.6539 90.357 24.0889L89.813 24.5549Z" fill="#FA7268"/>
<path fill-rule="evenodd" clip-rule="evenodd" d="M86.191 56.27L85.745 56.134C91.25 38.171 92.626 26.719 89.614 23.849L89.935 23.511C93.125 26.538 91.833 37.857 86.191 56.27Z" fill="#444053"/>
<path fill-rule="evenodd" clip-rule="evenodd" d="M71.031 98.316L70.374 98.083C70.956 96.437 71.586 94.767 72.246 93.118C77.993 78.788 82.885 65.46 86.022 55.226L86.596 54.948C83.454 65.202 78.65 79.044 72.895 93.39C72.238 95.022 71.611 96.687 71.031 98.316Z" fill="#444053"/>
<path fill-rule="evenodd" clip-rule="evenodd" d="M84.924 197.198C84.835 197.098 75.91 187.047 69.692 169.881C66.045 159.834 64.014 149.273 63.673 138.59C63.246 125.234 66.047 110.321 70.845 96.776L71.367 97.387C60.597 127.79 64.877 153.844 70.551 169.537C76.709 186.545 85.529 196.49 85.617 196.587L84.924 197.198Z" fill="#444053"/>
<path fill-rule="evenodd" clip-rule="evenodd" d="M209.071 36.173C209.071 36.173 185.718 34.763 188.469 51.136C188.469 51.136 187.914 54.03 190.544 55.343C190.544 55.343 190.585 54.13 192.94 54.543C193.778 54.683 194.63 54.724 195.478 54.666C196.621 54.59 197.71 54.145 198.579 53.397C198.579 53.397 205.143 50.683 207.695 39.95C207.695 39.95 209.584 37.608 209.509 37.006L205.568 38.69C205.568 38.69 206.916 41.534 205.845 43.899C205.845 43.899 205.718 38.793 204.96 38.904C204.808 38.926 202.914 39.889 202.914 39.889C202.914 39.889 205.229 44.842 203.482 48.444C203.482 48.444 204.145 42.339 202.19 40.247L199.416 41.867C199.416 41.867 202.123 46.984 200.287 51.161C200.287 51.161 200.759 44.756 198.831 42.261L196.318 44.223C196.318 44.223 198.861 49.265 197.311 52.729C197.311 52.729 197.109 45.275 195.774 44.712C195.774 44.712 193.575 46.654 193.239 47.448C193.239 47.448 194.981 51.111 193.9 53.042C193.9 53.042 193.237 48.075 192.693 48.047C192.693 48.047 190.502 51.338 190.275 53.597C190.275 53.597 190.369 50.242 192.163 47.736C192.163 47.736 190.044 48.1 188.807 49.474C188.807 49.474 189.148 47.148 192.704 46.943C192.704 46.943 194.515 44.445 194.998 44.295C194.998 44.295 191.464 43.998 189.32 44.95C189.32 44.95 191.206 42.755 195.647 43.754L198.129 41.726C198.129 41.726 193.475 41.09 191.5 41.792C191.5 41.792 193.772 39.85 198.798 41.265L201.499 39.65C201.499 39.65 197.53 38.795 195.167 39.095C195.167 39.095 197.663 37.749 202.292 39.209L204.234 38.34C204.234 38.34 201.327 37.769 200.476 37.677C199.624 37.585 199.58 37.352 199.58 37.352C201.421 37.045 203.312 37.256 205.041 37.96C205.041 37.96 209.14 36.431 209.071 36.173Z" fill="#FA7268"/>
<path fill-rule="evenodd" clip-rule="evenodd" d="M185.116 28.892C185.116 28.892 174.577 28.256 175.808 35.654C175.808 35.654 175.561 36.961 176.746 37.555C176.746 37.555 176.765 37 177.83 37.192C178.208 37.255 178.593 37.274 178.975 37.247C179.493 37.213 179.985 37.01 180.376 36.67C180.376 36.67 183.344 35.443 184.498 30.593C184.498 30.593 185.349 29.535 185.316 29.263L183.535 30.024C183.535 30.024 184.143 31.309 183.666 32.377C183.666 32.377 183.607 30.071 183.266 30.124C183.197 30.124 182.34 30.57 182.34 30.57C182.34 30.57 183.388 32.81 182.598 34.436C182.598 34.436 182.897 31.678 182.013 30.731L180.759 31.475C180.759 31.475 181.982 33.787 181.153 35.674C181.153 35.674 181.366 32.779 180.495 31.653L179.361 32.541C179.361 32.541 180.509 34.819 179.81 36.384C179.81 36.384 179.716 33.015 179.114 32.76C179.114 32.76 178.121 33.637 177.969 33.998C177.969 33.998 178.756 35.663 178.268 36.526C178.268 36.526 177.969 34.281 177.714 34.27C177.714 34.27 176.723 35.757 176.621 36.767C176.67 35.825 176.965 34.913 177.475 34.12C176.904 34.228 176.376 34.501 175.958 34.905C175.958 34.905 176.113 33.853 177.719 33.762C177.719 33.762 178.551 32.632 178.756 32.563C178.756 32.563 177.159 32.43 176.191 32.86C176.191 32.86 177.042 31.869 179.048 32.319L180.157 31.403C180.157 31.403 178.052 31.125 177.162 31.433C177.162 31.433 178.188 30.557 180.459 31.195L181.68 30.465C181.68 30.465 179.885 30.079 178.817 30.218C178.817 30.218 179.946 29.61 182.037 30.268L182.911 29.877C182.911 29.877 181.596 29.619 181.211 29.577C180.825 29.535 180.806 29.43 180.806 29.43C181.639 29.291 182.493 29.387 183.274 29.707C183.274 29.707 185.149 29.008 185.116 28.892Z" fill="#FA7268"/>
<path opacity="0.1" fill-rule="evenodd" clip-rule="evenodd" d="M111.813 151.355C111.813 151.355 113.638 151.68 113.605 153.575C113.572 155.471 114.357 151.125 114.357 151.125L111.813 151.355Z" fill="black"/>
<path opacity="0.1" fill-rule="evenodd" clip-rule="evenodd" d="M152.161 156.905C152.015 156.924 151.875 156.974 151.751 157.052C151.627 157.131 151.522 157.235 151.442 157.359C151.363 157.482 151.312 157.622 151.292 157.767C151.273 157.913 151.285 158.061 151.329 158.201C151.562 159.361 152.161 156.905 152.161 156.905Z" fill="black"/>
<path opacity="0.1" fill-rule="evenodd" clip-rule="evenodd" d="M103.817 166.617C103.817 166.617 109.761 166.11 110.751 167.172C111.741 168.235 103.817 166.617 103.817 166.617Z" fill="black"/>
<path opacity="0.1" fill-rule="evenodd" clip-rule="evenodd" d="M154.934 167.02C154.934 167.02 159.28 166.485 160.298 167.225L154.934 167.02Z" fill="black"/>
<path opacity="0.1" fill-rule="evenodd" clip-rule="evenodd" d="M156.693 167.728C156.693 167.728 159.281 167.819 159.882 168.144L156.693 167.728Z" fill="black"/>
<path opacity="0.1" fill-rule="evenodd" clip-rule="evenodd" d="M157.2 168.658C157.2 168.658 159.558 168.566 159.882 168.935L157.2 168.658Z" fill="black"/>
<path opacity="0.1" fill-rule="evenodd" clip-rule="evenodd" d="M107.32 181.699C107.32 181.699 109.339 182.751 109.134 183.825C108.929 184.899 107.32 181.699 107.32 181.699Z" fill="black"/>
<path opacity="0.1" fill-rule="evenodd" clip-rule="evenodd" d="M105.573 182.21C105.573 182.21 108.654 186.209 108.235 187.527C107.817 188.845 105.573 182.21 105.573 182.21Z" fill="black"/>
<path opacity="0.1" fill-rule="evenodd" clip-rule="evenodd" d="M155.237 182.873C155.237 182.873 153.711 184.13 153.753 185.168L155.237 182.873Z" fill="black"/>
<path opacity="0.1" fill-rule="evenodd" clip-rule="evenodd" d="M158.54 204.871C158.54 204.871 158.307 207.324 156.182 208.595L158.54 204.871Z" fill="black"/>
<path opacity="0.1" fill-rule="evenodd" clip-rule="evenodd" d="M113.265 218.643C113.265 218.643 115.531 217.944 116.471 219.27L113.265 218.643Z" fill="black"/>
<path opacity="0.1" fill-rule="evenodd" clip-rule="evenodd" d="M165.759 218.92C165.759 218.92 162.007 218.701 162.154 219.717L165.759 218.92Z" fill="black"/>
<path opacity="0.1" fill-rule="evenodd" clip-rule="evenodd" d="M240.681 216.864C244.806 216.864 248.15 216.299 248.15 215.602C248.15 214.904 244.806 214.339 240.681 214.339C236.556 214.339 233.212 214.904 233.212 215.602C233.212 216.299 236.556 216.864 240.681 216.864Z" fill="#9846FF"/>
<path opacity="0.1" fill-rule="evenodd" clip-rule="evenodd" d="M26.2641 227.226C30.3892 227.226 33.7332 226.661 33.7332 225.964C33.7332 225.266 30.3892 224.701 26.2641 224.701C22.139 224.701 18.7949 225.266 18.7949 225.964C18.7949 226.661 22.139 227.226 26.2641 227.226Z" fill="#9846FF"/>
<path opacity="0.1" fill-rule="evenodd" clip-rule="evenodd" d="M55.156 234C59.281 234 62.625 233.435 62.625 232.737C62.625 232.04 59.281 231.475 55.156 231.475C51.0311 231.475 47.687 232.04 47.687 232.737C47.687 233.435 51.0311 234 55.156 234Z" fill="#9846FF"/>
<path fill-rule="evenodd" clip-rule="evenodd" d="M224.331 231.02C230.49 231.02 235.484 230.175 235.484 229.133C235.484 228.091 230.49 227.246 224.331 227.246C218.172 227.246 213.179 228.091 213.179 229.133C213.179 230.175 218.172 231.02 224.331 231.02Z" fill="#FA7268"/>
<path fill-rule="evenodd" clip-rule="evenodd" d="M228.943 226.047C229.452 225.631 229.822 225.071 230.006 224.441C230.144 223.805 229.873 223.053 229.262 222.806C228.58 222.545 227.851 223.02 227.299 223.497C226.747 223.974 226.112 224.521 225.388 224.418C225.76 224.081 226.039 223.653 226.197 223.176C226.355 222.699 226.387 222.189 226.289 221.696C226.257 221.492 226.169 221.3 226.037 221.141C225.66 220.736 224.972 220.908 224.52 221.23C223.077 222.243 222.675 224.205 222.667 225.967C222.52 225.331 222.645 224.668 222.639 224.024C222.634 223.38 222.459 222.637 221.907 222.295C221.566 222.113 221.184 222.023 220.798 222.035C220.149 222.01 219.427 222.076 218.984 222.551C218.429 223.139 218.579 224.127 219.056 224.771C219.533 225.415 220.262 225.828 220.933 226.275C221.47 226.595 221.928 227.032 222.273 227.554C222.315 227.627 222.348 227.704 222.373 227.784H226.425C227.339 227.321 228.186 226.737 228.943 226.047Z" fill="#FA7268"/>
<path fill-rule="evenodd" clip-rule="evenodd" d="M55.542 201.707C55.542 201.707 57.067 203.702 54.84 206.702C52.6129 209.702 50.7768 212.252 51.5118 214.131C51.5118 214.131 54.873 208.539 57.614 208.461C60.354 208.384 58.551 205.07 55.542 201.707Z" fill="#FA7268"/>
<path opacity="0.1" fill-rule="evenodd" clip-rule="evenodd" d="M55.542 201.707C55.675 201.9 55.779 202.111 55.852 202.334C58.521 205.47 59.943 208.398 57.378 208.47C54.99 208.539 52.1249 212.813 51.437 213.892C51.4592 213.975 51.4869 214.056 51.5174 214.139C51.5174 214.139 54.879 208.547 57.619 208.47C60.359 208.392 58.551 205.07 55.542 201.707Z" fill="black"/>
<path fill-rule="evenodd" clip-rule="evenodd" d="M58.373 204.249C58.373 204.951 58.296 205.52 58.199 205.52C58.102 205.52 58.024 204.951 58.024 204.249C58.024 203.547 58.121 203.877 58.218 203.877C58.315 203.877 58.373 203.547 58.373 204.249Z" fill="#FFD037"/>
<path fill-rule="evenodd" clip-rule="evenodd" d="M59.347 205.087C58.731 205.423 58.193 205.625 58.149 205.539C58.105 205.453 58.562 205.112 59.178 204.776C59.794 204.44 59.552 204.685 59.597 204.776C59.641 204.868 59.963 204.751 59.347 205.087Z" fill="#FFD037"/>
<path fill-rule="evenodd" clip-rule="evenodd" d="M47.4957 201.707C47.4957 201.707 45.9702 203.702 48.1974 206.702C50.4245 209.702 52.2606 212.252 51.5256 214.131C51.5256 214.131 48.1668 208.539 45.4238 208.461C42.6808 208.384 44.4808 205.07 47.4957 201.707Z" fill="#FA7268"/>
<path opacity="0.1" fill-rule="evenodd" clip-rule="evenodd" d="M47.4958 201.707C47.3624 201.9 47.2569 202.111 47.1824 202.334C44.5143 205.47 43.0942 208.398 45.657 208.47C48.0477 208.539 50.9128 212.813 51.6007 213.892C51.5779 213.976 51.5501 214.058 51.5175 214.139C51.5175 214.139 48.1587 208.547 45.4157 208.47C42.6726 208.392 44.481 205.07 47.4958 201.707Z" fill="black"/>
<path fill-rule="evenodd" clip-rule="evenodd" d="M44.6611 204.249C44.6611 204.951 44.7416 205.52 44.8386 205.52C44.9357 205.52 45.0134 204.951 45.0134 204.249C45.0134 203.547 44.9163 203.877 44.8192 203.877C44.7222 203.877 44.6611 203.547 44.6611 204.249Z" fill="#FFD037"/>
<path fill-rule="evenodd" clip-rule="evenodd" d="M43.6903 205.087C44.306 205.423 44.8413 205.625 44.8884 205.539C44.9356 205.453 44.4724 205.112 43.8567 204.776C43.241 204.44 43.485 204.685 43.4379 204.776C43.3907 204.868 43.0745 204.751 43.6903 205.087Z" fill="#FFD037"/>
<path fill-rule="evenodd" clip-rule="evenodd" d="M45.1465 213.878C45.1465 213.878 49.4066 213.745 50.6936 212.832C51.9805 211.919 57.247 210.823 57.564 212.291C57.88 213.759 63.968 219.587 59.158 219.625C54.349 219.664 47.981 218.876 46.6997 218.096C45.4183 217.317 45.1465 213.878 45.1465 213.878Z" fill="#A8A8A8"/>
<path opacity="0.2" fill-rule="evenodd" clip-rule="evenodd" d="M59.242 219.115C54.432 219.154 48.0642 218.366 46.7829 217.586C45.8094 216.989 45.4183 214.855 45.2879 213.873H45.1465C45.1465 213.873 45.4238 217.309 46.6969 218.091C47.9699 218.874 54.346 219.659 59.156 219.62C60.542 219.62 61.022 219.115 60.997 218.382C60.803 218.832 60.273 219.107 59.242 219.115Z" fill="black"/>
<path fill-rule="evenodd" clip-rule="evenodd" d="M175.768 73.75C161.648 77.212 154.259 70.806 153.261 69.856C153.261 69.856 153.237 69.759 153.202 69.8C153.164 69.762 153.145 69.859 153.145 69.859C152.2 70.859 145.168 77.658 130.882 74.968C130.882 74.968 129.394 100.594 137.956 110.801C147.1 121.702 154.656 124.867 154.694 124.837C154.731 124.865 162.168 121.357 170.644 109.915C178.577 99.209 175.768 73.75 175.768 73.75Z" fill="#B643D5"/>
<path fill-rule="evenodd" clip-rule="evenodd" d="M173.762 76.4359C160.946 79.5239 154.245 73.8239 153.341 72.9789C153.341 72.9789 153.321 72.8939 153.287 72.9279C153.253 72.8939 153.237 72.9829 153.237 72.9829C152.379 73.8739 145.995 79.9289 133.031 77.5409C133.031 77.5409 131.671 100.356 139.435 109.437C147.728 119.139 154.589 122.562 154.626 122.534C154.661 122.561 161.402 118.825 169.097 108.633C176.296 99.101 173.762 76.4359 173.762 76.4359Z" fill="#A8A8A9" fill-opacity="0.6"/>
<g opacity="0.06">
<path opacity="0.06" fill-rule="evenodd" clip-rule="evenodd" d="M153.291 75.225C153.291 75.225 153.308 75.135 153.343 75.169C153.379 75.131 153.401 75.222 153.401 75.222C154.329 76.087 161.099 81.845 174.015 79.019C173.888 76.702 173.728 75.253 173.728 75.253C160.91 78.34 154.208 72.639 153.304 71.797C153.304 71.797 153.286 71.71 153.251 71.746C153.216 71.713 153.201 71.798 153.201 71.798C152.342 72.689 145.96 78.747 132.996 76.357C132.996 76.357 132.91 77.811 132.904 80.13C145.959 82.258 152.408 76.143 153.291 75.225Z" fill="#010101"/>
</g>
<path fill-rule="evenodd" clip-rule="evenodd" d="M170.114 82.865C160.434 85.238 154.199 80.644 153.517 79.994C153.517 79.994 153.501 79.927 153.476 79.955C153.451 79.928 153.439 79.996 153.439 79.996C152.791 80.683 146.875 85.595 137.083 83.748C137.083 83.748 137.155 101.069 143.025 108.064C149.294 115.537 154.476 117.708 154.498 117.688C154.526 117.706 159.626 115.302 165.435 107.457C170.871 100.116 170.114 82.865 170.114 82.865Z" fill="#B643D5"/>
<path fill-rule="evenodd" clip-rule="evenodd" d="M155.566 125.669L154.021 124.21L153.996 122.337L153.598 122.142L153.334 122.626L152.872 121.075L151.779 120.35L150.147 120.97L149.21 122.512L149.998 124.068L151.734 125.2L153.763 127.289L155.566 125.669Z" fill="#EACEB1"/>
<path fill-rule="evenodd" clip-rule="evenodd" d="M155.416 123.911L152.638 127.204L160.09 138.528L162.862 139.422L174.674 129.997L171.516 123.545L162.705 131.035L155.416 123.911Z" fill="#B643D5"/>
<path fill-rule="evenodd" clip-rule="evenodd" d="M192.9 212.821L193.312 214.712L190.042 217.409L187.791 215.917L189.219 213.622L192.489 210.927L192.9 212.821Z" fill="#2A2A49"/>
<path fill-rule="evenodd" clip-rule="evenodd" d="M181.47 154.606L185.116 163.025L185.461 186.7L192.961 212.168L189.47 213.714L174.168 184.144L172.427 174.777L171.732 155.051L181.47 154.606Z" fill="#B643D5"/>
<path fill-rule="evenodd" clip-rule="evenodd" d="M163.808 156.494L163.521 181.306L168.194 213.3H171.787L174.057 183.78L178.979 154.258L163.808 156.494Z" fill="#B643D5"/>
<path fill-rule="evenodd" clip-rule="evenodd" d="M171.768 212.872V214.818L167.883 216.761L165.94 214.818L167.883 212.872H171.768Z" fill="#2A2A49"/>
<path fill-rule="evenodd" clip-rule="evenodd" d="M170.887 122.893L180.433 122.54C180.433 122.54 186.141 127.553 189.092 140.581C192.101 153.846 188.537 172.942 188.537 172.942C188.537 172.942 162.932 169.524 158.732 168.996L165.138 142.808L170.887 122.893Z" fill="#B643D5"/>
<path fill-rule="evenodd" clip-rule="evenodd" d="M174.307 123.869C175.421 123.759 176.537 123.651 177.651 123.543C177.664 122.649 177.603 121.754 177.471 120.869C178.401 120.545 179.476 120.056 179.64 119.085C179.691 118.779 179.64 118.467 179.585 118.161C179.369 116.897 179.151 115.631 178.938 114.366C178.861 113.93 178.781 113.479 178.544 113.104C178.129 112.446 177.318 112.156 176.552 112.022C174.594 111.68 172.465 112.102 170.948 113.38C170.542 113.721 170.175 114.131 169.996 114.628C169.722 115.397 169.925 116.245 170.131 117.032C170.323 117.76 170.514 118.488 170.703 119.217C170.92 120.054 171.235 121.008 172.045 121.32C172.469 121.488 172.977 121.44 173.363 121.687C174.045 122.125 173.952 123.14 174.307 123.869Z" fill="#EEBFA5"/>
<path fill-rule="evenodd" clip-rule="evenodd" d="M163.414 111.233C163.395 110.366 163.516 109.488 163.689 108.699C163.986 107.34 165.589 106.73 166.975 106.634C169.967 106.425 172.857 105.067 175.781 106.116C177.455 106.715 179.696 106.859 181.21 107.704C181.842 108.057 182.346 108.607 182.738 109.214C184.096 111.321 184.099 114.224 182.749 116.334C182.443 116.808 182.077 117.239 181.698 117.654C180.906 118.508 179.965 119.564 178.878 119.881C178.853 118.908 179.74 115.847 178.997 115.05C177.816 113.786 175.14 114.223 173.671 114.531C172.072 114.868 170.641 116 169.053 116.241C167.911 116.414 166.454 115.852 165.483 115.259C163.964 114.332 163.457 112.798 163.414 111.233Z" fill="#2A2A49"/>
<path fill-rule="evenodd" clip-rule="evenodd" d="M173.518 124.076L163.485 164.236L162.662 169.504L175.162 171.15C175.162 171.15 174.67 151.918 174.834 149.354C175 146.792 176.855 141.242 177.135 135.267C177.301 131.811 178.4 125.601 177.63 123.581L173.518 124.076Z" fill="#F7F8F8"/>
<path fill-rule="evenodd" clip-rule="evenodd" d="M164.529 145.515L162.294 146.222L160.471 145.237L160.068 145.519L160.391 146.029L158.647 145.647L157.357 146.312L157.081 148.223L158.066 149.955L159.991 150.027L162.016 148.962L165.12 148.127L164.529 145.515Z" fill="#EACEB1"/>
<path fill-rule="evenodd" clip-rule="evenodd" d="M162.627 145.67C166.1 144.855 169.576 144.039 173.049 143.225C173.985 143.007 174.956 142.959 175.892 142.731C177.255 142.4 177.632 142.286 177.823 140.982C178.378 137.199 177.674 133.276 178.244 129.552C179.614 129.415 180.939 129.091 182.341 129.109C184.628 129.14 184.428 130.715 184.557 132.468C184.71 134.548 184.803 136.634 184.815 138.719C184.829 140.45 185.396 147.944 182.861 148.493C181.04 148.891 162.716 149.868 162.724 150.244C162.723 150.09 162.627 145.67 162.627 145.67Z" fill="#B643D5"/>
<path fill-rule="evenodd" clip-rule="evenodd" d="M136.284 127.835L137.569 126.624L137.591 125.065L137.924 124.903L138.142 125.302L138.527 124.014L139.437 123.41L140.794 123.926L141.572 125.212L140.917 126.506L139.47 127.449L137.784 129.181L136.284 127.835Z" fill="#EACEB1"/>
<path fill-rule="evenodd" clip-rule="evenodd" d="M136.69 125.936L129.492 134.47L120.094 125.362L118.633 136.25L130.073 141.926L139.077 128.421L136.69 125.936Z" fill="#F7F8F8"/>
<path fill-rule="evenodd" clip-rule="evenodd" d="M105.289 211.386L105.132 212.927L107.927 214.844L109.558 213.495L108.239 211.766L105.443 209.847L105.289 211.386Z" fill="#2A2A49"/>
<path fill-rule="evenodd" clip-rule="evenodd" d="M105.358 164.323L104.884 168.997L109.077 185.06L105.183 210.869L108.048 211.856L115.602 186.659L116.802 179.326L116.757 163.81L105.358 164.323Z" fill="#EEBFA5"/>
<path fill-rule="evenodd" clip-rule="evenodd" d="M127.392 169.534L121.367 212.782H118.626L118.133 185.06L113.148 165.602L127.392 169.534Z" fill="#EEBFA5"/>
<path fill-rule="evenodd" clip-rule="evenodd" d="M118.644 212.44V213.993L121.605 215.546L123.086 213.993L121.605 212.44H118.644Z" fill="#2A2A49"/>
<path fill-rule="evenodd" clip-rule="evenodd" d="M120.662 125.134C120.445 124.778 120.155 124.476 119.758 124.252C117.037 122.716 112.527 124.07 109.573 124.07C108.7 133.262 106.288 142.024 104.73 151.051C103.073 160.638 101.21 170.186 99.14 179.691C99.024 180.227 107.359 179.958 108.146 179.971C116.164 180.106 126.66 180.08 134.399 177.655C129.461 164.39 127.658 150.118 123.77 136.508C123.086 134.119 122.275 131.764 121.662 129.357C121.304 127.96 121.36 126.274 120.662 125.134Z" fill="#F7F8F8"/>
<path fill-rule="evenodd" clip-rule="evenodd" d="M117.024 111.568C119.053 112.124 120.653 114.004 120.873 116.097C121.982 115.062 122.55 113.476 122.344 111.972C122.142 110.469 121.171 109.091 119.826 108.39C118.566 109.058 117.59 110.242 117.174 111.604L117.024 111.568Z" fill="#2A2A49"/>
<path fill-rule="evenodd" clip-rule="evenodd" d="M121.153 114.289C120.105 108.749 113.185 109.708 111.202 114.193C110.071 116.745 111.256 120.358 113.511 122.133C113.56 122.622 113.624 123.977 113.999 124.304C114.405 124.661 115.684 124.321 116.184 124.203C116.324 124.171 116.468 124.132 116.57 124.033C116.695 123.905 116.717 123.566 116.72 123.193C117.087 123.167 117.464 123.096 117.846 122.971C119.456 122.44 120.621 120.951 121.104 119.326C121.586 117.7 121.469 115.954 121.153 114.289Z" fill="#EEBFA5"/>
<path fill-rule="evenodd" clip-rule="evenodd" d="M111.051 141.929C110.831 141.552 110.686 141.121 110.615 140.714C110.493 140.014 110.582 139.276 110.881 138.633C111.01 138.355 111.321 138.196 111.618 138.313C111.892 138.422 112.068 138.773 111.938 139.051C111.638 139.696 111.622 140.422 111.897 141.071C112.034 140.992 112.178 140.927 112.328 140.878C112.876 140.69 113.695 140.483 114.104 141.03C114.564 141.643 114.148 142.381 113.544 142.678C113.07 142.915 112.491 143.015 111.995 142.827C111.995 143.524 112.196 143.881 112.86 144.076C113.263 144.196 114.266 144.298 114.586 143.918C114.793 143.67 114.777 142.921 114.849 142.59C115.056 141.672 115.361 140.777 115.757 139.924C116.561 138.192 117.732 136.65 119.122 135.343C122.26 132.403 126.41 130.69 130.604 129.934C130.836 129.894 131.067 129.854 131.3 129.817C134.186 129.371 137.012 129.456 139.643 130.043C140.224 129.112 140.974 128.292 141.881 127.671C143.904 126.279 146.707 125.987 148.855 127.173C147.171 129.144 145.789 131.968 145.566 132.432C148.098 133.994 150.238 136.167 151.79 138.905C151.821 138.961 151.854 139.015 151.882 139.069L155.024 139.57C155.024 139.57 156.199 145.735 155.499 147.595C155.499 147.595 153.056 148.602 151.575 149.003C150.467 151.523 148.588 153.818 146.142 155.663C145.981 155.784 145.817 155.902 145.65 156.022L146.411 160.942C146.411 160.942 142.643 162.842 140.625 162.495L138.939 159.212C137.977 159.488 136.981 159.71 135.956 159.87C134.744 160.057 133.547 160.166 132.375 160.194L131.757 163.874C129.938 164.815 125.771 164.147 125.771 164.147L125.009 159.227C119.594 157.529 115.605 153.639 114.699 147.783C114.621 147.281 114.57 146.789 114.544 146.305C113.665 146.283 112.798 146.059 112.096 145.493C111.555 145.058 111.203 144.497 111.023 143.827C110.866 143.223 110.759 142.508 111.051 141.929Z" fill="#E498B5"/>
<path fill-rule="evenodd" clip-rule="evenodd" d="M138.34 130.675L137.957 132.546C137.957 132.546 132.173 131.845 126.545 134.315L125.098 133.256C125.097 133.256 130.025 128.56 138.34 130.675Z" fill="#C27098"/>
<path opacity="0.03" fill-rule="evenodd" clip-rule="evenodd" d="M116.125 147.997C118.757 151.815 123.012 154.126 127.41 155.29C130.669 156.151 134.18 156.549 137.588 156.215C142.522 155.726 146.931 153.538 151.018 150.902C151.197 150.787 151.373 150.666 151.544 150.543C150.443 152.286 148.958 153.874 147.17 155.224C144.4 157.315 140.904 158.825 136.983 159.43C126.557 161.051 117.229 156.747 115.736 147.418C115.862 147.614 115.994 147.802 116.125 147.997Z" fill="#010101"/>
<path opacity="0.03" fill-rule="evenodd" clip-rule="evenodd" d="M152.954 138.858C152.954 138.858 155.461 144.855 152.584 148.669L154.072 148.191C154.072 148.191 155.519 142.464 152.954 138.858Z" fill="#010101"/>
<path fill-rule="evenodd" clip-rule="evenodd" d="M136.262 124.413C139.488 124.413 142.102 121.797 142.102 118.57C142.102 115.343 139.488 112.727 136.262 112.727C133.037 112.727 130.422 115.343 130.422 118.57C130.422 121.797 133.037 124.413 136.262 124.413Z" fill="#F9A139"/>
<path opacity="0.1" fill-rule="evenodd" clip-rule="evenodd" d="M129.977 119.585C129.417 116.112 131.777 112.844 135.248 112.283C138.717 111.723 141.986 114.083 142.545 117.555C143.103 121.027 140.744 124.296 137.275 124.856C133.805 125.417 130.536 123.057 129.977 119.585ZM131.034 119.414C131.499 122.304 134.217 124.268 137.105 123.802C139.992 123.336 141.954 120.616 141.489 117.726C141.024 114.836 138.306 112.874 135.418 113.34C132.53 113.807 130.567 116.526 131.034 119.414Z" fill="#232020"/>
<path fill-rule="evenodd" clip-rule="evenodd" d="M129.332 119.688C128.715 115.861 131.317 112.255 135.144 111.638C138.971 111.022 142.573 113.624 143.19 117.452C143.805 121.281 141.204 124.886 137.378 125.502C133.552 126.12 129.95 123.517 129.332 119.688ZM130.495 119.501C131.011 122.686 134.006 124.853 137.191 124.338C140.373 123.826 142.538 120.826 142.024 117.64C141.51 114.455 138.515 112.289 135.331 112.802C132.147 113.317 129.982 116.316 130.495 119.501Z" fill="#FFD32E"/>
<path fill-rule="evenodd" clip-rule="evenodd" d="M134.657 120.606C134.577 120.566 134.549 120.468 134.518 120.376C134.439 120.144 134.559 119.939 134.79 119.876C135.136 119.778 135.537 119.99 135.882 120.095C136.162 120.179 136.464 120.196 136.782 120.147C137.122 120.095 137.383 119.97 137.561 119.772C137.739 119.574 137.81 119.341 137.766 119.072C137.725 118.798 137.612 118.616 137.428 118.526C137.245 118.436 136.952 118.423 136.553 118.485L136.287 118.526C135.634 118.629 135.115 118.569 134.729 118.35C134.343 118.127 134.109 117.757 134.03 117.239C133.95 116.729 134.056 116.31 134.347 115.976C134.639 115.642 135.089 115.429 135.696 115.335C135.943 115.298 136.2 115.3 136.47 115.341C137.031 115.431 137.981 115.726 137.875 116.285C137.757 116.923 136.686 116.19 136.337 116.1C136.132 116.047 135.899 116.04 135.638 116.081C135.337 116.129 135.107 116.246 134.947 116.435C134.787 116.623 134.726 116.841 134.764 117.086C134.802 117.33 134.923 117.487 135.128 117.562C135.333 117.638 135.75 117.634 136.378 117.551C137.048 117.467 137.557 117.533 137.904 117.743C138.253 117.957 138.469 118.334 138.554 118.876C138.634 119.395 138.529 119.84 138.237 120.203C137.945 120.569 137.511 120.795 136.934 120.885C136.75 120.913 136.544 120.925 136.314 120.919C135.886 120.909 135.197 120.868 134.657 120.606Z" fill="#FFD32E"/>
<path fill-rule="evenodd" clip-rule="evenodd" d="M136.959 122.285L136.953 122.286C136.754 122.316 136.563 122.153 136.527 121.923L135.424 114.806C135.388 114.575 135.521 114.364 135.72 114.332L135.726 114.331C135.926 114.301 136.116 114.464 136.152 114.692L137.255 121.809C137.29 122.042 137.158 122.253 136.959 122.285Z" fill="#FFD32E"/>
<path fill-rule="evenodd" clip-rule="evenodd" d="M113.973 144.841L115.813 145.445L117.322 144.649L117.653 144.882L117.382 145.303L118.825 145.002L119.883 145.559L120.097 147.137L119.27 148.561L117.68 148.606L116.018 147.709L113.462 146.995L113.973 144.841Z" fill="#EACEB1"/>
<path fill-rule="evenodd" clip-rule="evenodd" d="M109.114 142.855C108.337 142.33 107.804 141.583 107.735 140.487C107.671 139.475 107.908 138.47 108.083 137.472C108.636 134.301 108.563 131.02 107.869 127.879C107.178 124.752 103.532 128.684 103.077 130.095C102.576 131.658 102.717 133.363 102.594 134.978C102.429 137.15 102.351 139.328 102.361 141.505C102.365 142.883 102.028 146.136 103.477 146.925C103.869 147.138 104.319 147.212 104.758 147.283C105.45 147.396 113.709 148.438 113.839 148.03L114.98 144.428C113.261 144.075 110.687 143.919 109.114 142.855Z" fill="#F7F8F8"/>
<path fill-rule="evenodd" clip-rule="evenodd" d="M110.923 136.284C110.989 136.279 111.043 136.275 111.082 136.267C112.301 136.058 114.261 135.664 114.826 134.378C115.408 133.059 114.375 130.668 114.205 129.298C113.947 127.217 113.861 125.115 113.761 123.021C113.67 121.133 114.345 119.272 115.331 117.661C116.319 116.05 117.61 114.65 118.883 113.252C119.411 112.671 119.959 112.048 120.119 111.28C120.299 110.427 119.959 109.531 119.397 108.866C118.534 107.844 117.511 107.336 116.208 107.305C111.632 107.195 108.19 109.903 106.893 114.375C105.033 120.781 107.357 126.897 107.01 133.271C106.95 134.362 106.593 135.431 105.981 136.335C106.143 136.093 109.937 136.34 110.923 136.284Z" fill="#2A2A49"/>
</svg>
