<svg width="281" height="202" viewBox="0 0 281 202" fill="none" xmlns="http://www.w3.org/2000/svg">
<path opacity="0.1" fill-rule="evenodd" clip-rule="evenodd" d="M140.5 202C218.096 202 281 194.345 281 184.903C281 175.46 218.096 167.806 140.5 167.806C62.904 167.806 0 175.46 0 184.903C0 194.345 62.904 202 140.5 202Z" fill="#F8AFA6"/>
<path opacity="0.1" fill-rule="evenodd" clip-rule="evenodd" d="M160.14 23.923C146.256 23.44 133.033 18.954 120.408 14.045C107.783 9.13599 95.274 3.69599 81.721 1.10999C73.007 -0.564011 63.039 -0.800011 56.017 3.87699C49.2631 8.36599 47.0764 16.136 45.9027 23.347C45.0179 28.772 44.4977 34.481 46.908 39.559C48.5895 43.081 51.5729 46.05 53.636 49.427C60.815 61.177 55.74 75.668 47.9612 87.144C44.3117 92.526 40.0791 97.659 37.2615 103.39C34.444 109.122 33.1446 115.684 35.6077 121.529C38.0508 127.316 43.8693 131.674 50.173 134.734C62.976 140.951 78.072 142.73 92.778 143.737C125.347 145.968 158.089 144.995 190.743 144.033C202.83 143.676 214.968 143.314 226.856 141.444C233.459 140.405 240.275 138.755 245.066 134.774C251.151 129.722 252.659 121.164 248.585 114.829C241.746 104.201 222.837 101.561 218.057 90.156C215.428 83.878 218.13 76.885 221.952 71.063C230.154 58.571 243.902 47.613 244.628 33.336C245.131 23.523 238.516 13.71 228.291 9.07099C217.579 4.20999 202.725 4.82099 194.823 12.87C186.699 21.161 172.398 24.349 160.14 23.923Z" fill="#F8AFA6"/>
<path opacity="0.15" fill-rule="evenodd" clip-rule="evenodd" d="M119.136 78.554L118.322 82.273L118.4 82.25L119.174 78.554H119.136Z" fill="black"/>
<path opacity="0.1" fill-rule="evenodd" clip-rule="evenodd" d="M228.404 150.427C228.404 150.427 225.24 151.481 224.383 152.991C223.526 154.5 228.404 150.427 228.404 150.427Z" fill="black"/>
<path fill-rule="evenodd" clip-rule="evenodd" d="M191.139 177.236C196.353 177.236 200.58 172.745 200.58 167.205C200.58 161.664 196.353 157.173 191.139 157.173C185.925 157.173 181.699 161.664 181.699 167.205C181.699 172.745 185.925 177.236 191.139 177.236Z" fill="#FBD56F"/>
<path opacity="0.1" fill-rule="evenodd" clip-rule="evenodd" d="M191.139 177.236C196.353 177.236 200.58 172.745 200.58 167.205C200.58 161.664 196.353 157.173 191.139 157.173C185.925 157.173 181.699 161.664 181.699 167.205C181.699 172.745 185.925 177.236 191.139 177.236Z" fill="black"/>
<path fill-rule="evenodd" clip-rule="evenodd" d="M192.768 177.237C197.981 177.237 202.208 172.846 202.208 167.429C202.208 162.012 197.981 157.621 192.768 157.621C187.554 157.621 183.327 162.012 183.327 167.429C183.327 172.846 187.554 177.237 192.768 177.237Z" fill="#FBD56F"/>
<path fill-rule="evenodd" clip-rule="evenodd" d="M196.593 176.315L195.611 175.769C195.611 175.769 195.151 177.687 195.301 179.055C195.316 179.193 195.371 179.323 195.461 179.428C195.551 179.533 195.67 179.609 195.804 179.644C198.066 180.205 208.829 182.598 216.233 179.226C216.34 179.178 216.433 179.102 216.502 179.006C216.571 178.91 216.613 178.798 216.625 178.68C216.718 177.84 216.396 176.106 216.268 175.769C215.999 175.042 196.593 176.315 196.593 176.315Z" fill="#FBD56F"/>
<path opacity="0.1" fill-rule="evenodd" clip-rule="evenodd" d="M196.593 176.315L195.611 175.769C195.611 175.769 195.151 177.687 195.301 179.055C195.316 179.193 195.371 179.323 195.461 179.428C195.551 179.533 195.67 179.609 195.804 179.644C198.066 180.205 208.829 182.598 216.233 179.226C216.34 179.178 216.433 179.102 216.502 179.006C216.571 178.91 216.613 178.798 216.625 178.68C216.718 177.84 216.396 176.106 216.268 175.769C215.999 175.042 196.593 176.315 196.593 176.315Z" fill="black"/>
<path fill-rule="evenodd" clip-rule="evenodd" d="M205.943 178.102C211.65 178.102 216.276 177.058 216.276 175.77C216.276 174.482 211.65 173.438 205.943 173.438C200.236 173.438 195.61 174.482 195.61 175.77C195.61 177.058 200.236 178.102 205.943 178.102Z" fill="#FBD56F"/>
<path fill-rule="evenodd" clip-rule="evenodd" d="M200.549 172.876L199.569 172.33C199.569 172.33 199.109 174.247 199.26 175.616C199.274 175.753 199.33 175.883 199.419 175.988C199.509 176.093 199.629 176.167 199.763 176.202C202.025 176.766 212.787 179.159 220.192 175.787C220.299 175.738 220.391 175.662 220.46 175.566C220.529 175.47 220.571 175.358 220.584 175.241C220.674 174.401 220.352 172.667 220.224 172.33C219.945 171.603 200.549 172.876 200.549 172.876Z" fill="#FBD56F"/>
<path opacity="0.1" fill-rule="evenodd" clip-rule="evenodd" d="M200.549 172.876L199.569 172.33C199.569 172.33 199.109 174.247 199.26 175.616C199.274 175.753 199.33 175.883 199.419 175.988C199.509 176.093 199.629 176.167 199.763 176.202C202.025 176.766 212.787 179.159 220.192 175.787C220.299 175.738 220.391 175.662 220.46 175.566C220.529 175.47 220.571 175.358 220.584 175.241C220.674 174.401 220.352 172.667 220.224 172.33C219.945 171.603 200.549 172.876 200.549 172.876Z" fill="black"/>
<path fill-rule="evenodd" clip-rule="evenodd" d="M209.889 174.663C215.596 174.663 220.222 173.619 220.222 172.331C220.222 171.042 215.596 169.998 209.889 169.998C204.183 169.998 199.557 171.042 199.557 172.331C199.557 173.619 204.183 174.663 209.889 174.663Z" fill="#FBD56F"/>
<path fill-rule="evenodd" clip-rule="evenodd" d="M204.031 168.354L203.048 167.808C203.048 167.808 202.588 169.726 202.739 171.094C202.753 171.232 202.809 171.362 202.899 171.467C202.988 171.572 203.108 171.648 203.242 171.683C205.504 172.244 216.269 174.637 223.671 171.266C223.778 171.217 223.871 171.14 223.94 171.045C224.009 170.949 224.052 170.837 224.065 170.72C224.156 169.879 223.834 168.146 223.706 167.808C223.437 167.081 204.031 168.354 204.031 168.354Z" fill="#FBD56F"/>
<path opacity="0.1" fill-rule="evenodd" clip-rule="evenodd" d="M204.031 168.354L203.048 167.808C203.048 167.808 202.588 169.726 202.739 171.094C202.753 171.232 202.809 171.362 202.899 171.467C202.988 171.572 203.108 171.648 203.242 171.683C205.504 172.244 216.269 174.637 223.671 171.266C223.778 171.217 223.871 171.14 223.94 171.045C224.009 170.949 224.052 170.837 224.065 170.72C224.156 169.879 223.834 168.146 223.706 167.808C223.437 167.081 204.031 168.354 204.031 168.354Z" fill="black"/>
<path fill-rule="evenodd" clip-rule="evenodd" d="M213.38 170.141C219.087 170.141 223.713 169.097 223.713 167.809C223.713 166.521 219.087 165.477 213.38 165.477C207.673 165.477 203.047 166.521 203.047 167.809C203.047 169.097 207.673 170.141 213.38 170.141Z" fill="#FBD56F"/>
<path fill-rule="evenodd" clip-rule="evenodd" d="M200.165 163.652L199.182 163.104C199.182 163.104 198.725 165.024 198.873 166.39C198.887 166.528 198.943 166.657 199.033 166.762C199.123 166.868 199.242 166.943 199.376 166.979C201.638 167.54 212.4 169.933 219.802 166.564C219.91 166.515 220.003 166.439 220.072 166.343C220.141 166.247 220.184 166.135 220.197 166.018C220.287 165.177 219.965 163.444 219.837 163.104C219.571 162.374 200.165 163.652 200.165 163.652Z" fill="#FBD56F"/>
<path opacity="0.1" fill-rule="evenodd" clip-rule="evenodd" d="M200.165 163.652L199.182 163.104C199.182 163.104 198.725 165.024 198.873 166.39C198.887 166.528 198.943 166.657 199.033 166.762C199.123 166.868 199.242 166.943 199.376 166.979C201.638 167.54 212.4 169.933 219.802 166.564C219.91 166.515 220.003 166.439 220.072 166.343C220.141 166.247 220.184 166.135 220.197 166.018C220.287 165.177 219.965 163.444 219.837 163.104C219.571 162.374 200.165 163.652 200.165 163.652Z" fill="black"/>
<path fill-rule="evenodd" clip-rule="evenodd" d="M209.515 165.433C215.221 165.433 219.847 164.389 219.847 163.101C219.847 161.813 215.221 160.769 209.515 160.769C203.808 160.769 199.182 161.813 199.182 163.101C199.182 164.389 203.808 165.433 209.515 165.433Z" fill="#FBD56F"/>
<path fill-rule="evenodd" clip-rule="evenodd" d="M208.859 159.878L207.879 159.33C207.879 159.33 207.419 161.249 207.569 162.616C207.583 162.753 207.639 162.884 207.729 162.989C207.819 163.094 207.938 163.169 208.072 163.204C210.334 163.766 221.097 166.158 228.499 162.789C228.606 162.74 228.699 162.664 228.768 162.568C228.837 162.473 228.88 162.361 228.893 162.243C228.984 161.403 228.662 159.667 228.534 159.33C228.265 158.597 208.859 159.878 208.859 159.878Z" fill="#FBD56F"/>
<path opacity="0.1" fill-rule="evenodd" clip-rule="evenodd" d="M208.859 159.878L207.879 159.33C207.879 159.33 207.419 161.249 207.569 162.616C207.583 162.753 207.639 162.884 207.729 162.989C207.819 163.094 207.938 163.169 208.072 163.204C210.334 163.766 221.097 166.158 228.499 162.789C228.606 162.74 228.699 162.664 228.768 162.568C228.837 162.473 228.88 162.361 228.893 162.243C228.984 161.403 228.662 159.667 228.534 159.33C228.265 158.597 208.859 159.878 208.859 159.878Z" fill="black"/>
<path fill-rule="evenodd" clip-rule="evenodd" d="M218.209 161.657C223.915 161.657 228.541 160.613 228.541 159.325C228.541 158.036 223.915 156.992 218.209 156.992C212.502 156.992 207.876 158.036 207.876 159.325C207.876 160.613 212.502 161.657 218.209 161.657Z" fill="#FBD56F"/>
<path fill-rule="evenodd" clip-rule="evenodd" d="M202.985 157.334L202.002 156.786C202.002 156.786 201.544 158.705 201.693 160.072C201.707 160.209 201.763 160.339 201.853 160.444C201.943 160.549 202.062 160.625 202.195 160.66C204.457 161.221 215.22 163.614 222.622 160.245C222.729 160.196 222.822 160.12 222.892 160.025C222.961 159.929 223.004 159.817 223.016 159.699C223.107 158.859 222.785 157.123 222.657 156.786C222.391 156.058 202.985 157.334 202.985 157.334Z" fill="#FBD56F"/>
<path opacity="0.1" fill-rule="evenodd" clip-rule="evenodd" d="M202.985 157.334L202.002 156.786C202.002 156.786 201.544 158.705 201.693 160.072C201.707 160.209 201.763 160.339 201.853 160.444C201.943 160.549 202.062 160.625 202.195 160.66C204.457 161.221 215.22 163.614 222.622 160.245C222.729 160.196 222.822 160.12 222.892 160.025C222.961 159.929 223.004 159.817 223.016 159.699C223.107 158.859 222.785 157.123 222.657 156.786C222.391 156.058 202.985 157.334 202.985 157.334Z" fill="black"/>
<path fill-rule="evenodd" clip-rule="evenodd" d="M212.335 159.118C218.041 159.118 222.667 158.074 222.667 156.786C222.667 155.497 218.041 154.453 212.335 154.453C206.628 154.453 202.002 155.497 202.002 156.786C202.002 158.074 206.628 159.118 212.335 159.118Z" fill="#FBD56F"/>
<path fill-rule="evenodd" clip-rule="evenodd" d="M206.906 152.433L205.925 151.884C205.925 151.884 205.465 153.804 205.616 155.17C205.63 155.308 205.686 155.438 205.776 155.543C205.865 155.649 205.985 155.724 206.119 155.759C208.381 156.32 219.144 158.713 226.548 155.344C226.655 155.295 226.748 155.219 226.817 155.123C226.885 155.027 226.928 154.915 226.94 154.798C227.031 153.957 226.709 152.224 226.581 151.884C226.314 151.157 206.906 152.433 206.906 152.433Z" fill="#FBD56F"/>
<path opacity="0.1" fill-rule="evenodd" clip-rule="evenodd" d="M206.906 152.433L205.925 151.884C205.925 151.884 205.465 153.804 205.616 155.17C205.63 155.308 205.686 155.438 205.776 155.543C205.865 155.649 205.985 155.724 206.119 155.759C208.381 156.32 219.144 158.713 226.548 155.344C226.655 155.295 226.748 155.219 226.817 155.123C226.885 155.027 226.928 154.915 226.94 154.798C227.031 153.957 226.709 152.224 226.581 151.884C226.314 151.157 206.906 152.433 206.906 152.433Z" fill="black"/>
<path fill-rule="evenodd" clip-rule="evenodd" d="M216.258 154.217C221.964 154.217 226.591 153.172 226.591 151.884C226.591 150.596 221.964 149.552 216.258 149.552C210.551 149.552 205.925 150.596 205.925 151.884C205.925 153.172 210.551 154.217 216.258 154.217Z" fill="#FBD56F"/>
<path fill-rule="evenodd" clip-rule="evenodd" d="M208.843 146.615L207.861 146.067C207.861 146.067 207.403 147.987 207.552 149.353C207.566 149.49 207.622 149.62 207.712 149.725C207.801 149.83 207.921 149.906 208.054 149.942C210.316 150.503 221.079 152.896 228.481 149.526C228.588 149.478 228.681 149.402 228.75 149.306C228.82 149.21 228.863 149.098 228.875 148.98C228.966 148.14 228.644 146.406 228.516 146.067C228.247 145.34 208.843 146.615 208.843 146.615Z" fill="#FBD56F"/>
<path opacity="0.1" fill-rule="evenodd" clip-rule="evenodd" d="M208.843 146.615L207.861 146.067C207.861 146.067 207.403 147.987 207.552 149.353C207.566 149.49 207.622 149.62 207.712 149.725C207.801 149.83 207.921 149.906 208.054 149.942C210.316 150.503 221.079 152.896 228.481 149.526C228.588 149.478 228.681 149.402 228.75 149.306C228.82 149.21 228.863 149.098 228.875 148.98C228.966 148.14 228.644 146.406 228.516 146.067C228.247 145.34 208.843 146.615 208.843 146.615Z" fill="black"/>
<path fill-rule="evenodd" clip-rule="evenodd" d="M218.191 148.399C223.898 148.399 228.524 147.355 228.524 146.067C228.524 144.779 223.898 143.734 218.191 143.734C212.484 143.734 207.858 144.779 207.858 146.067C207.858 147.355 212.484 148.399 218.191 148.399Z" fill="#FBD56F"/>
<path fill-rule="evenodd" clip-rule="evenodd" d="M226.284 177.667L225.301 177.119C225.301 177.119 224.841 179.038 224.992 180.405C225.007 180.542 225.062 180.672 225.152 180.777C225.242 180.883 225.361 180.958 225.495 180.993C227.757 181.554 238.519 183.947 245.924 180.578C246.031 180.529 246.124 180.452 246.193 180.356C246.261 180.26 246.304 180.147 246.316 180.03C246.409 179.189 246.087 177.456 245.959 177.119C245.69 176.391 226.284 177.667 226.284 177.667Z" fill="#FBD56F"/>
<path opacity="0.1" fill-rule="evenodd" clip-rule="evenodd" d="M226.284 177.667L225.301 177.119C225.301 177.119 224.841 179.038 224.992 180.405C225.007 180.542 225.062 180.672 225.152 180.777C225.242 180.883 225.361 180.958 225.495 180.993C227.757 181.554 238.519 183.947 245.924 180.578C246.031 180.529 246.124 180.452 246.193 180.356C246.261 180.26 246.304 180.147 246.316 180.03C246.409 179.189 246.087 177.456 245.959 177.119C245.69 176.391 226.284 177.667 226.284 177.667Z" fill="black"/>
<path fill-rule="evenodd" clip-rule="evenodd" d="M235.634 179.451C241.341 179.451 245.967 178.407 245.967 177.119C245.967 175.83 241.341 174.786 235.634 174.786C229.927 174.786 225.301 175.83 225.301 177.119C225.301 178.407 229.927 179.451 235.634 179.451Z" fill="#FBD56F"/>
<path fill-rule="evenodd" clip-rule="evenodd" d="M229.773 173.146L228.79 172.597C228.79 172.597 228.333 174.517 228.481 175.883C228.496 176.021 228.552 176.15 228.641 176.256C228.731 176.361 228.851 176.436 228.984 176.472C231.246 177.033 242.008 179.426 249.41 176.057C249.518 176.008 249.611 175.932 249.68 175.836C249.749 175.74 249.792 175.628 249.805 175.511C249.896 174.67 249.574 172.934 249.446 172.597C249.179 171.87 229.773 173.146 229.773 173.146Z" fill="#FBD56F"/>
<path opacity="0.1" fill-rule="evenodd" clip-rule="evenodd" d="M229.773 173.146L228.79 172.597C228.79 172.597 228.333 174.517 228.481 175.883C228.496 176.021 228.552 176.15 228.641 176.256C228.731 176.361 228.851 176.436 228.984 176.472C231.246 177.033 242.008 179.426 249.41 176.057C249.518 176.008 249.611 175.932 249.68 175.836C249.749 175.74 249.792 175.628 249.805 175.511C249.896 174.67 249.574 172.934 249.446 172.597C249.179 171.87 229.773 173.146 229.773 173.146Z" fill="black"/>
<path fill-rule="evenodd" clip-rule="evenodd" d="M239.123 174.93C244.829 174.93 249.455 173.885 249.455 172.597C249.455 171.309 244.829 170.265 239.123 170.265C233.416 170.265 228.79 171.309 228.79 172.597C228.79 173.885 233.416 174.93 239.123 174.93Z" fill="#FBD56F"/>
<path fill-rule="evenodd" clip-rule="evenodd" d="M225.907 168.432L224.927 167.886C224.927 167.886 224.467 169.804 224.618 171.172C224.632 171.31 224.687 171.44 224.777 171.544C224.867 171.649 224.987 171.724 225.12 171.759C227.383 172.322 238.145 174.715 245.55 171.343C245.657 171.295 245.75 171.219 245.818 171.123C245.887 171.027 245.93 170.915 245.942 170.797C246.032 169.957 245.71 168.223 245.582 167.886C245.316 167.174 225.907 168.432 225.907 168.432Z" fill="#FBD56F"/>
<path opacity="0.1" fill-rule="evenodd" clip-rule="evenodd" d="M225.907 168.432L224.927 167.886C224.927 167.886 224.467 169.804 224.618 171.172C224.632 171.31 224.687 171.44 224.777 171.544C224.867 171.649 224.987 171.724 225.12 171.759C227.383 172.322 238.145 174.715 245.55 171.343C245.657 171.295 245.75 171.219 245.818 171.123C245.887 171.027 245.93 170.915 245.942 170.797C246.032 169.957 245.71 168.223 245.582 167.886C245.316 167.174 225.907 168.432 225.907 168.432Z" fill="black"/>
<path fill-rule="evenodd" clip-rule="evenodd" d="M235.259 170.224C240.966 170.224 245.592 169.18 245.592 167.892C245.592 166.604 240.966 165.56 235.259 165.56C229.553 165.56 224.927 166.604 224.927 167.892C224.927 169.18 229.553 170.224 235.259 170.224Z" fill="#FBD56F"/>
<path fill-rule="evenodd" clip-rule="evenodd" d="M234.604 164.659L233.621 164.113C233.621 164.113 233.161 166.03 233.312 167.384C233.326 167.522 233.381 167.652 233.471 167.757C233.561 167.862 233.681 167.937 233.814 167.973C236.076 168.536 246.839 170.927 254.243 167.558C254.351 167.509 254.443 167.433 254.512 167.337C254.581 167.241 254.624 167.129 254.635 167.012C254.726 166.171 254.407 164.438 254.279 164.1C254.01 163.401 234.604 164.659 234.604 164.659Z" fill="#FBD56F"/>
<path opacity="0.1" fill-rule="evenodd" clip-rule="evenodd" d="M234.604 164.659L233.621 164.113C233.621 164.113 233.161 166.03 233.312 167.384C233.326 167.522 233.381 167.652 233.471 167.757C233.561 167.862 233.681 167.937 233.814 167.973C236.076 168.536 246.839 170.927 254.243 167.558C254.351 167.509 254.443 167.433 254.512 167.337C254.581 167.241 254.624 167.129 254.635 167.012C254.726 166.171 254.407 164.438 254.279 164.1C254.01 163.401 234.604 164.659 234.604 164.659Z" fill="black"/>
<path fill-rule="evenodd" clip-rule="evenodd" d="M243.954 166.447C249.66 166.447 254.286 165.403 254.286 164.115C254.286 162.827 249.66 161.782 243.954 161.782C238.247 161.782 233.621 162.827 233.621 164.115C233.621 165.403 238.247 166.447 243.954 166.447Z" fill="#FBD56F"/>
<path fill-rule="evenodd" clip-rule="evenodd" d="M228.727 162.122L227.747 161.576C227.747 161.576 227.287 163.493 227.438 164.862C227.452 164.999 227.508 165.129 227.598 165.234C227.687 165.338 227.807 165.413 227.94 165.448C230.202 166.012 240.965 168.402 248.369 165.033C248.477 164.984 248.569 164.908 248.638 164.812C248.707 164.717 248.75 164.604 248.761 164.487C248.852 163.647 248.53 161.913 248.402 161.576C248.136 160.849 228.727 162.122 228.727 162.122Z" fill="#FBD56F"/>
<path opacity="0.1" fill-rule="evenodd" clip-rule="evenodd" d="M228.727 162.122L227.747 161.576C227.747 161.576 227.287 163.493 227.438 164.862C227.452 164.999 227.508 165.129 227.598 165.234C227.687 165.338 227.807 165.413 227.94 165.448C230.202 166.012 240.965 168.402 248.369 165.033C248.477 164.984 248.569 164.908 248.638 164.812C248.707 164.717 248.75 164.604 248.761 164.487C248.852 163.647 248.53 161.913 248.402 161.576C248.136 160.849 228.727 162.122 228.727 162.122Z" fill="black"/>
<path fill-rule="evenodd" clip-rule="evenodd" d="M238.08 163.909C243.786 163.909 248.412 162.865 248.412 161.577C248.412 160.288 243.786 159.244 238.08 159.244C232.373 159.244 227.747 160.288 227.747 161.577C227.747 162.865 232.373 163.909 238.08 163.909Z" fill="#FBD56F"/>
<path fill-rule="evenodd" clip-rule="evenodd" d="M232.651 157.221L231.668 156.675C231.668 156.675 231.208 158.592 231.359 159.961C231.373 160.098 231.429 160.228 231.519 160.333C231.608 160.439 231.728 160.514 231.862 160.549C234.124 161.11 244.886 163.503 252.288 160.132C252.396 160.083 252.488 160.007 252.558 159.911C252.627 159.815 252.67 159.703 252.683 159.586C252.773 158.745 252.452 157.012 252.323 156.675C252.057 155.947 232.651 157.221 232.651 157.221Z" fill="#FBD56F"/>
<path opacity="0.1" fill-rule="evenodd" clip-rule="evenodd" d="M232.651 157.221L231.668 156.675C231.668 156.675 231.208 158.592 231.359 159.961C231.373 160.098 231.429 160.228 231.519 160.333C231.608 160.439 231.728 160.514 231.862 160.549C234.124 161.11 244.886 163.503 252.288 160.132C252.396 160.083 252.488 160.007 252.558 159.911C252.627 159.815 252.67 159.703 252.683 159.586C252.773 158.745 252.452 157.012 252.323 156.675C252.057 155.947 232.651 157.221 232.651 157.221Z" fill="black"/>
<path fill-rule="evenodd" clip-rule="evenodd" d="M242.001 159.008C247.707 159.008 252.333 157.963 252.333 156.675C252.333 155.387 247.707 154.343 242.001 154.343C236.294 154.343 231.668 155.387 231.668 156.675C231.668 157.963 236.294 159.008 242.001 159.008Z" fill="#FBD56F"/>
<path fill-rule="evenodd" clip-rule="evenodd" d="M234.583 151.403L233.603 150.857C233.603 150.857 233.143 152.774 233.294 154.143C233.308 154.281 233.364 154.411 233.454 154.516C233.544 154.621 233.663 154.696 233.797 154.732C236.059 155.293 246.821 157.686 254.226 154.314C254.333 154.266 254.426 154.19 254.495 154.094C254.563 153.998 254.606 153.886 254.618 153.768C254.708 152.928 254.387 151.194 254.258 150.857C253.992 150.13 234.583 151.403 234.583 151.403Z" fill="#FBD56F"/>
<path opacity="0.1" fill-rule="evenodd" clip-rule="evenodd" d="M234.583 151.403L233.603 150.857C233.603 150.857 233.143 152.774 233.294 154.143C233.308 154.281 233.364 154.411 233.454 154.516C233.544 154.621 233.663 154.696 233.797 154.732C236.059 155.293 246.821 157.686 254.226 154.314C254.333 154.266 254.426 154.19 254.495 154.094C254.563 153.998 254.606 153.886 254.618 153.768C254.708 152.928 254.387 151.194 254.258 150.857C253.992 150.13 234.583 151.403 234.583 151.403Z" fill="black"/>
<path fill-rule="evenodd" clip-rule="evenodd" d="M243.936 153.19C249.643 153.19 254.269 152.146 254.269 150.858C254.269 149.57 249.643 148.525 243.936 148.525C238.23 148.525 233.604 149.57 233.604 150.858C233.604 152.146 238.23 153.19 243.936 153.19Z" fill="#FBD56F"/>
<path opacity="0.1" fill-rule="evenodd" clip-rule="evenodd" d="M258.298 150.125C258.298 150.125 253.583 152.354 253.17 153.336C252.758 154.317 258.298 150.125 258.298 150.125Z" fill="black"/>
<path opacity="0.1" fill-rule="evenodd" clip-rule="evenodd" d="M257.996 152.991C257.996 152.991 253.723 154.803 253.15 155.256C252.577 155.709 257.996 152.991 257.996 152.991Z" fill="black"/>
<path opacity="0.1" fill-rule="evenodd" clip-rule="evenodd" d="M256.035 156.858C256.035 156.858 254.148 158.267 253.105 157.16C252.062 156.053 256.035 156.858 256.035 156.858Z" fill="black"/>
<path fill-rule="evenodd" clip-rule="evenodd" d="M212.583 191.548C217.797 191.548 222.024 187.057 222.024 181.516C222.024 175.976 217.797 171.484 212.583 171.484C207.37 171.484 203.143 175.976 203.143 181.516C203.143 187.057 207.37 191.548 212.583 191.548Z" fill="#FBD56F"/>
<path opacity="0.1" fill-rule="evenodd" clip-rule="evenodd" d="M212.583 191.548C217.797 191.548 222.024 187.057 222.024 181.516C222.024 175.976 217.797 171.484 212.583 171.484C207.37 171.484 203.143 175.976 203.143 181.516C203.143 187.057 207.37 191.548 212.583 191.548Z" fill="black"/>
<path fill-rule="evenodd" clip-rule="evenodd" d="M214.212 191.548C219.426 191.548 223.653 187.157 223.653 181.74C223.653 176.324 219.426 171.933 214.212 171.933C208.999 171.933 204.772 176.324 204.772 181.74C204.772 187.157 208.999 191.548 214.212 191.548Z" fill="#FBD56F"/>
<path fill-rule="evenodd" clip-rule="evenodd" d="M22.6558 187.029C29.0953 187.029 34.3156 186.146 34.3156 185.057C34.3156 183.967 29.0953 183.084 22.6558 183.084C16.2163 183.084 10.9961 183.967 10.9961 185.057C10.9961 186.146 16.2163 187.029 22.6558 187.029Z" fill="#FA7268"/>
<path fill-rule="evenodd" clip-rule="evenodd" d="M27.4766 181.828C27.9793 181.363 28.4443 180.822 28.5901 180.147C28.7358 179.473 28.4493 178.683 27.8134 178.439C27.0996 178.165 26.3355 178.66 25.7574 179.161C25.1794 179.662 24.5183 180.23 23.7618 180.125C24.151 179.772 24.4421 179.324 24.6069 178.825C24.7716 178.325 24.8043 177.792 24.7018 177.276C24.6719 177.064 24.5851 176.864 24.4505 176.698C24.0559 176.275 23.337 176.446 22.862 176.791C21.3539 177.853 20.9342 179.903 20.9267 181.748C20.7733 181.081 20.9015 180.389 20.899 179.705C20.8965 179.02 20.708 178.265 20.145 177.898C19.7861 177.706 19.3831 177.611 18.9762 177.624C18.2976 177.599 17.5436 177.666 17.0811 178.162C16.5056 178.781 16.6539 179.815 17.154 180.495C17.6542 181.174 18.4107 181.597 19.117 182.067C19.6785 182.403 20.1578 182.86 20.5195 183.406C20.5626 183.486 20.5971 183.57 20.6225 183.657H24.8727C25.8191 183.168 26.695 182.553 27.4766 181.828Z" fill="#FA7268"/>
<path fill-rule="evenodd" clip-rule="evenodd" d="M145.726 116.341L145.404 144.214L148.371 180.095H152.404L157.23 146.991L162.749 113.831L145.726 116.341Z" fill="#B643D5"/>
<path fill-rule="evenodd" clip-rule="evenodd" d="M152.38 180.059V181.798L148.019 183.982L145.838 181.798L148.019 179.614H152.38V180.059Z" fill="#273140"/>
<path fill-rule="evenodd" clip-rule="evenodd" d="M173.378 116.341L173.458 132.467L170.737 180.095H166.704L159.957 148.489L156.355 113.831L173.378 116.341Z" fill="#B643D5"/>
<path fill-rule="evenodd" clip-rule="evenodd" d="M166.728 180.059V181.798L171.089 183.982L173.27 181.798L171.089 179.614H166.728V180.059Z" fill="#273140"/>
<path fill-rule="evenodd" clip-rule="evenodd" d="M177.573 126.05C177.659 128.609 177.604 132.031 176.528 132.159C176.327 132.183 176.133 132.094 175.955 132.008C174.085 131.098 172.751 129.811 170.907 128.932C168.975 128.011 166.778 127.528 164.632 127.196C161.43 126.684 158.176 126.376 154.954 126.347C152.185 126.323 149.305 127.588 146.687 128.283C145.679 128.551 144.859 129.286 144.022 129.863C142.785 130.715 142.243 131.052 142.412 129.312C142.687 126.472 142.973 123.632 143.322 120.8C144.018 115.151 144.965 109.516 146.568 104.047C147.18 101.958 147.887 99.8981 148.593 97.8391C149.453 95.3321 150.313 92.8241 151.172 90.3161C152.241 87.2001 154.045 85.0041 157.203 83.9141C159.933 82.9721 163.323 82.7141 165.978 84.0331C168.929 85.4991 170.333 90.4941 171.766 93.1631C173.023 95.5021 174.606 101.881 175.077 104.402C175.643 107.437 176.165 110.458 176.577 113.47C177.033 116.807 177.355 120.134 177.448 123.441C177.458 123.807 177.532 124.829 177.573 126.05Z" fill="#B643D5"/>
<path fill-rule="evenodd" clip-rule="evenodd" d="M162.995 84.475L157.544 84.527C157.544 84.527 151.696 104.994 151.481 108.521C151.27 111.984 149.792 126.026 149.792 126.026C149.792 126.026 155.828 126.168 162.783 127.017C169.582 128.474 170.153 127.612 170.153 127.612C170.153 127.612 166.484 112.854 166.362 108.614C166.237 104.277 165.683 89.953 165.683 89.953L162.995 84.475Z" fill="white"/>
<path fill-rule="evenodd" clip-rule="evenodd" d="M162.205 84.809H159.522C158.895 84.809 158.54 85.527 158.92 86.026L160.022 87.471L157.091 114.544L160.698 118.095L163.178 113.879L162.502 87.472L162.938 85.753C163.06 85.274 162.699 84.809 162.205 84.809Z" fill="#2E4661"/>
<path fill-rule="evenodd" clip-rule="evenodd" d="M159.689 84.581C159.753 84.636 159.827 84.68 159.912 84.708C160.082 84.764 160.265 84.744 160.442 84.723C161.163 84.637 161.884 84.552 162.605 84.467C162.368 82.256 163.658 81.756 164.916 80.334C166.191 78.892 165.798 76.948 165.727 75.184C165.706 74.693 165.682 74.187 165.475 73.741C165.111 72.959 164.263 72.527 163.44 72.271C161.34 71.617 158.938 71.778 157.089 72.97C156.597 73.288 156.138 73.686 155.871 74.208C155.46 75.012 155.565 75.972 155.679 76.869C155.855 78.246 156.262 79.599 157.04 80.76C157.765 81.842 159.147 82.36 159.306 83.658C159.347 83.994 159.448 84.371 159.689 84.581Z" fill="#E7CAAD"/>
<path fill-rule="evenodd" clip-rule="evenodd" d="M155.74 75.2671C155.863 75.8231 156.121 76.3851 155.987 76.9371C155.105 76.6381 154.529 75.7351 154.217 74.8181C154.076 74.4021 153.973 73.9611 154.009 73.5211C154.044 73.0811 154.235 72.6391 154.582 72.3911C155.066 72.0431 155.934 72.1801 156.073 72.8091C156.213 73.4431 155.555 74.4311 155.74 75.2671Z" fill="#3A3029"/>
<path fill-rule="evenodd" clip-rule="evenodd" d="M151.061 70.387C151.082 69.721 151.336 69.126 151.93 68.725C152.442 68.378 153.032 68.091 153.343 67.54C153.585 67.113 153.62 66.584 153.86 66.155C154.293 65.379 155.233 65.151 156.052 64.887C158.098 64.229 159.2 63.469 161.368 64.312C162.909 64.911 164.901 64.991 166.331 65.865C166.929 66.23 167.437 66.816 167.854 67.469C169.299 69.732 169.646 72.913 168.705 75.273C168.494 75.801 168.227 76.287 167.94 76.752C167.368 77.682 166.755 78.827 165.742 79.282C165.678 78.844 165.352 78.602 165.25 78.171C165.177 77.861 165.202 77.536 165.218 77.218C165.28 75.977 165.66 74.015 164.423 73.4C162.858 72.622 159.923 73.323 158.416 73.982C157.082 74.565 154.832 75.323 153.41 74.699C152.09 74.119 151.017 71.809 151.061 70.387Z" fill="#3A3029"/>
<path fill-rule="evenodd" clip-rule="evenodd" d="M184.173 36.646C184.173 36.646 165.986 58.359 165.714 58.964C165.441 59.569 158.956 48.64 158.956 48.64L145.295 66.475L139.224 59.662L128.33 74.049L138.898 65.505L145.585 72.906L157.963 58.08L164.674 69.386L190.521 41.177L184.173 36.646Z" fill="#FA7268"/>
<path fill-rule="evenodd" clip-rule="evenodd" d="M172.109 39.577L192.988 31.811L189.231 54.319L172.109 39.577Z" fill="#FA7268"/>
<path fill-rule="evenodd" clip-rule="evenodd" d="M155.931 84.675L140.104 89.563L143.506 74.011L138.625 72.233L131.082 91.784L135.667 97.709L151.641 95.635L155.931 84.675Z" fill="#B643D5"/>
<path fill-rule="evenodd" clip-rule="evenodd" d="M164.743 83.75L181.891 82.548L177.528 63.902L181.748 60.871L191.177 82.247L188.36 89.192L171.828 93.144L164.743 83.75Z" fill="#B643D5"/>
<path fill-rule="evenodd" clip-rule="evenodd" d="M139.61 72.706L139.217 68.207L142.032 64.985L143.506 66.328L142.828 69.667L143.558 70.475L142.246 73.666C142.246 73.666 139.601 72.642 139.61 72.706Z" fill="#E7CAAD"/>
<path fill-rule="evenodd" clip-rule="evenodd" d="M180.756 61.582L181.102 56.656L177.123 53.571L175.454 55.756L177.251 58.97L176.609 60.641L178.373 63.294L180.756 61.582Z" fill="#E7CAAD"/>
<path fill-rule="evenodd" clip-rule="evenodd" d="M123.391 84.675L126.497 85.563L138.034 100.523L137.59 109.41L135.223 110.446L123.391 84.675Z" fill="#B643D5"/>
<path fill-rule="evenodd" clip-rule="evenodd" d="M127.835 179.099L131.218 181.498L132.346 183.333C132.346 183.333 131.077 183.898 130.372 184.039C129.667 184.18 124.17 183.333 124.17 183.333V180.087L127.835 179.099Z" fill="#273140"/>
<path fill-rule="evenodd" clip-rule="evenodd" d="M115.572 180.651L117.404 182.486C117.404 182.486 118.955 185.027 118.25 185.027C117.545 185.027 113.739 185.45 113.457 185.027C113.176 184.604 111.061 183.192 110.779 182.91C110.497 182.628 110.628 180.152 110.628 180.152L115.572 180.651Z" fill="#273140"/>
<path fill-rule="evenodd" clip-rule="evenodd" d="M122.056 131.107L119.659 155.244L115.571 180.652H110.638L110.074 154.115C110.074 154.115 106.212 130.828 105.79 123.629L122.056 131.107Z" fill="#B643D5"/>
<path fill-rule="evenodd" clip-rule="evenodd" d="M133.332 131.53L129.104 180.087H124.029L122.478 155.244L119.565 133.25L130.654 120.238L133.332 131.53Z" fill="#B643D5"/>
<path fill-rule="evenodd" clip-rule="evenodd" d="M134.336 109.41C133.543 106.551 132.916 103.649 132.38 100.733C131.911 98.1881 131.727 95.4491 130.623 93.0771C129.519 90.7041 127.434 88.9071 125.825 86.8901C125.143 86.0351 124.415 85.1451 123.402 84.7381C122.707 84.4591 121.94 84.4341 121.192 84.4121C118.922 84.3471 116.652 84.2821 114.383 84.2161C113.555 84.1921 112.694 84.1751 111.94 84.5161C110.81 85.0281 110.171 86.2171 109.612 87.3261C108.185 90.1591 107.922 93.3011 107.794 96.5031C107.799 96.5331 108.449 105.126 106.973 111.928C105.503 118.697 103.459 130.439 103.57 138.431C103.59 138.496 103.611 138.562 103.632 138.626C104.949 137.761 106.024 136.717 107.432 135.963C109.185 135.023 111.191 134.524 113.158 134.174C116.099 133.636 119.106 133.302 122.102 133.25C124.458 133.209 126.825 133.41 129.171 133.605C131.123 133.768 132.939 134.347 134.928 134.209C136.113 134.127 137.287 133.88 138.405 133.478C138.629 123.924 135.075 112.076 134.336 109.41Z" fill="#B643D5"/>
<path fill-rule="evenodd" clip-rule="evenodd" d="M115.854 84.385H114.021V86.502L122.619 104.711L123.324 96.383L120.505 84.667L115.854 84.385Z" fill="white"/>
<path fill-rule="evenodd" clip-rule="evenodd" d="M123.195 97.908C123.108 97.163 123.007 96.499 122.892 95.962C122.1 92.258 118.948 87.633 118.948 87.633C118.948 87.633 118.664 86.582 118.532 85.656L116.276 85.515L116.647 87.821L117.704 88.73C117.704 88.73 120.911 97.417 121.307 100.989C121.348 101.364 121.381 101.751 121.406 102.142L122.62 104.711L123.195 97.908Z" fill="#2E4661"/>
<path fill-rule="evenodd" clip-rule="evenodd" d="M124.17 111.91L121.069 133.224L126.566 133.648H130.372L126.002 115.157L124.17 111.91Z" fill="white"/>
<path fill-rule="evenodd" clip-rule="evenodd" d="M118.873 85.687C117.61 85.632 116.347 85.577 115.083 85.522C115.015 84.515 115.028 83.502 115.121 82.496C114.053 82.186 112.812 81.7 112.569 80.614C112.493 80.272 112.533 79.915 112.573 79.567C112.74 78.127 112.907 76.687 113.074 75.247C113.132 74.749 113.195 74.237 113.439 73.799C113.868 73.031 114.762 72.656 115.618 72.458C117.803 71.952 120.232 72.297 122.023 73.649C122.499 74.008 122.936 74.448 123.168 74.999C123.525 75.848 123.347 76.816 123.163 77.719C122.993 78.552 122.823 79.385 122.653 80.218C122.458 81.176 122.16 82.27 121.271 82.674C120.798 82.889 120.226 82.866 119.804 83.168C119.061 83.702 119.229 84.843 118.873 85.687Z" fill="#E7CAAD"/>
<path fill-rule="evenodd" clip-rule="evenodd" d="M125.872 67.388C125.592 67.338 125.306 67.278 125.016 67.152C124.101 66.753 123.459 65.953 122.488 65.579C120.522 64.822 118.057 64.932 116.126 65.745C114.278 66.523 111.756 66.822 110.103 67.868C109.412 68.305 108.878 68.957 108.473 69.667C107.069 72.127 107.242 75.402 108.897 77.7C109.268 78.216 109.704 78.682 110.16 79.124C111.103 80.041 112.232 81.174 113.476 81.464C113.444 80.367 112.256 76.967 113.047 76.022C114.095 74.769 116.153 74.801 117.628 74.939C119.385 75.104 120.832 74.539 122.584 74.627C123.477 74.671 124.486 74.851 125.171 74.275C125.962 73.61 127.635 71.497 128.031 70.569C128.379 69.757 128.147 68.757 127.543 68.113C127.022 67.557 126.46 67.493 125.872 67.388Z" fill="#3A3029"/>
<path fill-rule="evenodd" clip-rule="evenodd" d="M96.2 95.042L102.05 110.78L96.341 119.108L95.213 99.135L96.2 95.042Z" fill="#B643D5"/>
<path fill-rule="evenodd" clip-rule="evenodd" d="M80.859 181.066C80.327 180.726 79.779 180.608 79.253 180.835C78.747 181.053 78.364 181.525 78.267 182.049C78.202 182.406 78.262 182.77 78.322 183.125C78.635 184.963 79.751 189.231 82.358 189.208C83.453 189.199 84.119 188.262 84.16 187.286C84.222 185.816 82.636 182.202 80.859 181.066Z" fill="#363636"/>
<path fill-rule="evenodd" clip-rule="evenodd" d="M85.557 157.784L85.134 162.442L82.033 181.357L82.597 184.18C82.597 184.18 82.315 185.732 80.765 185.45C80.145 185.337 78.65 182.204 78.65 182.204L79.073 180.933L78.65 167.383L79.637 161.595L78.65 156.938L85.557 157.784Z" fill="#E7CAAD"/>
<path fill-rule="evenodd" clip-rule="evenodd" d="M95.84 186.509L92.349 183.28C91.336 182.767 90.265 182.408 89.397 182.419C88.767 182.427 88.243 182.63 87.928 183.109C87.625 183.569 87.563 184.175 87.77 184.666C87.845 184.845 87.952 185.006 88.073 185.157C88.073 185.157 88.074 185.159 88.075 185.159C88.179 185.289 88.292 185.413 88.406 185.535C88.478 185.612 88.557 185.696 88.642 185.782C89.364 186.567 90.574 187.843 91.055 188.132C91.76 188.555 93.31 189.685 95.143 188.414C95.136 188.408 95.128 188.402 95.121 188.396C95.787 187.945 95.983 187.202 95.84 186.509Z" fill="#363636"/>
<path fill-rule="evenodd" clip-rule="evenodd" d="M93.1 158.391L92.818 162.443L91.435 182.168L92.818 184.463C92.818 184.463 93.1 186.297 90.986 186.156C90.357 186.114 88.129 183.278 88.129 183.278L88.451 181.979L86.967 168.503L86.898 162.866L86.148 158.09L93.1 158.391Z" fill="#E7CAAD"/>
<path fill-rule="evenodd" clip-rule="evenodd" d="M81.203 90.839L91.055 91.443L96.227 95.147C96.227 95.147 95.933 111.737 96.227 117.873C96.521 124.009 96.999 128.991 97.668 137.964C98.404 147.837 96.067 159.761 96.067 159.761H75.575C75.575 159.761 71.064 137.333 73.121 131.47C75.178 125.607 75.972 119.929 75.972 115.157C75.972 110.384 73.858 95.254 73.858 95.254L81.203 90.839Z" fill="white"/>
<path fill-rule="evenodd" clip-rule="evenodd" d="M73.294 94.69C73.294 94.69 75.837 112.116 75.972 115.157C76.108 118.198 72.589 130.402 72.589 130.402L88.8 132.519C88.8 132.519 91.919 118.358 92.605 111.911C93.292 105.464 81.188 90.879 81.188 90.879L73.294 94.69Z" fill="#B643D5"/>
<path fill-rule="evenodd" clip-rule="evenodd" d="M92.887 91.4891L96.27 95.1141C96.27 95.1141 96.705 114.691 96.578 117.731C96.452 120.772 99.109 130.443 99.109 130.443L93.874 132.237C93.874 132.237 91.272 122.451 90.632 116.004C89.991 109.557 90.111 91.3411 90.111 91.3411L92.887 91.4891Z" fill="#B643D5"/>
<path fill-rule="evenodd" clip-rule="evenodd" d="M90.489 83.721C91.066 85.34 90.232 87.066 89.498 88.542C89.199 89.145 88.726 89.989 89.238 90.6C89.811 91.284 91.057 91.024 91.562 90.428C91.919 90.008 92.064 89.468 92.185 88.943C92.727 86.592 93.483 83.3 93.063 80.919C92.726 79.009 90.061 75.805 87.744 77.247C87.323 77.509 87.078 77.951 86.873 78.383C86.751 78.641 86.635 78.91 86.631 79.192C86.617 80.316 87.716 80.506 88.475 81.041C89.411 81.701 90.12 82.687 90.489 83.721Z" fill="#514943"/>
<path fill-rule="evenodd" clip-rule="evenodd" d="M86.975 90.041C88.578 89.688 89.831 88.431 90.433 86.999C91.035 85.567 91.067 83.979 90.9 82.449C90.346 77.356 83.565 77.683 81.268 81.586C79.267 84.988 82.315 91.067 86.975 90.041Z" fill="#E7CAAD"/>
<path fill-rule="evenodd" clip-rule="evenodd" d="M81.778 83.9679C81.778 84.5909 81.523 85.2749 81.494 85.9169C81.44 87.0999 81.838 88.5919 81.507 89.6979C80.308 89.6429 78.8 89.0309 77.849 88.2959C76.878 87.5459 76.928 86.2949 76.617 85.0889C76.33 83.9729 75.991 82.8559 75.952 81.7039C75.741 75.3969 81.684 71.4009 87.448 73.7339C89.629 74.6169 90.785 77.2559 89.413 79.1819C87.938 81.2539 84.513 80.7229 82.667 82.3289C82.257 82.6849 81.971 83.2839 81.778 83.9679Z" fill="#514943"/>
<path fill-rule="evenodd" clip-rule="evenodd" d="M87.063 89.503C87.015 89.89 86.967 90.277 86.919 90.665C86.897 90.842 86.956 91.339 86.817 91.472C86.745 91.541 86.628 91.543 86.524 91.54C86.228 91.53 83.576 91.432 83.59 91.263C83.626 90.808 83.672 90.362 83.773 89.922C83.855 89.566 83.839 88.913 84.024 88.632C84.497 88.897 84.974 89.044 85.512 89.145C86.031 89.243 86.552 89.332 87.074 89.413C87.07 89.443 87.067 89.473 87.063 89.503Z" fill="#E7CAAD"/>
<g opacity="0.1">
<path opacity="0.1" fill-rule="evenodd" clip-rule="evenodd" d="M106.36 109.823C106.138 109.578 105.962 109.282 105.845 108.992C105.644 108.493 105.59 107.93 105.705 107.407C105.754 107.18 105.955 107.014 106.192 107.054C106.409 107.091 106.595 107.323 106.545 107.551C106.43 108.076 106.534 108.616 106.84 109.055C106.928 108.976 107.023 108.905 107.124 108.844C107.494 108.621 108.06 108.34 108.447 108.68C108.883 109.064 108.697 109.676 108.305 109.991C107.994 110.239 107.588 110.404 107.197 110.341C107.309 110.86 107.513 111.093 108.029 111.134C108.344 111.159 109.094 111.079 109.266 110.747C109.377 110.531 109.244 109.979 109.245 109.722C109.248 109.009 109.327 108.298 109.479 107.603C109.788 106.194 110.394 104.867 111.2 103.684C113.02 101.013 115.778 99.096 118.721 97.882C118.884 97.815 119.047 97.75 119.211 97.687C121.25 96.905 123.329 96.529 125.346 96.555C125.621 95.774 126.038 95.05 126.6 94.446C127.854 93.1 129.856 92.446 131.618 92.993C130.704 94.716 130.149 97.026 130.062 97.404C132.163 98.169 134.078 99.448 135.654 101.236C135.687 101.274 135.718 101.309 135.747 101.344L138.124 101.226C138.124 101.226 138.023 104.634 137.813 106.123C137.813 106.123 138.145 108.231 137.126 108.76C136.722 110.801 135.718 112.795 134.229 114.544C134.13 114.659 134.029 114.774 133.926 114.887L135.277 118.418C135.277 118.418 132.828 120.414 131.297 120.474L129.536 118.3C128.877 118.655 128.185 118.974 127.462 119.251C126.606 119.58 125.748 119.846 124.896 120.051L125.037 122.875C123.859 123.855 120.705 124.009 120.705 124.009L119.355 120.48C115.124 120.063 111.582 117.799 109.973 113.596C109.836 113.238 109.719 112.88 109.622 112.524C108.976 112.646 108.307 112.614 107.702 112.305C107.237 112.066 106.888 111.704 106.649 111.236C106.433 110.812 106.24 110.299 106.36 109.823Z" fill="black"/>
</g>
<path fill-rule="evenodd" clip-rule="evenodd" d="M105.884 108.809C105.657 108.565 105.479 108.27 105.362 107.98C105.16 107.481 105.113 106.916 105.238 106.388C105.292 106.16 105.503 105.99 105.747 106.027C105.97 106.062 106.16 106.293 106.105 106.522C105.98 107.052 106.08 107.593 106.39 108.03C106.482 107.949 106.582 107.877 106.687 107.814C107.073 107.585 107.662 107.295 108.058 107.632C108.504 108.012 108.304 108.629 107.894 108.951C107.569 109.205 107.147 109.376 106.743 109.318C106.852 109.837 107.059 110.069 107.594 110.104C107.918 110.125 108.695 110.035 108.878 109.698C108.996 109.48 108.866 108.926 108.87 108.668C108.883 107.952 108.974 107.236 109.141 106.536C109.478 105.115 110.124 103.773 110.974 102.573C112.892 99.864 115.772 97.901 118.833 96.642C119.002 96.572 119.171 96.505 119.342 96.439C121.462 95.626 123.618 95.221 125.705 95.22C125.999 94.431 126.44 93.698 127.03 93.084C128.346 91.714 130.426 91.03 132.241 91.556C131.273 93.301 130.668 95.63 130.573 96.011C132.738 96.752 134.702 98.012 136.309 99.788C136.342 99.825 136.373 99.86 136.404 99.895L138.865 99.744C138.865 99.744 140.723 104.131 140.487 105.631C140.487 105.631 138.793 106.785 137.732 107.33C137.287 109.387 136.222 111.405 134.657 113.182C134.553 113.299 134.447 113.416 134.34 113.531L135.691 117.062C135.691 117.062 133.13 119.101 131.546 119.181L129.751 117.019C129.065 117.385 128.345 117.715 127.592 118.004C126.703 118.345 125.811 118.624 124.927 118.841L125.036 121.678C123.803 122.679 120.538 122.875 120.538 122.875L119.188 119.346C114.816 118.983 111.181 116.756 109.572 112.552C109.435 112.194 109.319 111.836 109.223 111.48C108.553 111.61 107.861 111.588 107.24 111.285C106.761 111.051 106.405 110.692 106.164 110.224C105.946 109.802 105.753 109.288 105.884 108.809Z" fill="#E498B5"/>
<path fill-rule="evenodd" clip-rule="evenodd" d="M124.105 96.324L124.108 97.776C124.108 97.776 119.611 98.217 115.73 100.99L114.467 100.444C114.467 100.444 117.466 96.133 124.105 96.324Z" fill="#C27098"/>
<path opacity="0.03" fill-rule="evenodd" clip-rule="evenodd" d="M109.978 112.89C112.572 115.291 116.162 116.301 119.682 116.435C122.288 116.535 125.013 116.247 127.546 115.43C131.211 114.248 134.211 111.888 136.895 109.25C137.014 109.134 137.128 109.015 137.241 108.896C136.678 110.374 135.801 111.802 134.657 113.102C132.884 115.115 130.47 116.82 127.593 117.924C119.939 120.86 112.19 119.212 109.594 112.526C109.718 112.651 109.848 112.77 109.978 112.89Z" fill="black"/>
<path opacity="0.03" fill-rule="evenodd" clip-rule="evenodd" d="M136.473 99.976C136.473 99.976 139.315 104.018 137.731 107.33L138.786 106.728C138.786 106.728 138.984 102.23 136.473 99.976Z" fill="black"/>
<path fill-rule="evenodd" clip-rule="evenodd" d="M104.237 88.896L100.243 108.002L102.906 111.705L123.021 117.333L124.648 113.482L107.934 104.299L111.484 93.339L112.002 84.526L104.237 88.896Z" fill="#B643D5"/>
<path fill-rule="evenodd" clip-rule="evenodd" d="M124.429 114.001L126.941 112.076L128.568 111.928L128.716 112.372L127.828 113.113L129.455 112.965L131.23 112.52L131.822 113.853L127.68 117.408L123.401 116.435L124.429 114.001Z" fill="#E7CAAD"/>
<g opacity="0.1">
<path opacity="0.1" fill-rule="evenodd" clip-rule="evenodd" d="M89.355 103.486C81.064 103.542 75.02 111.159 74.434 120.456C73.842 129.849 81.246 137.279 89.537 137.222C97.828 137.166 104.509 129.568 104.458 120.252C104.408 110.935 97.646 103.429 89.355 103.486Z" fill="black"/>
</g>
<path fill-rule="evenodd" clip-rule="evenodd" d="M91.522 132.722C99.37 132.722 105.732 126.351 105.732 118.493C105.732 110.634 99.37 104.264 91.522 104.264C83.675 104.264 77.313 110.634 77.313 118.493C77.313 126.351 83.675 132.722 91.522 132.722Z" fill="#E89F40"/>
<path opacity="0.1" fill-rule="evenodd" clip-rule="evenodd" d="M76.033 118.586C75.982 110.02 82.874 103.034 91.428 102.982C99.982 102.93 106.959 109.832 107.011 118.398C107.063 126.963 100.17 133.95 91.616 134.002C83.062 134.054 76.085 127.152 76.033 118.586ZM78.635 118.57C78.678 125.697 84.483 131.44 91.6 131.397C98.718 131.353 104.452 125.541 104.409 118.414C104.366 111.286 98.561 105.544 91.444 105.587C84.327 105.63 78.592 111.443 78.635 118.57Z" fill="#272525"/>
<path fill-rule="evenodd" clip-rule="evenodd" d="M74.444 118.596C74.387 109.151 81.986 101.448 91.418 101.391C100.85 101.334 108.542 108.944 108.599 118.388C108.656 127.833 101.057 135.536 91.625 135.593C82.194 135.65 74.501 128.04 74.444 118.596ZM77.313 118.579C77.36 126.437 83.761 132.768 91.608 132.721C99.455 132.673 105.778 126.264 105.731 118.406C105.683 110.548 99.283 104.216 91.435 104.264C83.588 104.311 77.265 110.72 77.313 118.579Z" fill="#F2D042"/>
<path fill-rule="evenodd" clip-rule="evenodd" d="M86.906 122.791C86.732 122.67 86.7 122.416 86.659 122.186C86.555 121.6 86.918 121.156 87.497 121.086C88.365 120.982 89.254 121.642 90.043 122.018C90.69 122.326 91.405 122.481 92.187 122.481C93.024 122.481 93.696 122.276 94.201 121.868C94.707 121.46 94.959 120.924 94.959 120.259C94.959 119.586 94.756 119.106 94.349 118.821C93.942 118.537 93.245 118.394 92.258 118.394H91.607C89.996 118.394 88.767 118.057 87.922 117.383C87.077 116.709 86.655 115.732 86.655 114.45C86.655 113.197 87.067 112.225 87.893 111.532C88.718 110.839 89.877 110.492 91.37 110.492C91.978 110.492 92.598 110.594 93.23 110.798C94.544 111.223 96.719 112.287 96.258 113.595C95.733 115.087 93.434 112.926 92.625 112.578C92.151 112.374 91.595 112.272 90.955 112.272C90.212 112.272 89.614 112.469 89.16 112.863C88.706 113.257 88.479 113.757 88.479 114.365C88.479 114.963 88.712 115.39 89.178 115.646C89.644 115.902 90.647 116.049 92.187 116.087C93.83 116.135 95.03 116.479 95.789 117.12C96.547 117.76 96.926 118.75 96.926 120.088C96.926 121.37 96.507 122.395 95.67 123.164C94.833 123.932 93.704 124.317 92.282 124.317C91.832 124.317 91.33 124.267 90.778 124.167C89.749 123.982 88.106 123.626 86.906 122.791Z" fill="#F2D042"/>
<path fill-rule="evenodd" clip-rule="evenodd" d="M91.816 127.693H91.798C91.308 127.693 90.91 127.232 90.91 126.664V109.122C90.91 108.553 91.307 108.093 91.798 108.093H91.816C92.307 108.093 92.705 108.553 92.705 109.122V126.664C92.705 127.232 92.307 127.693 91.816 127.693Z" fill="#F2D042"/>
<path fill-rule="evenodd" clip-rule="evenodd" d="M73.25 94.746L61.122 114.741L62.896 119.777L78.723 133.255L81.286 129.849L69.7 114.001L75.912 106.151L77.835 97.412L73.25 94.746Z" fill="#B643D5"/>
<path fill-rule="evenodd" clip-rule="evenodd" d="M80.681 130.654L83.012 130.294L85.231 130.442L84.984 131.183L83.308 131.775L84.32 134.003L85.99 134.676L83.604 135.33L79.057 132.812L80.681 130.654Z" fill="#E7CAAD"/>
<path fill-rule="evenodd" clip-rule="evenodd" d="M100.508 105.587L98.838 101.412H94.697L93.284 104.263L95.436 105.115L98.296 104.263L100.508 105.587Z" fill="#E7CAAD"/>
<path fill-rule="evenodd" clip-rule="evenodd" d="M138.773 107.668L137.763 106.151H134.397L134.061 108.342L136.754 111.039H137.427L138.773 107.668Z" fill="#E7CAAD"/>
</svg>
