<svg width="290" height="209" viewBox="0 0 290 209" fill="none" xmlns="http://www.w3.org/2000/svg">
<path opacity="0.1" fill-rule="evenodd" clip-rule="evenodd" d="M145 208C225.081 208 290 200.118 290 190.395C290 180.672 225.081 172.79 145 172.79C64.919 172.79 0 180.672 0 190.395C0 200.118 64.919 208 145 208Z" fill="#F8AFA6"/>
<path d="M248.105 199.026C248.105 199.026 255.667 189.414 255.055 179.877C254.773 175.878 255.797 171.896 257.973 168.529C259.02 166.939 260.21 165.448 261.526 164.072" stroke="#535461" stroke-width="2"/>
<path fill-rule="evenodd" clip-rule="evenodd" d="M249.351 176.565C250.305 177.643 255.021 179.039 255.021 179.039C255.021 179.039 254.209 174.195 253.254 173.117C252.797 172.6 252.152 172.285 251.462 172.243C250.772 172.201 250.094 172.434 249.576 172.891C249.059 173.349 248.744 173.993 248.702 174.682C248.659 175.371 248.893 176.048 249.351 176.565Z" fill="#FA7268"/>
<path fill-rule="evenodd" clip-rule="evenodd" d="M247.833 187.006C248.591 188.229 253 190.403 253 190.403C253 190.403 253.021 185.48 252.264 184.268C251.9 183.681 251.318 183.263 250.645 183.104C249.973 182.946 249.265 183.061 248.678 183.425C248.09 183.788 247.671 184.369 247.513 185.041C247.354 185.713 247.47 186.42 247.833 187.006Z" fill="#FA7268"/>
<path opacity="0.25" fill-rule="evenodd" clip-rule="evenodd" d="M249.351 176.565C250.305 177.643 255.021 179.039 255.021 179.039C255.021 179.039 254.209 174.195 253.254 173.117C252.797 172.6 252.152 172.285 251.462 172.243C250.772 172.201 250.094 172.434 249.576 172.891C249.059 173.349 248.744 173.993 248.702 174.682C248.659 175.371 248.893 176.048 249.351 176.565Z" fill="#FA7268"/>
<path opacity="0.25" fill-rule="evenodd" clip-rule="evenodd" d="M247.833 187.006C248.591 188.229 253 190.403 253 190.403C253 190.403 253.021 185.48 252.264 184.268C251.9 183.681 251.318 183.263 250.645 183.104C249.973 182.946 249.265 183.061 248.678 183.425C248.09 183.788 247.671 184.369 247.513 185.041C247.354 185.713 247.47 186.42 247.833 187.006Z" fill="#F8AFA6"/>
<path d="M248.168 198.624C248.168 198.624 258.982 192.898 262.292 183.933C263.654 180.165 266.202 176.939 269.555 174.738C271.157 173.708 272.85 172.826 274.613 172.104" stroke="#535461" stroke-width="2"/>
<path opacity="0.1" fill-rule="evenodd" clip-rule="evenodd" d="M165.269 24.6341C150.94 24.1361 137.294 19.5171 124.264 14.4621C111.235 9.40711 98.3255 3.80611 84.3395 1.14211C75.3465 -0.580892 65.0585 -0.823892 57.8112 3.99211C50.8413 8.61411 48.5846 16.6151 47.3733 24.0401C46.4602 29.6261 45.9233 35.5051 48.4108 40.7331C50.1462 44.3601 53.2251 47.4181 55.3547 50.8951C62.7625 62.9941 57.5259 77.9151 49.4977 89.7321C45.7313 95.2741 41.3631 100.559 38.4554 106.461C35.5476 112.363 34.2065 119.12 36.7486 125.139C39.2699 131.098 45.2748 135.585 51.7803 138.735C64.9935 145.137 80.5725 146.969 95.7495 148.006C129.361 150.304 163.152 149.301 196.852 148.311C209.327 147.943 221.853 147.57 234.122 145.645C240.936 144.575 247.971 142.876 252.915 138.777C259.195 133.574 260.751 124.763 256.546 118.239C249.488 107.295 229.974 104.577 225.041 92.8331C222.327 86.3691 225.116 79.1691 229.061 73.1741C237.525 60.3101 251.714 49.0271 252.463 34.3261C252.982 24.2221 246.155 14.1171 235.603 9.34011C224.548 4.33411 209.218 4.96411 201.062 13.2521C192.679 21.7891 177.919 25.0711 165.269 24.6341Z" fill="#F8AFA6"/>
<path opacity="0.15" fill-rule="evenodd" clip-rule="evenodd" d="M122.952 80.8872L122.111 84.7162L122.192 84.6932L122.991 80.8872H122.952Z" fill="black"/>
<path fill-rule="evenodd" clip-rule="evenodd" d="M23.3809 192.584C30.0267 192.584 35.4141 191.675 35.4141 190.553C35.4141 189.431 30.0267 188.521 23.3809 188.521C16.7352 188.521 11.3477 189.431 11.3477 190.553C11.3477 191.675 16.7352 192.584 23.3809 192.584Z" fill="#FA7268"/>
<path fill-rule="evenodd" clip-rule="evenodd" d="M28.3566 187.229C28.8754 186.75 29.3553 186.193 29.5057 185.498C29.6562 184.804 29.3605 183.991 28.7042 183.739C27.9675 183.457 27.179 183.967 26.5824 184.483C25.9858 184.998 25.3036 185.584 24.5228 185.475C24.9245 185.112 25.2249 184.65 25.395 184.136C25.565 183.622 25.5987 183.073 25.4929 182.542C25.4621 182.324 25.3725 182.118 25.2335 181.946C24.8263 181.511 24.0844 181.687 23.5942 182.042C22.0378 183.136 21.6047 185.247 21.5969 187.146C21.4386 186.46 21.5709 185.747 21.5683 185.042C21.5657 184.338 21.3712 183.56 20.7902 183.182C20.4198 182.984 20.0039 182.887 19.584 182.9C18.8836 182.874 18.1055 182.944 17.6282 183.454C17.0342 184.092 17.1872 185.156 17.7034 185.856C18.2196 186.556 19.0004 186.991 19.7293 187.475C20.3088 187.821 20.8034 188.292 21.1767 188.854C21.2211 188.936 21.2568 189.023 21.283 189.113H25.6693C26.646 188.609 27.55 187.975 28.3566 187.229Z" fill="#FA7268"/>
<path fill-rule="evenodd" clip-rule="evenodd" d="M137.628 78.0613C137.469 78.0613 137.311 78.0673 137.155 78.0773C136.627 75.0543 133.951 72.7543 130.73 72.7543C129.257 72.7543 127.898 73.2353 126.807 74.0463C125.627 71.9963 123.392 70.6133 120.829 70.6133C117.036 70.6133 113.961 73.6413 113.961 77.3763C113.961 77.6133 113.974 77.8473 113.998 78.0773C113.842 78.0673 113.685 78.0613 113.526 78.0613C109.733 78.0613 106.659 81.0893 106.659 84.8243C106.659 88.5593 109.733 91.5873 113.526 91.5873H137.628C141.421 91.5873 146.658 89.0133 146.658 85.2783C146.658 81.5423 141.421 78.0613 137.628 78.0613Z" fill="#EDF3F7"/>
<path fill-rule="evenodd" clip-rule="evenodd" d="M123.616 72.1122C122.98 71.9122 122.302 71.8042 121.598 71.8042C117.938 71.8042 114.972 74.7252 114.972 78.3302C114.972 78.5582 114.984 78.7842 115.007 79.0062C114.856 78.9962 114.705 78.9912 114.552 78.9912C110.892 78.9912 107.925 81.9122 107.925 85.5172C107.925 86.7002 108.246 87.8102 108.806 88.7672C108.553 85.8232 109.005 80.2012 116.172 80.3392C116.099 78.4162 116.445 72.3892 123.616 72.1122Z" fill="#F4F7F9"/>
<path fill-rule="evenodd" clip-rule="evenodd" d="M116.848 91.5869H137.628C141.421 91.5869 146.658 89.0129 146.658 85.2779C146.658 84.4799 146.517 83.7149 146.26 83.0049C141.744 91.7629 124.309 90.5339 116.848 91.5869Z" fill="#DBDCDD"/>
<path fill-rule="evenodd" clip-rule="evenodd" d="M179.031 161.668C178.745 162.146 178.46 162.625 178.174 163.104C176.42 162.339 174.701 161.409 173.066 160.341C173.762 159.862 174.058 158.786 175.265 159.361C175.656 159.547 178.974 161.762 179.031 161.668Z" fill="#E5D1BD"/>
<path fill-rule="evenodd" clip-rule="evenodd" d="M177.711 163.681C177.732 163.962 177.892 164.235 178.148 164.43C178.296 164.543 178.477 164.632 178.595 164.766C178.711 164.897 178.755 165.059 178.797 165.216C179.015 166.042 179.292 168.477 180.949 166.993C182.454 165.646 181.177 162.693 180.576 161.198C180.537 161.1 180.492 160.996 180.394 160.929C180.289 160.856 180.144 160.838 180.006 160.825C179.242 160.753 178.079 160.627 178.03 161.492C178.009 161.861 178.263 162.222 178.215 162.616C178.175 162.939 177.693 163.429 177.711 163.681Z" fill="#0C1721"/>
<path fill-rule="evenodd" clip-rule="evenodd" d="M164.244 136.184C164.965 139.204 164.238 142.103 164.66 145.164C165.476 151.08 177.312 159.676 177.312 159.676C177.312 159.676 175.336 162.259 174.939 162.412C171.584 161.206 161.174 155.986 158.547 150.516C155.982 145.175 153.653 139.716 151.573 134.163C151.191 133.144 150.819 131.971 151.252 131.05C151.584 130.344 152.303 129.991 152.99 129.714C154.826 128.975 158.12 127.415 160.127 128.544C162.321 129.777 163.69 133.864 164.244 136.184Z" fill="#CCCCCC"/>
<path fill-rule="evenodd" clip-rule="evenodd" d="M166.356 167.826C165.949 168.206 165.541 168.587 165.133 168.967C163.662 167.745 162.27 166.374 160.998 164.893C161.799 164.627 162.384 163.677 163.383 164.564C163.706 164.851 166.276 167.901 166.356 167.826Z" fill="#E5D1BD"/>
<path fill-rule="evenodd" clip-rule="evenodd" d="M164.434 169.587C164.405 169.867 164.514 170.164 164.732 170.401C164.859 170.538 165.021 170.657 165.114 170.81C165.205 170.959 165.22 171.126 165.233 171.288C165.303 172.14 165.149 174.586 167.04 173.415C168.758 172.352 168.019 169.221 167.691 167.644C167.669 167.54 167.643 167.431 167.558 167.347C167.468 167.257 167.328 167.214 167.195 167.177C166.455 166.972 165.332 166.645 165.132 167.488C165.047 167.848 165.234 168.247 165.117 168.627C165.021 168.938 164.46 169.336 164.434 169.587Z" fill="#0C1721"/>
<path fill-rule="evenodd" clip-rule="evenodd" d="M159.635 138.125C159.423 141.365 157.8 144.04 157.276 147.228C156.264 153.393 165.437 165.629 165.437 165.629C165.437 165.629 162.664 167.603 162.219 167.634C159.239 165.394 150.447 156.972 149.512 150.695C148.599 144.567 147.958 138.393 147.595 132.203C147.528 131.067 147.519 129.78 148.236 128.993C148.786 128.389 149.614 128.257 150.386 128.193C152.45 128.019 156.224 127.474 157.882 129.221C159.693 131.13 159.798 135.636 159.635 138.125Z" fill="#CCCCCC"/>
<path fill-rule="evenodd" clip-rule="evenodd" d="M150.02 106.52C150.876 106.577 151.732 106.635 152.588 106.692C152.709 106.02 152.776 105.338 152.789 104.655C153.532 104.526 154.405 104.292 154.65 103.58C154.727 103.356 154.727 103.114 154.725 102.876C154.72 101.896 154.715 100.915 154.71 99.935C154.709 99.596 154.705 99.247 154.573 98.934C154.341 98.386 153.766 98.067 153.203 97.87C151.768 97.366 150.104 97.417 148.796 98.191C148.448 98.398 148.12 98.661 147.922 99.013C147.618 99.558 147.666 100.222 147.723 100.842C147.775 101.415 147.827 101.988 147.879 102.561C147.939 103.219 148.059 103.977 148.628 104.315C148.93 104.495 149.318 104.522 149.58 104.757C150.041 105.171 149.843 105.926 150.02 106.52Z" fill="#EACDB0"/>
<path fill-rule="evenodd" clip-rule="evenodd" d="M143.083 95.5903C142.978 95.3283 142.86 95.0723 142.722 94.8273C142.421 94.2973 142.021 93.8193 141.803 93.2513C141.585 92.6823 141.595 91.9623 142.041 91.5473C142.329 91.2783 142.738 91.1893 143.129 91.1413C144.417 90.9863 145.746 91.1833 146.933 91.7063C148.063 92.2033 149.037 92.8773 150.3 92.6333C151.487 92.4033 152.265 92.7073 153.363 93.3193C154.551 93.9803 156.229 94.3703 157.266 95.1963C157.699 95.5413 158.011 96.0203 158.231 96.5273C158.993 98.2863 158.632 100.474 157.344 101.896C157.055 102.215 156.726 102.495 156.386 102.759C155.682 103.304 154.835 103.982 153.975 104.084C154.079 103.349 155.134 101.152 154.672 100.457C153.938 99.3563 151.861 99.3503 150.712 99.3993C149.46 99.4523 148.238 100.127 147.008 100.109C146.123 100.096 145.093 99.4903 144.434 98.9223C143.62 98.2203 143.468 96.5473 143.083 95.5903Z" fill="#15273D"/>
<path fill-rule="evenodd" clip-rule="evenodd" d="M154.82 106.599C159.767 109.1 161.405 117.075 163.46 121.793C164.867 125.023 166.84 128.702 170.336 129.176C172.594 129.482 174.762 128.293 176.692 127.084C175.916 129.793 174.826 132.859 172.189 133.864C170.242 134.607 168.023 133.957 165.992 134.429C163.803 134.938 161.896 136.729 159.657 136.525C157.958 136.369 156.574 135.085 154.924 134.652C152.373 133.983 149.808 135.424 147.469 136.64C146.788 136.994 146.003 137.341 145.279 137.087C144.349 136.761 144.01 135.631 143.921 134.652C143.52 130.183 145.559 126.044 146.385 121.749C147.127 117.894 145.41 114.311 146.236 110.402C146.817 107.651 149.109 105.808 151.928 105.863C152.976 105.883 153.943 106.152 154.82 106.599Z" fill="#B643D5"/>
<path fill-rule="evenodd" clip-rule="evenodd" d="M141.226 88.1911C141.578 88.6361 141.931 89.0811 142.284 89.5261C142.393 89.6641 142.77 89.9811 142.581 90.1831C142.489 90.2801 142.205 90.6371 141.9 90.9771C141.751 91.3331 141.588 91.6841 141.47 92.0531C141.172 92.9851 141.535 95.2691 140.318 95.5141C140.083 95.5621 139.842 95.6101 139.611 95.5661C139.422 95.5311 139.251 95.4361 139.087 95.3341C138.96 95.2541 138.738 95.1621 138.706 95.0081C138.672 94.8471 138.845 94.4571 138.887 94.2881C139.008 93.8071 139.128 93.3251 139.249 92.8431C139.368 92.3701 139.467 91.8041 139.165 91.4701C139.099 91.3971 139.017 91.3401 138.961 91.2581C138.899 91.1641 138.875 91.0461 138.855 90.9301C138.785 90.5051 138.744 90.0611 138.767 89.6231C138.788 89.2241 139.05 89.0731 139.31 88.8141C139.613 88.5121 139.688 88.0941 139.981 87.7891C140.146 87.6171 140.384 87.5051 140.595 87.5671C140.766 87.6171 140.889 87.7671 141.003 87.9111C141.077 88.0041 141.151 88.0971 141.226 88.1911Z" fill="#EACDB0"/>
<path fill-rule="evenodd" clip-rule="evenodd" d="M137.219 105.652C136.82 104.686 136.649 103.652 136.665 102.414C136.704 99.3563 137.184 96.2763 138.084 93.3223C139.41 93.2593 140.73 93.4863 141.945 93.9833C141.725 96.4963 141.69 99.0163 141.839 101.512C141.912 102.735 142.167 103.793 143.163 104.445C145.382 105.898 147.711 107.162 150.125 108.225C150.659 108.46 151.208 108.692 151.632 109.108C152.409 109.87 152.628 111.177 152.318 112.319C152.007 113.46 151.229 114.434 150.308 115.105C149.648 115.586 148.877 115.936 148.107 115.895C147.312 115.852 146.611 115.401 145.959 114.939C143.055 112.877 140.451 110.339 138.256 107.428C137.813 106.841 137.471 106.26 137.219 105.652Z" fill="#B643D5"/>
<path fill-rule="evenodd" clip-rule="evenodd" d="M169.546 92.4983C169.506 92.5223 169.467 92.5503 169.432 92.5813C169.101 92.8713 169.207 93.2973 168.996 93.6263C168.901 93.7733 168.403 93.9283 168.574 94.1613C168.638 94.2463 168.827 94.5533 169.037 94.8493C169.111 95.1413 169.199 95.4303 169.245 95.7283C169.362 96.4813 168.72 98.2113 169.718 98.5323C169.911 98.5943 170.11 98.6573 170.312 98.6483C170.478 98.6403 170.638 98.5853 170.792 98.5243C170.912 98.4763 171.113 98.4283 171.164 98.3133C171.216 98.1923 171.126 97.8713 171.115 97.7363C171.083 97.3503 171.05 96.9643 171.018 96.5783C170.986 96.2003 170.985 95.7513 171.29 95.5243C171.357 95.4753 171.435 95.4403 171.495 95.3823C171.562 95.3163 171.599 95.2273 171.633 95.1393C171.755 94.8183 171.854 94.4793 171.899 94.1373C171.978 93.5263 171.25 92.8893 170.869 92.5043C170.774 92.4073 170.672 92.3113 170.545 92.2663C170.338 92.1923 170.11 92.2673 169.904 92.3413C169.781 92.3853 169.656 92.4313 169.546 92.4983Z" fill="#E5D1BD"/>
<path fill-rule="evenodd" clip-rule="evenodd" d="M170.117 106.358C170.423 105.979 170.733 105.594 170.928 105.148C171.083 104.792 171.16 104.408 171.227 104.025C171.641 101.654 171.683 99.2182 171.349 96.8342C170.231 96.6432 169.075 96.6762 167.969 96.9312C167.789 98.9002 167.451 100.855 166.959 102.771C166.859 103.163 166.75 103.558 166.548 103.909C166.258 104.415 165.796 104.796 165.345 105.165C163.593 106.596 161.841 108.028 160.089 109.46C159.032 110.323 157.943 111.226 157.345 112.452C155.684 115.85 159.719 118.427 162.331 116.051C165.264 113.384 167.619 109.45 170.117 106.358Z" fill="#B643D5"/>
<path fill-rule="evenodd" clip-rule="evenodd" d="M142.158 85.495C142.45 85.494 154.019 74.86 154.019 74.86L153.973 55L140.929 67.822L142.158 85.495Z" fill="#FA7268"/>
<path fill-rule="evenodd" clip-rule="evenodd" d="M143.682 78.069C143.458 74.094 142.547 64.179 139.643 60.229C136.756 64.193 135.891 74.111 135.685 78.088C135.613 79.491 135.69 80.85 135.897 82.104L137.627 92.555C138.531 93.72 140.908 93.715 141.806 92.546L143.488 82.087C143.69 80.832 143.761 79.472 143.682 78.069Z" fill="#FFD559"/>
<path fill-rule="evenodd" clip-rule="evenodd" d="M139.155 90.1893C138.524 90.1683 137.855 90.1253 137.203 90.0093L137.62 92.5243C138.523 93.6893 140.9 93.6833 141.798 92.5143L142.218 89.9033C141.239 90.1933 140.167 90.2213 139.155 90.1893Z" fill="#5E89A0"/>
<path opacity="0.12" fill-rule="evenodd" clip-rule="evenodd" d="M147.452 61.3799L149.609 78.8629L147.145 81.0999L146.663 62.1549L147.452 61.3799Z" fill="#FA7268"/>
<path fill-rule="evenodd" clip-rule="evenodd" d="M182.221 85.3721C181.929 85.3731 170.312 74.7921 170.312 74.7921L170.266 54.9321L183.369 67.6941L182.221 85.3721Z" fill="#FA7268"/>
<path fill-rule="evenodd" clip-rule="evenodd" d="M180.663 77.985C180.869 74.008 181.734 64.09 184.621 60.126C187.525 64.077 188.436 73.991 188.66 77.967C188.739 79.37 188.668 80.73 188.466 81.985L186.784 92.443C185.886 93.612 183.509 93.617 182.605 92.453L180.875 82.002C180.668 80.748 180.591 79.388 180.663 77.985Z" fill="#FFD559"/>
<path fill-rule="evenodd" clip-rule="evenodd" d="M185.245 90.084C185.877 90.06 186.545 90.014 187.196 89.895L186.792 92.412C185.893 93.581 183.517 93.586 182.613 92.421L182.181 89.812C183.161 90.098 184.233 90.121 185.245 90.084Z" fill="#5E89A0"/>
<path opacity="0.12" fill-rule="evenodd" clip-rule="evenodd" d="M176.989 61.313L174.912 78.806L177.385 81.032L177.781 62.085L176.989 61.313Z" fill="#FA7268"/>
<path fill-rule="evenodd" clip-rule="evenodd" d="M169.81 86.9243L156.737 86.9543L156.744 90.1223L169.817 90.0923L169.81 86.9243Z" fill="#304956"/>
<path fill-rule="evenodd" clip-rule="evenodd" d="M171.045 93.0053L155.353 93.0413L156.295 89.8713L170.088 89.8403L171.045 93.0053Z" fill="#FA7268"/>
<path fill-rule="evenodd" clip-rule="evenodd" d="M178.199 45.8779C177.124 37.1159 174.078 28.5739 169.543 21.0069C167.816 18.1259 164.971 14.5799 162.505 12.7339C160.048 14.5919 157.22 18.1499 155.506 21.0389C151.005 28.6269 147.998 37.1819 146.963 45.9489C145.863 55.2709 147.853 64.3569 148.663 73.6079C149.06 78.1539 149.458 82.7009 149.856 87.2469L162.675 87.2179L175.495 87.1879C175.871 82.6409 176.248 78.0929 176.625 73.5449C177.393 64.2899 179.342 55.1949 178.199 45.8779Z" fill="#FA7268"/>
<path fill-rule="evenodd" clip-rule="evenodd" d="M172.121 93.911L154.455 93.951C154.238 93.952 154.062 93.777 154.061 93.56V93.225C154.06 93.008 154.236 92.833 154.452 92.832L172.118 92.792C172.335 92.791 172.511 92.967 172.511 93.183L172.512 93.518C172.513 93.735 172.337 93.911 172.121 93.911Z" fill="#304956"/>
<path opacity="0.15" fill-rule="evenodd" clip-rule="evenodd" d="M156.736 87.2312L169.809 87.2012L169.814 89.3122L156.737 87.8222L156.736 87.2312Z" fill="black"/>
<path opacity="0.19" fill-rule="evenodd" clip-rule="evenodd" d="M149.761 87.247L175.399 87.189L175.974 80.437L149.346 80.711L149.761 87.247Z" fill="#304956"/>
<path fill-rule="evenodd" clip-rule="evenodd" d="M171.067 102.413C170.958 101.667 170.767 100.938 170.468 100.247C169.529 98.0749 167.729 96.3319 165.51 95.9159C165.47 95.9069 165.43 95.8959 165.39 95.8869C163.53 95.4859 161.63 95.6119 159.899 96.3039C159.535 96.4339 159.183 96.5969 158.849 96.8069C158.255 97.1419 157.691 97.5489 157.168 98.0309C156.602 98.5539 156.1 99.1659 155.761 99.8859C155.426 100.597 155.259 101.392 155.165 102.185C154.839 104.937 155.318 107.657 156.04 110.158C156.395 111.39 156.812 112.581 157.236 113.746C157.447 114.328 157.681 114.901 157.872 115.479C157.945 115.697 158.386 116.763 158.294 116.896C158.294 116.896 158.915 115.996 160.417 114.365C161.121 116.794 161.838 118.97 163.071 121.578C163.071 121.578 164.651 117.755 165.567 114.67C166.337 115.876 167.258 117.998 167.863 119.636C167.803 119.474 168.065 118.923 168.109 118.758C168.77 116.316 169.418 113.769 170.018 111.107C170.627 108.398 171.501 105.403 171.067 102.413Z" fill="#EBB044"/>
<path fill-rule="evenodd" clip-rule="evenodd" d="M167.84 102.148C167.776 101.724 167.666 101.31 167.495 100.919C166.956 99.6889 165.931 98.7039 164.672 98.4689C164.649 98.4639 164.627 98.4579 164.604 98.4529C163.549 98.2269 162.471 98.2979 161.488 98.6889C161.281 98.7619 161.081 98.8549 160.891 98.9729C160.553 99.1619 160.233 99.3919 159.935 99.6649C159.613 99.9599 159.326 100.307 159.132 100.715C158.94 101.118 158.844 101.568 158.789 102.019C158.597 103.583 158.864 105.133 159.27 106.562C159.471 107.268 159.707 107.95 159.948 108.619C160.068 108.953 160.201 109.282 160.309 109.614C160.35 109.74 160.602 110.353 160.549 110.431C160.549 110.431 160.906 109.912 161.768 108.974C162.169 110.372 162.579 111.626 163.287 113.134C163.287 113.134 164.193 110.926 164.716 109.15C165.086 109.73 165.518 110.682 165.853 111.53C165.912 111.678 166.133 111.664 166.177 111.507C166.177 111.506 166.177 111.506 166.177 111.505C166.553 110.097 166.92 108.633 167.258 107.106C167.602 105.557 168.094 103.848 167.84 102.148Z" fill="#FFD559"/>
<path fill-rule="evenodd" clip-rule="evenodd" d="M137.203 90.0083C137.203 90.0083 140.952 90.5353 142.218 89.9033L142.445 88.5723C142.445 88.5723 139.261 89.0263 136.97 88.5853L137.203 90.0083Z" fill="#FA7268"/>
<path fill-rule="evenodd" clip-rule="evenodd" d="M163.092 55.6911C168.275 55.6911 172.476 51.4971 172.476 46.3241C172.476 41.1501 168.275 36.9561 163.092 36.9561C157.91 36.9561 153.708 41.1501 153.708 46.3241C153.708 51.4971 157.91 55.6911 163.092 55.6911Z" fill="#AECCDC"/>
<path fill-rule="evenodd" clip-rule="evenodd" d="M156.937 39.1729C158.48 38.0489 160.381 37.3849 162.437 37.3799C167.62 37.3679 171.83 41.5529 171.842 46.7259C171.849 49.6369 170.525 52.2399 168.444 53.9629L156.937 39.1729Z" fill="#D1E7F5"/>
<path fill-rule="evenodd" clip-rule="evenodd" d="M153.074 46.3463C153.086 51.8613 157.591 56.3373 163.115 56.3253C168.639 56.3123 173.123 51.8163 173.111 46.3013C173.098 40.7863 168.594 36.3103 163.069 36.3223C157.545 36.3353 153.061 40.8323 153.074 46.3463ZM154.343 46.3433C154.332 41.5283 158.248 37.6003 163.072 37.5893C167.897 37.5783 171.83 41.4883 171.841 46.3043C171.852 51.1203 167.936 55.0473 163.112 55.0583C158.288 55.0693 154.354 51.1593 154.343 46.3433Z" fill="#145566"/>
<path fill-rule="evenodd" clip-rule="evenodd" d="M182.182 90.4179C182.182 90.4179 185.931 90.9449 187.197 90.3129L187.424 88.9819C187.424 88.9819 184.24 89.4359 181.949 88.9949L182.182 90.4179Z" fill="#FA7268"/>
<path fill-rule="evenodd" clip-rule="evenodd" d="M111.909 191.139C111.812 191.06 111.687 191.012 111.612 190.912C111.508 190.775 111.528 190.584 111.553 190.414C111.834 188.51 112.237 186.582 112.381 184.664C111.679 184.785 110.548 184.749 109.977 185.196C109.587 185.501 109.77 185.838 109.576 186.185C109.383 186.527 108.983 186.685 108.763 187.008C108.586 187.268 108.566 187.602 108.584 187.916C108.631 188.708 108.883 189.471 109.134 190.224C109.338 190.834 109.541 191.444 109.744 192.054C109.799 192.219 109.864 192.397 110.012 192.488C110.125 192.557 110.265 192.562 110.397 192.564C110.857 192.572 111.35 192.571 111.73 192.312C112.109 192.053 112.266 191.429 111.909 191.139Z" fill="#0C1721"/>
<path fill-rule="evenodd" clip-rule="evenodd" d="M97.7608 191.445C97.6758 191.295 97.7218 191.109 97.7688 190.943C98.2538 189.25 98.8408 187.552 99.2418 185.834C99.1478 185.692 99.0908 185.526 99.0688 185.355C98.3698 185.343 97.4448 185.241 96.8978 185.563C96.4698 185.815 96.6078 186.173 96.3688 186.49C96.1328 186.805 95.7148 186.908 95.4538 187.199C95.2438 187.433 95.1798 187.762 95.1568 188.076C95.0978 188.867 95.2468 189.657 95.3958 190.436C95.5168 191.067 95.6378 191.699 95.7578 192.331C95.7908 192.501 95.8318 192.686 95.9668 192.796C96.0698 192.879 96.2068 192.902 96.3378 192.922C96.7928 192.991 97.2818 193.055 97.6928 192.848C98.1028 192.641 98.3408 192.044 98.0258 191.709C97.9398 191.617 97.8228 191.554 97.7608 191.445Z" fill="#0C1721"/>
<path fill-rule="evenodd" clip-rule="evenodd" d="M97.192 148.11L95.877 153.064L97.334 167.18L95.623 185.96L99.472 186.274L104.467 168.309L108.407 148.653L97.192 148.11Z" fill="#CCCCCC"/>
<path fill-rule="evenodd" clip-rule="evenodd" d="M117.146 151.506C117.319 152.273 117.506 153.038 117.709 153.798C117.752 153.96 117.795 154.138 117.724 154.29C117.664 154.419 117.535 154.5 117.411 154.569C115.862 155.43 113.932 155.576 112.27 154.959C111.451 154.654 110.702 154.178 109.87 153.912C108.474 153.466 106.993 153.639 105.556 153.677C104.13 153.715 102.9 153.316 101.537 153.164C98.1954 152.79 97.3044 152.597 94.0864 153.503C94.2644 147.48 93.1684 142.811 94.2544 137.17C95.3254 131.603 96.3964 126.035 97.4684 120.467C97.6494 119.528 97.8364 118.569 98.2514 117.75C100.127 114.045 104.303 113.451 107.959 114.634C109.82 115.236 111.252 117.393 112.126 119.063C113.242 121.197 113.821 123.58 114.219 125.941C115.461 133.327 115.284 140.896 116.517 148.284C116.697 149.364 116.907 150.438 117.146 151.506Z" fill="#B643D5"/>
<path fill-rule="evenodd" clip-rule="evenodd" d="M109.682 106.362C109.71 106.44 109.73 106.518 109.742 106.599C109.806 107.019 109.63 107.447 109.69 107.867C109.785 108.534 110.448 109.047 110.437 109.721C110.428 110.271 109.968 110.711 109.837 111.246C109.693 111.83 109.968 112.46 109.801 113.032C109.655 113.529 109.201 114.181 108.823 114.53C108.94 114.422 109.781 114.625 110.026 114.531C110.402 114.388 110.465 114.265 110.63 113.933C110.795 113.603 110.782 113.245 111.003 112.917C111.276 112.514 111.727 112.265 111.952 111.823C112.257 111.22 112.043 110.484 112.193 109.825C112.42 108.828 113.466 108.043 113.328 107.029C113.248 106.435 112.769 105.975 112.557 105.414C112.395 104.988 112.393 104.52 112.31 104.072C112.226 103.625 112.027 103.155 111.62 102.948C111.394 102.833 111.131 102.815 110.895 102.724C110.486 102.566 110.188 102.209 109.806 101.995C109.258 101.69 108.118 102.088 107.685 102.519C107.256 102.947 107.349 103.395 107.614 103.893C108.055 104.722 109.359 105.453 109.682 106.362Z" fill="#15273D"/>
<path fill-rule="evenodd" clip-rule="evenodd" d="M104.172 115.295C104.195 115.369 104.229 115.443 104.28 115.516C104.482 115.805 104.799 116.007 105.129 116.118C105.565 116.266 106.034 116.276 106.494 116.274C107.116 116.271 107.16 115.916 107.348 115.388C107.451 115.099 107.537 114.805 107.615 114.509C107.658 114.347 107.704 113.746 107.831 113.651C107.916 113.586 108.202 113.666 108.341 113.623C108.562 113.555 108.767 113.393 108.923 113.228C109.175 112.961 109.347 112.631 109.516 112.306C109.811 111.74 110.106 111.174 110.4 110.609C110.702 110.03 111.005 109.448 111.183 108.821C111.453 107.877 111.55 106.491 110.954 105.653C110.41 104.889 109.485 104.485 108.619 104.207C107.472 103.839 106.215 103.828 105.084 104.262C104.628 104.437 104.179 104.691 103.853 105.094C103.352 105.716 103.219 106.584 103.109 107.398C103.008 108.149 102.906 108.9 102.805 109.651C102.688 110.515 102.611 111.522 103.167 112.105C103.462 112.415 103.899 112.551 104.132 112.921C104.424 113.385 104.289 113.974 104.211 114.479C104.167 114.768 104.094 115.035 104.172 115.295Z" fill="#EACDB0"/>
<path fill-rule="evenodd" clip-rule="evenodd" d="M102.37 101.936C101.972 102.128 101.506 102.232 101.13 102.473C100.399 102.941 100.106 103.853 99.9248 104.702C99.7638 105.457 99.3048 106.07 99.2398 106.877C99.1958 107.419 99.3228 107.999 99.6978 108.393C100.165 108.884 101 109.105 101.125 109.77C101.261 110.493 100.403 111.212 100.719 111.877C100.893 112.243 101.343 112.376 101.638 112.655C101.967 112.967 102.078 113.435 102.236 113.86C102.393 114.284 102.664 114.731 103.108 114.823C103.252 114.149 103.372 113.617 103.198 112.944C103.096 112.553 102.724 111.795 103.178 111.476C103.479 111.196 104.066 111.196 104.156 110.795C104.198 110.607 104.096 110.421 104.021 110.243C103.731 109.555 103.841 108.732 104.242 108.102C104.643 107.472 105.309 107.033 106.03 106.836C106.876 106.605 106.786 106.393 107.149 105.693C107.483 105.05 107.901 104.962 108.562 104.827C109.156 104.707 109.359 104.601 109.659 104.123C109.878 103.773 110.146 103.355 110.008 102.894C109.898 102.527 109.633 102.23 109.376 101.946C108.839 101.354 108.229 100.722 107.433 100.633C106.991 100.584 106.543 100.712 106.102 100.656C105.808 100.618 105.53 100.5 105.241 100.436C104.747 100.328 104.195 100.381 103.737 100.602C103.276 100.824 103.23 101.138 102.926 101.519C102.777 101.706 102.583 101.833 102.37 101.936Z" fill="#15273D"/>
<path fill-rule="evenodd" clip-rule="evenodd" d="M104.646 99.4791C104.81 99.0221 104.875 98.3991 104.454 98.1561C104.223 98.0231 103.928 98.0671 103.681 97.9671C103.155 97.7541 103.091 97.0581 102.893 96.5261C102.864 96.4471 102.826 96.3651 102.756 96.3161C102.656 96.2481 102.523 96.2671 102.401 96.2601C101.844 96.2251 101.53 95.6121 101.053 95.3221C100.463 94.9631 99.5912 95.2121 99.2782 95.8271C99.1502 96.0791 99.1102 96.3691 98.9862 96.6241C98.4852 97.6571 96.8022 97.8241 96.5512 98.9451C96.3822 99.7021 96.9932 100.571 96.5712 101.223C96.3012 101.639 95.6632 101.839 95.6392 102.334C95.6242 102.653 95.9162 102.927 96.2322 102.98C96.5472 103.034 96.8682 102.916 97.1422 102.753C97.5792 102.496 97.9412 102.128 98.3632 101.847C98.7862 101.566 99.3162 101.374 99.7992 101.527C100.268 101.676 100.632 102.129 101.124 102.138C101.517 102.145 101.863 101.858 102.256 101.832C102.623 101.807 102.961 102.012 103.318 102.101C103.675 102.19 104.153 102.084 104.23 101.725C104.249 101.638 104.241 101.543 104.284 101.465C104.404 101.247 104.8 101.334 104.919 101.115C104.785 100.79 104.5 100.845 104.435 100.441C104.385 100.129 104.543 99.7661 104.646 99.4791Z" fill="#15273D"/>
<path fill-rule="evenodd" clip-rule="evenodd" d="M105.247 148.014L106.152 156.087L107.433 170.983L108.702 185.739L112.754 185.532L114.403 169.428L114.888 155.767L113.341 147.055L105.247 148.014Z" fill="#CCCCCC"/>
<path fill-rule="evenodd" clip-rule="evenodd" d="M129.661 129.259C129.64 129.217 129.616 129.177 129.588 129.139C129.325 128.786 128.891 128.857 128.58 128.619C128.441 128.513 128.327 128.005 128.08 128.156C127.99 128.212 127.668 128.376 127.356 128.56C127.058 128.61 126.762 128.673 126.461 128.695C125.699 128.75 124.025 127.97 123.623 128.937C123.545 129.124 123.466 129.316 123.459 129.518C123.452 129.683 123.494 129.847 123.543 130.005C123.581 130.128 123.612 130.333 123.723 130.392C123.84 130.454 124.167 130.392 124.303 130.391C124.691 130.391 125.079 130.39 125.467 130.389C125.848 130.389 126.296 130.424 126.497 130.746C126.541 130.817 126.57 130.898 126.623 130.962C126.683 131.034 126.769 131.078 126.853 131.119C127.164 131.267 127.494 131.393 127.832 131.465C128.436 131.594 129.131 130.922 129.547 130.574C129.651 130.488 129.756 130.394 129.811 130.271C129.902 130.072 129.846 129.839 129.788 129.627C129.755 129.502 129.72 129.374 129.661 129.259Z" fill="#E5D1BD"/>
<path fill-rule="evenodd" clip-rule="evenodd" d="M115.777 128.692C116.13 129.027 116.489 129.367 116.919 129.598C117.261 129.782 117.639 129.89 118.015 129.988C120.349 130.594 122.777 130.834 125.185 130.698C125.467 129.601 125.528 128.448 125.365 127.327C123.413 126.986 121.489 126.49 119.617 125.844C119.234 125.712 118.848 125.571 118.514 125.342C118.033 125.012 117.691 124.521 117.359 124.042C116.073 122.182 114.787 120.322 113.502 118.461C112.726 117.339 111.913 116.182 110.739 115.486C107.482 113.555 104.579 117.358 106.737 120.152C109.16 123.288 112.895 125.953 115.777 128.692Z" fill="#B643D5"/>
<path fill-rule="evenodd" clip-rule="evenodd" d="M144.935 141.217C144.601 141.217 144.27 141.229 143.942 141.252C142.833 134.906 137.219 130.078 130.459 130.078C127.368 130.078 124.516 131.088 122.225 132.791C119.749 128.49 115.058 125.587 109.679 125.587C101.719 125.587 95.2664 131.941 95.2664 139.78C95.2664 140.277 95.2924 140.768 95.3434 141.252C95.0164 141.23 94.6874 141.218 94.3544 141.218C86.3944 141.218 79.9414 147.572 79.9414 155.411C79.9414 163.25 86.3944 169.604 94.3544 169.604H144.935C152.895 169.604 163.886 164.202 163.886 156.363C163.886 148.524 152.895 141.217 144.935 141.217Z" fill="#EDF3F7"/>
<path fill-rule="evenodd" clip-rule="evenodd" d="M115.527 128.733C114.192 128.313 112.77 128.086 111.293 128.086C103.612 128.086 97.3857 134.218 97.3857 141.782C97.3857 142.261 97.4107 142.735 97.4597 143.202C97.1437 143.181 96.8267 143.169 96.5057 143.169C88.8247 143.169 82.5977 149.301 82.5977 156.865C82.5977 159.349 83.2707 161.678 84.4447 163.687C83.9147 157.507 84.8637 145.709 99.9047 145.998C99.7507 141.963 100.477 129.315 115.527 128.733Z" fill="#F4F7F9"/>
<path fill-rule="evenodd" clip-rule="evenodd" d="M101.323 169.604H144.935C152.895 169.604 163.886 164.201 163.886 156.362C163.886 154.688 163.59 153.083 163.049 151.592C153.572 169.972 116.983 167.393 101.323 169.604Z" fill="#EBECED"/>
<path fill-rule="evenodd" clip-rule="evenodd" d="M112.901 146.255C112.914 146.2 112.922 146.145 112.925 146.088C112.953 145.562 112.498 145.296 112.393 144.84C112.347 144.637 112.631 144.081 112.287 144.032C112.161 144.015 111.739 143.921 111.31 143.852C110.997 143.671 110.676 143.504 110.382 143.295C109.637 142.764 108.691 140.768 107.58 141.353C107.365 141.466 107.145 141.583 106.983 141.764C106.851 141.912 106.764 142.095 106.688 142.278C106.629 142.42 106.501 142.633 106.558 142.772C106.619 142.918 106.968 143.11 107.094 143.213C107.452 143.509 107.81 143.804 108.168 144.099C108.52 144.389 108.907 144.763 108.845 145.214C108.832 145.312 108.796 145.408 108.796 145.508C108.797 145.62 108.842 145.727 108.889 145.829C109.062 146.202 109.27 146.571 109.526 146.895C109.985 147.474 111.14 147.384 111.79 147.381C111.951 147.38 112.119 147.374 112.265 147.303C112.501 147.188 112.627 146.931 112.737 146.692C112.801 146.55 112.867 146.405 112.901 146.255Z" fill="#E5D1BD"/>
<path fill-rule="evenodd" clip-rule="evenodd" d="M99.8312 135.449C99.9002 136.028 99.9712 136.615 100.191 137.155C100.366 137.586 100.631 137.974 100.903 138.351C102.591 140.689 104.647 142.763 106.971 144.472C108.071 143.676 109.01 142.66 109.716 141.502C108.178 139.699 106.783 137.774 105.551 135.751C105.298 135.337 105.05 134.913 104.918 134.447C104.727 133.776 104.786 133.063 104.848 132.368C105.085 129.672 105.323 126.976 105.56 124.28C105.704 122.653 105.84 120.967 105.289 119.429C103.763 115.166 98.1762 116.459 98.0292 120.681C97.8632 125.42 99.2692 130.726 99.8312 135.449Z" fill="#B643D5"/>
<path fill-rule="evenodd" clip-rule="evenodd" d="M211.48 104.085C211.242 104.085 211.007 104.093 210.774 104.109C209.985 99.5981 205.994 96.1661 201.188 96.1661C198.99 96.1661 196.963 96.8841 195.334 98.0941C193.574 95.0361 190.239 92.9731 186.415 92.9731C180.756 92.9731 176.169 97.4901 176.169 103.063C176.169 103.416 176.187 103.765 176.223 104.109C175.991 104.093 175.756 104.085 175.52 104.085C169.861 104.085 165.273 108.602 165.273 114.175C165.273 119.748 169.861 124.266 175.52 124.266H211.48C217.139 124.266 224.953 120.425 224.953 114.852C224.953 109.279 217.139 104.085 211.48 104.085Z" fill="#EDF3F7"/>
<path fill-rule="evenodd" clip-rule="evenodd" d="M190.573 95.21C189.624 94.911 188.612 94.75 187.563 94.75C182.102 94.75 177.675 99.109 177.675 104.487C177.675 104.828 177.693 105.164 177.728 105.496C177.504 105.481 177.278 105.473 177.049 105.473C171.589 105.473 167.162 109.832 167.162 115.21C167.162 116.976 167.64 118.632 168.475 120.059C168.098 115.666 168.773 107.278 179.466 107.484C179.357 104.616 179.873 95.623 190.573 95.21Z" fill="#F4F7F9"/>
<path fill-rule="evenodd" clip-rule="evenodd" d="M180.475 124.265H211.479C217.138 124.265 224.953 120.424 224.953 114.851C224.953 113.661 224.742 112.52 224.358 111.46C217.62 124.527 191.608 122.694 180.475 124.265Z" fill="#DBDCDD"/>
<path fill-rule="evenodd" clip-rule="evenodd" d="M260.862 158.637C260.327 159.971 261.202 164.806 261.202 164.806C261.202 164.806 265.168 161.902 265.7 160.565C265.826 160.247 265.889 159.908 265.885 159.567C265.88 159.225 265.808 158.888 265.673 158.574C265.538 158.26 265.343 157.976 265.098 157.738C264.853 157.499 264.563 157.312 264.246 157.185C263.928 157.058 263.588 156.996 263.247 157C262.905 157.005 262.567 157.076 262.253 157.211C261.938 157.346 261.654 157.541 261.415 157.786C261.177 158.031 260.989 158.32 260.862 158.637Z" fill="#FA7268"/>
<path fill-rule="evenodd" clip-rule="evenodd" d="M253.908 164.438C254.185 165.847 257.539 169.431 257.539 169.431C257.539 169.431 259.287 164.84 259.01 163.428C258.876 162.75 258.478 162.154 257.903 161.77C257.329 161.386 256.626 161.245 255.948 161.379C255.27 161.513 254.673 161.911 254.288 162.485C253.904 163.058 253.763 163.761 253.897 164.438H253.908Z" fill="#FA7268"/>
<path fill-rule="evenodd" clip-rule="evenodd" d="M262.527 171.716C261.197 172.263 256.346 171.457 256.346 171.457C256.346 171.457 259.199 167.462 260.54 166.915C261.179 166.652 261.896 166.653 262.534 166.918C263.172 167.183 263.679 167.691 263.942 168.329C264.206 168.967 264.205 169.683 263.939 170.32C263.674 170.957 263.166 171.463 262.527 171.726V171.716Z" fill="#FA7268"/>
<path fill-rule="evenodd" clip-rule="evenodd" d="M260.595 183.903C259.163 184.03 254.779 181.802 254.779 181.802C254.779 181.802 258.706 178.846 260.141 178.719C260.829 178.659 261.512 178.874 262.042 179.317C262.571 179.761 262.902 180.396 262.962 181.083C263.022 181.77 262.806 182.453 262.362 182.981C261.919 183.51 261.283 183.84 260.595 183.9V183.903Z" fill="#FA7268"/>
<path fill-rule="evenodd" clip-rule="evenodd" d="M257.09 195.495C255.697 195.86 251 194.404 251 194.404C251 194.404 254.372 190.826 255.765 190.46C256.433 190.285 257.144 190.382 257.741 190.73C258.338 191.077 258.772 191.648 258.948 192.316C259.123 192.983 259.026 193.693 258.678 194.289C258.33 194.885 257.759 195.319 257.09 195.495Z" fill="#FA7268"/>
<path opacity="0.25" fill-rule="evenodd" clip-rule="evenodd" d="M260.862 158.637C260.327 159.971 261.202 164.806 261.202 164.806C261.202 164.806 265.168 161.902 265.7 160.565C265.826 160.247 265.889 159.908 265.885 159.567C265.88 159.225 265.808 158.888 265.673 158.574C265.538 158.26 265.343 157.976 265.098 157.738C264.853 157.499 264.563 157.312 264.246 157.185C263.928 157.058 263.588 156.996 263.247 157C262.905 157.005 262.567 157.076 262.253 157.211C261.938 157.346 261.654 157.541 261.415 157.786C261.177 158.031 260.989 158.32 260.862 158.637Z" fill="#FA7268"/>
<path opacity="0.25" fill-rule="evenodd" clip-rule="evenodd" d="M253.908 164.438C254.185 165.847 257.539 169.431 257.539 169.431C257.539 169.431 259.287 164.84 259.01 163.428C258.876 162.75 258.478 162.154 257.903 161.77C257.329 161.386 256.626 161.245 255.948 161.379C255.27 161.513 254.673 161.911 254.288 162.485C253.904 163.058 253.763 163.761 253.897 164.438H253.908Z" fill="#FA7268"/>
<path opacity="0.25" fill-rule="evenodd" clip-rule="evenodd" d="M262.527 171.716C261.197 172.263 256.346 171.457 256.346 171.457C256.346 171.457 259.199 167.462 260.54 166.915C261.179 166.652 261.896 166.653 262.534 166.918C263.172 167.183 263.679 167.691 263.942 168.329C264.206 168.967 264.205 169.683 263.939 170.32C263.674 170.957 263.166 171.463 262.527 171.726V171.716Z" fill="#F8AFA6"/>
<path opacity="0.25" fill-rule="evenodd" clip-rule="evenodd" d="M260.595 183.903C259.163 184.03 254.779 181.802 254.779 181.802C254.779 181.802 258.706 178.846 260.141 178.719C260.829 178.659 261.512 178.874 262.042 179.317C262.571 179.761 262.902 180.396 262.962 181.083C263.022 181.77 262.806 182.453 262.362 182.981C261.919 183.51 261.283 183.84 260.595 183.9V183.903Z" fill="#F8AFA6"/>
<path opacity="0.25" fill-rule="evenodd" clip-rule="evenodd" d="M257.09 195.495C255.697 195.86 251 194.404 251 194.404C251 194.404 254.372 190.826 255.765 190.46C256.433 190.285 257.144 190.382 257.741 190.73C258.338 191.077 258.772 191.648 258.948 192.316C259.123 192.983 259.026 193.693 258.678 194.289C258.33 194.885 257.759 195.319 257.09 195.495Z" fill="#F8AFA6"/>
<path fill-rule="evenodd" clip-rule="evenodd" d="M276.423 167.042C275.385 168.047 274.231 172.82 274.231 172.82C274.231 172.82 279.035 171.768 280.065 170.765C280.309 170.527 280.505 170.243 280.64 169.929C280.774 169.616 280.846 169.279 280.851 168.937C280.855 168.596 280.792 168.257 280.666 167.94C280.539 167.623 280.351 167.334 280.113 167.09C279.874 166.845 279.59 166.65 279.276 166.516C278.962 166.381 278.624 166.309 278.283 166.305C277.593 166.296 276.927 166.561 276.433 167.042H276.423Z" fill="#F8AFA6"/>
<path fill-rule="evenodd" clip-rule="evenodd" d="M267.712 169.529C267.396 170.93 269.009 175.571 269.009 175.571C269.009 175.571 272.47 172.078 272.786 170.677C272.938 170.003 272.817 169.298 272.448 168.714C272.079 168.13 271.494 167.717 270.82 167.565C270.146 167.413 269.439 167.534 268.855 167.902C268.271 168.271 267.857 168.856 267.705 169.529H267.712Z" fill="#FA7268"/>
<path fill-rule="evenodd" clip-rule="evenodd" d="M258.105 179.172C258.538 180.542 262.284 183.729 262.284 183.729C262.284 183.729 263.505 178.97 263.062 177.599C262.958 177.273 262.792 176.971 262.571 176.71C262.351 176.448 262.081 176.233 261.778 176.075C261.474 175.918 261.142 175.822 260.801 175.793C260.46 175.763 260.117 175.801 259.791 175.905C259.465 176.008 259.162 176.174 258.9 176.394C258.638 176.615 258.423 176.884 258.265 177.187C258.108 177.491 258.011 177.822 257.982 178.163C257.953 178.503 257.991 178.846 258.094 179.172H258.105Z" fill="#FA7268"/>
<path fill-rule="evenodd" clip-rule="evenodd" d="M252.478 188.104C252.675 189.528 255.827 193.301 255.827 193.301C255.827 193.301 257.837 188.816 257.643 187.394C257.596 187.055 257.483 186.729 257.31 186.434C257.137 186.139 256.908 185.881 256.635 185.675C256.363 185.468 256.052 185.318 255.721 185.231C255.39 185.145 255.045 185.124 254.706 185.171C254.367 185.217 254.041 185.33 253.746 185.503C253.45 185.675 253.192 185.904 252.985 186.177C252.779 186.449 252.628 186.759 252.541 187.09C252.455 187.421 252.434 187.765 252.481 188.104H252.478Z" fill="#FA7268"/>
<path fill-rule="evenodd" clip-rule="evenodd" d="M272.641 179.672C271.201 179.636 267.098 176.926 267.098 176.926C267.098 176.926 271.339 174.434 272.776 174.47C273.466 174.488 274.122 174.779 274.597 175.279C275.073 175.78 275.33 176.449 275.312 177.139C275.295 177.828 275.003 178.483 274.502 178.958C274.001 179.433 273.331 179.69 272.641 179.672Z" fill="#F8AFA6"/>
<path fill-rule="evenodd" clip-rule="evenodd" d="M265.93 190.033C264.569 189.569 261.464 185.758 261.464 185.758C261.464 185.758 266.255 184.644 267.617 185.11C267.94 185.221 268.239 185.394 268.495 185.62C268.752 185.845 268.962 186.12 269.112 186.426C269.263 186.733 269.351 187.066 269.373 187.407C269.394 187.748 269.348 188.09 269.238 188.413C269.127 188.737 268.954 189.035 268.728 189.291C268.501 189.547 268.227 189.757 267.92 189.907C267.613 190.058 267.279 190.146 266.938 190.168C266.596 190.189 266.254 190.143 265.93 190.033Z" fill="#F8AFA6"/>
<path fill-rule="evenodd" clip-rule="evenodd" d="M258.022 199.21C256.603 198.982 252.899 195.749 252.899 195.749C252.899 195.749 257.433 193.844 258.865 194.072C259.547 194.182 260.157 194.559 260.562 195.118C260.966 195.678 261.132 196.375 261.022 197.056C260.912 197.737 260.535 198.347 259.975 198.751C259.415 199.155 258.717 199.32 258.035 199.21H258.022Z" fill="#FA7268"/>
</svg>
