<svg width="260" height="170" viewBox="0 0 260 170" fill="none" xmlns="http://www.w3.org/2000/svg">
<path opacity="0.1" fill-rule="evenodd" clip-rule="evenodd" d="M130 170C201.797 170 260 162.389 260 153C260 143.611 201.797 136 130 136C58.2027 136 0 143.611 0 153C0 162.389 58.2027 170 130 170Z" fill="#B643D5"/>
<path d="M220 161C220 161 227.324 151.925 226.731 142.921C226.458 139.146 227.45 135.387 229.558 132.207C230.573 130.706 231.724 129.298 233 128" stroke="#535461" stroke-width="2"/>
<path fill-rule="evenodd" clip-rule="evenodd" d="M232.166 122.468C231.653 123.664 232.493 128 232.493 128C232.493 128 236.31 125.395 236.822 124.197C236.944 123.912 237.004 123.608 237 123.302C236.995 122.996 236.926 122.693 236.796 122.412C236.667 122.13 236.478 121.875 236.243 121.662C236.007 121.448 235.728 121.28 235.422 121.166C235.117 121.052 234.79 120.996 234.461 121C234.132 121.004 233.807 121.069 233.505 121.189C233.202 121.31 232.928 121.485 232.699 121.705C232.469 121.924 232.289 122.184 232.166 122.468Z" fill="#FA7268"/>
<path fill-rule="evenodd" clip-rule="evenodd" d="M226.058 128.069C226.325 129.462 229.555 133 229.555 133C229.555 133 231.239 128.466 230.971 127.071C230.842 126.403 230.459 125.814 229.906 125.435C229.353 125.055 228.676 124.916 228.022 125.049C227.37 125.181 226.795 125.574 226.425 126.141C226.054 126.707 225.919 127.401 226.048 128.069H226.058Z" fill="#FA7268"/>
<path fill-rule="evenodd" clip-rule="evenodd" d="M221.62 139.817C222.526 140.768 227 142 227 142C227 142 226.229 137.726 225.324 136.775C224.889 136.319 224.278 136.042 223.624 136.004C222.969 135.967 222.326 136.173 221.834 136.576C221.343 136.98 221.045 137.548 221.005 138.155C220.964 138.763 221.186 139.361 221.62 139.817Z" fill="#FA7268"/>
<path fill-rule="evenodd" clip-rule="evenodd" d="M220.351 149.773C221.032 150.935 225 153 225 153C225 153 225.018 148.323 224.337 147.171C224.01 146.613 223.486 146.216 222.881 146.066C222.276 145.916 221.639 146.025 221.111 146.37C220.582 146.715 220.205 147.267 220.062 147.906C219.92 148.544 220.024 149.216 220.351 149.773Z" fill="#FA7268"/>
<path fill-rule="evenodd" clip-rule="evenodd" d="M234.553 134.817C233.357 135.344 229 134.567 229 134.567C229 134.567 231.563 130.716 232.768 130.189C233.341 129.936 233.985 129.937 234.559 130.192C235.132 130.447 235.586 130.937 235.823 131.552C236.06 132.167 236.059 132.857 235.821 133.471C235.582 134.085 235.126 134.573 234.553 134.827V134.817Z" fill="#FA7268"/>
<path fill-rule="evenodd" clip-rule="evenodd" d="M229.065 157.943C227.678 158.296 223 156.89 223 156.89C223 156.89 226.358 153.435 227.745 153.083C228.41 152.913 229.119 153.007 229.713 153.343C230.308 153.678 230.74 154.229 230.915 154.873C231.09 155.518 230.993 156.204 230.646 156.78C230.299 157.355 229.731 157.774 229.065 157.943Z" fill="#FA7268"/>
<path fill-rule="evenodd" clip-rule="evenodd" d="M232.679 146.995C231.281 147.117 227 144.974 227 144.974C227 144.974 230.835 142.132 232.236 142.01C232.908 141.951 233.576 142.159 234.092 142.585C234.609 143.011 234.932 143.622 234.99 144.283C235.049 144.944 234.839 145.601 234.405 146.108C233.972 146.617 233.351 146.935 232.679 146.993V146.995Z" fill="#FA7268"/>
<path d="M220 161C220 161 230.223 155.602 233.352 147.152C234.64 143.599 237.049 140.558 240.218 138.484C241.733 137.512 243.334 136.681 245 136" stroke="#535461" stroke-width="2"/>
<path fill-rule="evenodd" clip-rule="evenodd" d="M246.987 130.679C246.046 131.604 245 136 245 136C245 136 249.354 135.031 250.287 134.108C250.51 133.889 250.687 133.627 250.809 133.338C250.931 133.049 250.996 132.739 251 132.424C251.004 132.11 250.947 131.798 250.832 131.506C250.718 131.214 250.548 130.948 250.331 130.723C250.115 130.498 249.857 130.318 249.573 130.194C249.288 130.07 248.982 130.004 248.672 130C248.047 129.992 247.444 130.236 246.996 130.679H246.987Z" fill="#FA7268"/>
<path fill-rule="evenodd" clip-rule="evenodd" d="M239.04 133.011C238.734 134.4 240.292 139 240.292 139C240.292 139 243.633 135.537 243.938 134.148C244.085 133.481 243.967 132.781 243.611 132.202C243.255 131.624 242.69 131.214 242.04 131.063C241.389 130.913 240.706 131.033 240.143 131.398C239.578 131.763 239.179 132.343 239.032 133.011H239.04Z" fill="#FA7268"/>
<path fill-rule="evenodd" clip-rule="evenodd" d="M230.128 142.412C230.545 143.792 234.157 147 234.157 147C234.157 147 235.334 142.209 234.906 140.829C234.807 140.501 234.647 140.196 234.434 139.933C234.222 139.67 233.962 139.453 233.668 139.294C233.376 139.136 233.056 139.039 232.727 139.01C232.399 138.98 232.067 139.019 231.753 139.122C231.439 139.227 231.147 139.394 230.894 139.616C230.642 139.837 230.434 140.109 230.282 140.414C230.13 140.719 230.038 141.053 230.009 141.396C229.981 141.739 230.018 142.084 230.117 142.412H230.128Z" fill="#FA7268"/>
<path fill-rule="evenodd" clip-rule="evenodd" d="M225.021 150.901C225.211 152.299 228.241 156 228.241 156C228.241 156 230.174 151.6 229.987 150.205C229.942 149.872 229.834 149.553 229.668 149.263C229.502 148.974 229.281 148.721 229.019 148.518C228.757 148.316 228.457 148.168 228.139 148.083C227.821 147.998 227.49 147.978 227.164 148.024C226.837 148.069 226.524 148.18 226.24 148.35C225.956 148.519 225.707 148.744 225.509 149.011C225.31 149.278 225.165 149.582 225.082 149.907C224.998 150.231 224.978 150.569 225.024 150.901H225.021Z" fill="#FA7268"/>
<path fill-rule="evenodd" clip-rule="evenodd" d="M243.398 142.999C241.996 142.964 238 140.36 238 140.36C238 140.36 242.13 137.965 243.529 138C244.202 138.017 244.839 138.297 245.303 138.778C245.766 139.259 246.017 139.902 245.999 140.564C245.982 141.227 245.698 141.856 245.21 142.313C244.722 142.769 244.07 143.017 243.398 142.999Z" fill="#FA7268"/>
<path fill-rule="evenodd" clip-rule="evenodd" d="M237.515 152.864C236.139 152.417 233 148.736 233 148.736C233 148.736 237.843 147.66 239.22 148.11C239.546 148.217 239.849 148.384 240.108 148.603C240.368 148.82 240.579 149.086 240.731 149.381C240.884 149.678 240.973 150 240.995 150.329C241.017 150.658 240.97 150.988 240.858 151.3C240.747 151.613 240.571 151.901 240.342 152.148C240.114 152.396 239.837 152.598 239.527 152.743C239.216 152.888 238.878 152.974 238.533 152.995C238.189 153.016 237.843 152.972 237.515 152.864Z" fill="#FA7268"/>
<path fill-rule="evenodd" clip-rule="evenodd" d="M230.025 160.968C228.633 160.748 225 157.633 225 157.633C225 157.633 229.448 155.798 230.852 156.018C231.521 156.124 232.12 156.486 232.517 157.025C232.913 157.565 233.075 158.236 232.967 158.892C232.86 159.549 232.49 160.136 231.941 160.525C231.391 160.915 230.707 161.074 230.038 160.968H230.025Z" fill="#FA7268"/>
<path opacity="0.1" fill-rule="evenodd" clip-rule="evenodd" d="M147.63 20.2704C134.872 19.8611 122.722 16.0575 111.121 11.8956C99.5191 7.73374 88.0246 3.12158 75.5709 0.929159C67.5635 -0.489301 58.4038 -0.689986 51.9508 3.27552C45.745 7.08133 43.7356 13.6687 42.657 19.782C41.844 24.3812 41.366 29.2214 43.5808 33.5264C45.126 36.5122 47.8675 39.0298 49.7636 41.8926C56.3599 51.8542 51.6968 64.1391 44.5486 73.869C41.1951 78.4316 37.3057 82.7833 34.7166 87.6429C32.1276 92.5018 30.9335 98.0656 33.1969 103.021C35.4418 107.927 40.7885 111.622 46.5811 114.215C58.3463 119.486 72.2174 120.995 85.7314 121.848C115.659 123.74 145.746 122.915 175.753 122.1C186.859 121.797 198.013 121.49 208.937 119.905C215.004 119.024 221.268 117.624 225.67 114.25C231.261 109.966 232.647 102.712 228.904 97.3398C222.619 88.3299 205.243 86.0921 200.851 76.4218C198.435 71.0997 200.918 65.172 204.431 60.2354C211.967 49.6445 224.6 40.3547 225.268 28.251C225.73 19.9316 219.651 11.6122 210.256 7.67835C200.412 3.55676 186.762 4.07538 179.501 10.8994C172.036 17.9284 158.894 20.6308 147.63 20.2704Z" fill="#FA7268"/>
<path fill-rule="evenodd" clip-rule="evenodd" d="M118 92H114C114.002 91.746 114.022 91.4927 114.058 91.2407C114.183 90.3433 114.57 88.8879 115.766 88.2053C116.884 87.5672 118.339 88.5293 117.768 89.5466L117.754 89.5746C117.54 89.9426 117.534 90.4 117.604 90.82C117.679 91.2247 117.812 91.6207 118 92Z" fill="#FA7268"/>
<path fill-rule="evenodd" clip-rule="evenodd" d="M119.753 95.3084C118.76 96.1184 117.371 96.1312 115.95 95.7839C113.039 95.0707 110 92.8386 110 92.8386C110.207 92.6084 110.429 92.3924 110.665 92.1929C111.863 91.1616 114.61 89.3391 118.286 90.2451C119.185 90.4521 119.977 90.9823 120.512 91.7361C121.12 92.6286 121.437 93.9359 119.753 95.3084Z" fill="#FA7268"/>
<path opacity="0.1" fill-rule="evenodd" clip-rule="evenodd" d="M119 93.5255C119 93.5255 116.897 92.0719 114 94L119 93.5255Z" fill="black"/>
<path fill-rule="evenodd" clip-rule="evenodd" d="M59 109.352C59 109.352 52.376 104.384 52.043 108.888C51.7099 113.392 53.3769 117.618 54.8063 117.989C56.2357 118.359 59 109.352 59 109.352Z" fill="#FA7268"/>
<path opacity="0.2" fill-rule="evenodd" clip-rule="evenodd" d="M59 109.352C59 109.352 52.376 104.384 52.043 108.888C51.7099 113.392 53.3769 117.618 54.8063 117.989C56.2357 118.359 59 109.352 59 109.352Z" fill="black"/>
<path opacity="0.1" fill-rule="evenodd" clip-rule="evenodd" d="M55 111C55 111 55.081 115.664 55.7674 114.919C56.4538 114.175 55.4455 111.209 55 111Z" fill="black"/>
<path fill-rule="evenodd" clip-rule="evenodd" d="M75.8474 147.469C75.6879 148.116 75.4422 148.74 75.1161 149.325C75.0328 149.478 74.9425 149.635 74.8429 149.794C73.2484 152.354 69.5608 153.417 69.5608 152.853C69.5608 152.288 69.1973 150.828 68.2705 151.252C67.3437 151.676 65.9312 151.582 65.9312 151.582C63.3802 151.395 63.8115 148.967 64.6564 146.91C64.9373 146.234 65.2585 145.574 65.6185 144.935C65.9369 144.37 66.1754 144 66.1754 144L75.9222 145.506C75.9222 145.506 76.1396 146.249 75.8474 147.469Z" fill="#FA7268"/>
<path opacity="0.1" fill-rule="evenodd" clip-rule="evenodd" d="M116 96C113.065 95.2056 110 92.7192 110 92.7192C110.208 92.4624 110.433 92.2224 110.671 92C111.118 92.2616 111.568 92.5392 112.019 92.8344C113.434 93.7464 114.768 94.8064 116 96Z" fill="black"/>
<path opacity="0.1" fill-rule="evenodd" clip-rule="evenodd" d="M75.8402 147C73.0389 146.736 68.9813 146.01 65 144.079C65.3373 143.427 65.5903 143 65.5903 143L75.9143 144.74C75.9143 144.74 76.1497 145.59 75.8402 147Z" fill="black"/>
<path fill-rule="evenodd" clip-rule="evenodd" d="M117.12 134.653C117.12 134.653 116.94 137.812 115.137 141.384C113.748 144.191 111.606 146.569 108.944 148.256C108.944 148.256 107.35 149.538 107.25 145.989C107.25 145.989 106.551 145.25 101.766 148.481C101.766 148.481 98.8784 150.226 99.6723 142.946C99.6723 142.946 99.6723 142.937 99.6723 142.933C99.6723 142.929 99.6006 142.979 99.4686 143.057H99.46C99.1187 143.264 98.395 143.689 97.5337 144.116C95.9559 144.899 93.9113 145.696 92.8979 145.194C92.6648 147.036 92.0897 148.82 91.2018 150.456C90.1971 152.265 88.6114 154.033 86.1293 154.831C85.5032 155.03 84.8341 155.054 84.1951 154.9C83.5568 154.746 82.973 154.42 82.5097 153.959L82.2257 153.679C82.2257 153.679 80.0319 155.157 78.9361 154.663C77.8395 154.169 76.9409 152.791 78.4362 150.227C78.4362 150.227 78.5158 150.014 78.6126 149.702C78.8564 148.911 79.2107 147.484 78.6363 147.27C78.6363 147.27 55.4057 148.453 52.3161 128.047C49.2263 107.642 69.6638 100.151 75.4449 100.939C75.4449 100.939 90.7995 81.8162 112.036 94.1377C133.272 106.459 117.12 134.653 117.12 134.653Z" fill="#F45C43"/>
<path opacity="0.1" d="M76 101C76 101 101.675 100.903 99.9133 133" stroke="black"/>
<path opacity="0.2" fill-rule="evenodd" clip-rule="evenodd" d="M75 149.379C74.9179 149.529 74.8277 149.684 74.7294 149.841C73.1512 152.364 69.5028 153.411 69.5028 152.855C69.5028 152.299 69.1427 150.861 68.2253 151.277C67.3079 151.695 65.9108 151.603 65.9108 151.603C63.3867 151.418 63.8135 149.026 64.6495 147C67.016 148.142 71.2966 149.843 75 149.379Z" fill="black"/>
<path opacity="0.2" fill-rule="evenodd" clip-rule="evenodd" d="M92 149.854C90.9618 151.902 89.3245 153.905 86.7603 154.81C86.1133 155.034 85.4222 155.061 84.7627 154.886C84.1032 154.712 83.5005 154.344 83.0223 153.821L82.7283 153.503C82.7283 153.503 80.4625 155.178 79.33 154.618C78.1974 154.059 77.2697 152.498 78.8142 149.595C78.8142 149.595 78.8959 149.353 78.9962 149C81.0151 149.772 86.3631 151.415 92 149.854Z" fill="black"/>
<path opacity="0.1" fill-rule="evenodd" clip-rule="evenodd" d="M100 143C109.39 137.995 111 134 111 134L100 143Z" fill="black"/>
<path opacity="0.2" fill-rule="evenodd" clip-rule="evenodd" d="M116 141C114.576 144.086 112.379 146.698 109.649 148.552C109.649 148.552 108.015 149.961 107.912 146.061C107.912 146.061 107.196 145.249 102.289 148.799C102.289 148.799 99.3272 150.716 100.142 142.717L102.596 141.276C107.883 144.391 113.195 142.492 116 141Z" fill="black"/>
<path fill-rule="evenodd" clip-rule="evenodd" d="M79 103.307C79 103.307 83.8593 96.2021 87.5265 98.4338C91.1937 100.665 86.8608 109 86.8608 109C86.8608 109 79.6657 108.863 79 103.307Z" fill="#FA7268"/>
<path opacity="0.2" fill-rule="evenodd" clip-rule="evenodd" d="M79 103.307C79 103.307 83.8593 96.2021 87.5265 98.4338C91.1937 100.665 86.8608 109 86.8608 109C86.8608 109 79.6657 108.863 79 103.307Z" fill="black"/>
<path opacity="0.1" fill-rule="evenodd" clip-rule="evenodd" d="M87 101C87 101 80.3527 103.968 82.3871 105.703C84.4214 107.439 87 101 87 101Z" fill="black"/>
<path opacity="0.1" fill-rule="evenodd" clip-rule="evenodd" d="M70.6898 132.704C75.5712 131.519 78.7713 127.107 77.8383 122.853C76.9046 118.597 72.1911 116.11 67.3104 117.296C62.429 118.482 59.2282 122.893 60.1619 127.148C61.0949 131.403 65.8084 133.89 70.6898 132.704Z" fill="black"/>
<path fill-rule="evenodd" clip-rule="evenodd" d="M70.6898 132.704C75.5712 131.519 78.7713 127.107 77.8383 122.853C76.9046 118.597 72.1911 116.11 67.3104 117.296C62.429 118.482 59.2282 122.893 60.1619 127.148C61.0949 131.403 65.8084 133.89 70.6898 132.704Z" fill="#FA7268"/>
<path opacity="0.2" fill-rule="evenodd" clip-rule="evenodd" d="M70.6898 132.704C75.5712 131.519 78.7713 127.107 77.8383 122.853C76.9046 118.597 72.1911 116.11 67.3104 117.296C62.429 118.482 59.2282 122.893 60.1619 127.148C61.0949 131.403 65.8084 133.89 70.6898 132.704Z" fill="black"/>
<path opacity="0.1" fill-rule="evenodd" clip-rule="evenodd" d="M66 125C66 125 66.0765 127.628 66.726 126.859C67.3754 126.09 66.764 124.997 66 125Z" fill="black"/>
<path opacity="0.1" fill-rule="evenodd" clip-rule="evenodd" d="M70 123C70 123 70.076 125.628 70.7258 124.859C71.3756 124.09 70.7638 122.992 70 123Z" fill="black"/>
<path opacity="0.1" fill-rule="evenodd" clip-rule="evenodd" d="M78 139.528C78 139.528 79.802 140.883 82 139L78 139.528Z" fill="black"/>
<path opacity="0.15" fill-rule="evenodd" clip-rule="evenodd" d="M88 95.4482C89.0842 95.1377 93.0901 97 93.0901 97C94.8167 95.1048 97.3318 93.9692 99.5391 93.2935L100 91C91.2464 91.1103 88 95.4482 88 95.4482Z" fill="black"/>
<path opacity="0.3" fill-rule="evenodd" clip-rule="evenodd" d="M100.456 91L100 93C101.636 92.5867 103.309 92.3133 105 92.1833C102.826 91.1813 100.456 91 100.456 91Z" fill="black"/>
<g opacity="0.1">
<path opacity="0.1" fill-rule="evenodd" clip-rule="evenodd" d="M79.7668 150.818C79.7668 150.818 79.8455 150.605 79.9429 150.293C80.186 149.503 80.5403 148.076 79.9667 147.862C79.9667 147.862 79.7012 147.875 79.2199 147.873C79.168 148.395 79.059 148.908 78.896 149.406C78.7993 149.718 78.7199 149.931 78.7199 149.931C77.2271 152.494 78.1225 153.873 79.2185 154.365L79.2769 154.386C78.8361 153.639 78.8007 152.476 79.7668 150.818Z" fill="white"/>
<path opacity="0.1" fill-rule="evenodd" clip-rule="evenodd" d="M53.6878 128.648C50.6018 108.251 71.6651 99.9628 77.4373 100.756L75.7352 100.671C69.9631 99.8835 49.5567 107.371 52.643 127.767C53.6135 134.18 56.5731 138.459 60.1728 141.313C57.0522 138.475 54.563 134.429 53.6878 128.648Z" fill="white"/>
<path opacity="0.1" fill-rule="evenodd" clip-rule="evenodd" d="M100.967 143.54C100.967 143.54 100.967 143.531 100.967 143.527C100.967 143.523 100.896 143.573 100.764 143.651H100.755C100.554 143.772 100.218 143.972 99.8 144.203C99.6506 147.565 100.53 148.294 101.221 148.357C100.87 147.572 100.687 146.131 100.967 143.54Z" fill="white"/>
<path opacity="0.1" fill-rule="evenodd" clip-rule="evenodd" d="M108.535 146.582C108.535 146.582 108.355 146.394 107.563 146.626C107.77 148.092 108.341 148.252 108.746 148.165C108.607 147.649 108.536 147.116 108.535 146.582Z" fill="white"/>
</g>
<path opacity="0.1" fill-rule="evenodd" clip-rule="evenodd" d="M79 147C79 147 91.7281 146.239 93 145L79 147Z" fill="black"/>
<path fill-rule="evenodd" clip-rule="evenodd" d="M110.5 149C113.537 149 116 146.537 116 143.5C116 140.463 113.537 138 110.5 138C107.463 138 105 140.463 105 143.5C105 146.537 107.463 149 110.5 149Z" fill="#FBD56F"/>
<path opacity="0.1" fill-rule="evenodd" clip-rule="evenodd" d="M110.5 149C113.537 149 116 146.537 116 143.5C116 140.463 113.537 138 110.5 138C107.463 138 105 140.463 105 143.5C105 146.537 107.463 149 110.5 149Z" fill="black"/>
<path fill-rule="evenodd" clip-rule="evenodd" d="M110.5 149C113.537 149 116 146.537 116 143.5C116 140.463 113.537 138 110.5 138C107.463 138 105 140.463 105 143.5C105 146.537 107.463 149 110.5 149Z" fill="#FBD56F"/>
<path fill-rule="evenodd" clip-rule="evenodd" d="M123.299 144.707L122.334 144.206C122.334 144.206 121.882 145.966 122.03 147.222C122.044 147.349 122.098 147.468 122.187 147.565C122.275 147.661 122.392 147.731 122.524 147.763C124.746 148.278 135.323 150.474 142.599 147.379C142.704 147.335 142.795 147.265 142.862 147.177C142.93 147.089 142.972 146.986 142.984 146.878C143.075 146.107 142.759 144.516 142.633 144.206C142.369 143.538 123.299 144.707 123.299 144.707Z" fill="#FBD56F"/>
<path opacity="0.1" fill-rule="evenodd" clip-rule="evenodd" d="M123.299 144.707L122.334 144.206C122.334 144.206 121.882 145.966 122.03 147.222C122.044 147.349 122.098 147.468 122.187 147.565C122.275 147.661 122.392 147.731 122.524 147.763C124.746 148.278 135.323 150.474 142.599 147.379C142.704 147.335 142.795 147.265 142.862 147.177C142.93 147.089 142.972 146.986 142.984 146.878C143.075 146.107 142.759 144.516 142.633 144.206C142.369 143.538 123.299 144.707 123.299 144.707Z" fill="black"/>
<path fill-rule="evenodd" clip-rule="evenodd" d="M133 147C138.523 147 143 145.88 143 144.5C143 143.12 138.523 142 133 142C127.478 142 123 143.12 123 144.5C123 145.88 127.478 147 133 147Z" fill="#FBD56F"/>
<path fill-rule="evenodd" clip-rule="evenodd" d="M127.297 141.707L126.333 141.206C126.333 141.206 125.881 142.966 126.03 144.223C126.044 144.349 126.098 144.468 126.186 144.564C126.275 144.66 126.393 144.729 126.524 144.761C128.747 145.278 139.323 147.475 146.599 144.38C146.704 144.335 146.795 144.264 146.863 144.177C146.93 144.089 146.972 143.986 146.985 143.878C147.073 143.107 146.757 141.515 146.631 141.206C146.357 140.538 127.297 141.707 127.297 141.707Z" fill="#FBD56F"/>
<path opacity="0.1" fill-rule="evenodd" clip-rule="evenodd" d="M127.297 141.707L126.333 141.206C126.333 141.206 125.881 142.966 126.03 144.223C126.044 144.349 126.098 144.468 126.186 144.564C126.275 144.66 126.393 144.729 126.524 144.761C128.747 145.278 139.323 147.475 146.599 144.38C146.704 144.335 146.795 144.264 146.863 144.177C146.93 144.089 146.972 143.986 146.985 143.878C147.073 143.107 146.757 141.515 146.631 141.206C146.357 140.538 127.297 141.707 127.297 141.707Z" fill="black"/>
<path fill-rule="evenodd" clip-rule="evenodd" d="M137 144C142.522 144 147 142.881 147 141.5C147 140.119 142.522 139 137 139C131.477 139 127 140.119 127 141.5C127 142.881 131.477 144 137 144Z" fill="#FBD56F"/>
<path fill-rule="evenodd" clip-rule="evenodd" d="M131.299 137.707L130.333 137.206C130.333 137.206 129.881 138.966 130.03 140.223C130.044 140.349 130.098 140.468 130.187 140.565C130.275 140.661 130.393 140.73 130.524 140.763C132.746 141.278 143.324 143.475 150.597 140.379C150.702 140.335 150.794 140.265 150.861 140.177C150.929 140.089 150.972 139.986 150.985 139.878C151.073 139.107 150.757 137.515 150.631 137.206C150.367 136.538 131.299 137.707 131.299 137.707Z" fill="#FBD56F"/>
<path opacity="0.1" fill-rule="evenodd" clip-rule="evenodd" d="M131.299 137.707L130.333 137.206C130.333 137.206 129.881 138.966 130.03 140.223C130.044 140.349 130.098 140.468 130.187 140.565C130.275 140.661 130.393 140.73 130.524 140.763C132.746 141.278 143.324 143.475 150.597 140.379C150.702 140.335 150.794 140.265 150.861 140.177C150.929 140.089 150.972 139.986 150.985 139.878C151.073 139.107 150.757 137.515 150.631 137.206C150.367 136.538 131.299 137.707 131.299 137.707Z" fill="black"/>
<path fill-rule="evenodd" clip-rule="evenodd" d="M140 139C145.523 139 150 137.88 150 136.5C150 135.12 145.523 134 140 134C134.478 134 130 135.12 130 136.5C130 137.88 134.478 139 140 139Z" fill="#FBD56F"/>
<path fill-rule="evenodd" clip-rule="evenodd" d="M127.299 132.71L126.333 132.207C126.333 132.207 125.883 133.968 126.029 135.222C126.043 135.348 126.098 135.468 126.186 135.564C126.275 135.66 126.392 135.73 126.523 135.763C128.746 136.278 139.323 138.473 146.596 135.382C146.702 135.337 146.794 135.267 146.862 135.179C146.93 135.091 146.972 134.988 146.984 134.88C147.074 134.109 146.757 132.518 146.631 132.207C146.369 131.537 127.299 132.71 127.299 132.71Z" fill="#FBD56F"/>
<path opacity="0.1" fill-rule="evenodd" clip-rule="evenodd" d="M127.299 132.71L126.333 132.207C126.333 132.207 125.883 133.968 126.029 135.222C126.043 135.348 126.098 135.468 126.186 135.564C126.275 135.66 126.392 135.73 126.523 135.763C128.746 136.278 139.323 138.473 146.596 135.382C146.702 135.337 146.794 135.267 146.862 135.179C146.93 135.091 146.972 134.988 146.984 134.88C147.074 134.109 146.757 132.518 146.631 132.207C146.369 131.537 127.299 132.71 127.299 132.71Z" fill="black"/>
<path fill-rule="evenodd" clip-rule="evenodd" d="M136 135C141.523 135 146 133.88 146 132.5C146 131.12 141.523 130 136 130C130.478 130 126 131.12 126 132.5C126 133.88 130.478 135 136 135Z" fill="#FBD56F"/>
<path fill-rule="evenodd" clip-rule="evenodd" d="M135.297 128.711L134.334 128.207C134.334 128.207 133.882 129.969 134.03 131.223C134.043 131.349 134.098 131.469 134.186 131.565C134.275 131.662 134.392 131.731 134.524 131.763C136.747 132.278 147.323 134.474 154.597 131.382C154.702 131.337 154.793 131.267 154.861 131.179C154.93 131.091 154.971 130.989 154.984 130.881C155.074 130.11 154.757 128.517 154.632 128.207C154.367 127.536 135.297 128.711 135.297 128.711Z" fill="#FBD56F"/>
<path opacity="0.1" fill-rule="evenodd" clip-rule="evenodd" d="M135.297 128.711L134.334 128.207C134.334 128.207 133.882 129.969 134.03 131.223C134.043 131.349 134.098 131.469 134.186 131.565C134.275 131.662 134.392 131.731 134.524 131.763C136.747 132.278 147.323 134.474 154.597 131.382C154.702 131.337 154.793 131.267 154.861 131.179C154.93 131.091 154.971 130.989 154.984 130.881C155.074 130.11 154.757 128.517 154.632 128.207C154.367 127.536 135.297 128.711 135.297 128.711Z" fill="black"/>
<path fill-rule="evenodd" clip-rule="evenodd" d="M145 131C150.522 131 155 129.881 155 128.5C155 127.119 150.522 126 145 126C139.477 126 135 127.119 135 128.5C135 129.881 139.477 131 145 131Z" fill="#FBD56F"/>
<path fill-rule="evenodd" clip-rule="evenodd" d="M130.299 126.709L129.333 126.206C129.333 126.206 128.883 127.968 129.029 129.222C129.043 129.348 129.098 129.467 129.186 129.564C129.274 129.66 129.392 129.729 129.523 129.763C131.746 130.278 142.322 132.474 149.597 129.382C149.703 129.336 149.793 129.267 149.862 129.179C149.93 129.091 149.972 128.988 149.985 128.88C150.073 128.109 149.757 126.515 149.631 126.206C149.369 125.538 130.299 126.709 130.299 126.709Z" fill="#FBD56F"/>
<path opacity="0.1" fill-rule="evenodd" clip-rule="evenodd" d="M130.299 126.709L129.333 126.206C129.333 126.206 128.883 127.968 129.029 129.222C129.043 129.348 129.098 129.467 129.186 129.564C129.274 129.66 129.392 129.729 129.523 129.763C131.746 130.278 142.322 132.474 149.597 129.382C149.703 129.336 149.793 129.267 149.862 129.179C149.93 129.091 149.972 128.988 149.985 128.88C150.073 128.109 149.757 126.515 149.631 126.206C149.369 125.538 130.299 126.709 130.299 126.709Z" fill="black"/>
<path fill-rule="evenodd" clip-rule="evenodd" d="M139 128C144.522 128 149 126.881 149 125.5C149 124.119 144.522 123 139 123C133.477 123 129 124.119 129 125.5C129 126.881 133.477 128 139 128Z" fill="#FBD56F"/>
<path fill-rule="evenodd" clip-rule="evenodd" d="M134.297 121.709L133.334 121.206C133.334 121.206 132.882 122.968 133.03 124.222C133.043 124.348 133.098 124.468 133.187 124.564C133.275 124.661 133.392 124.73 133.524 124.762C135.747 125.278 146.323 127.474 153.599 124.382C153.704 124.336 153.796 124.267 153.863 124.179C153.93 124.091 153.972 123.988 153.985 123.88C154.073 123.108 153.757 121.517 153.631 121.206C153.37 120.538 134.297 121.709 134.297 121.709Z" fill="#FBD56F"/>
<path opacity="0.1" fill-rule="evenodd" clip-rule="evenodd" d="M134.297 121.709L133.334 121.206C133.334 121.206 132.882 122.968 133.03 124.222C133.043 124.348 133.098 124.468 133.187 124.564C133.275 124.661 133.392 124.73 133.524 124.762C135.747 125.278 146.323 127.474 153.599 124.382C153.704 124.336 153.796 124.267 153.863 124.179C153.93 124.091 153.972 123.988 153.985 123.88C154.073 123.108 153.757 121.517 153.631 121.206C153.37 120.538 134.297 121.709 134.297 121.709Z" fill="black"/>
<path fill-rule="evenodd" clip-rule="evenodd" d="M143 124C148.523 124 153 122.881 153 121.5C153 120.119 148.523 119 143 119C137.477 119 133 120.119 133 121.5C133 122.881 137.477 124 143 124Z" fill="#FBD56F"/>
<path fill-rule="evenodd" clip-rule="evenodd" d="M135.299 115.709L134.333 115.206C134.333 115.206 133.883 116.968 134.029 118.222C134.043 118.348 134.098 118.467 134.187 118.564C134.275 118.661 134.392 118.729 134.523 118.762C136.746 119.278 147.323 121.474 154.597 118.382C154.702 118.336 154.794 118.267 154.862 118.179C154.93 118.091 154.972 117.988 154.984 117.881C155.074 117.108 154.757 115.517 154.632 115.206C154.367 114.538 135.299 115.709 135.299 115.709Z" fill="#FBD56F"/>
<path opacity="0.1" fill-rule="evenodd" clip-rule="evenodd" d="M135.299 115.709L134.333 115.206C134.333 115.206 133.883 116.968 134.029 118.222C134.043 118.348 134.098 118.467 134.187 118.564C134.275 118.661 134.392 118.729 134.523 118.762C136.746 119.278 147.323 121.474 154.597 118.382C154.702 118.336 154.794 118.267 154.862 118.179C154.93 118.091 154.972 117.988 154.984 117.881C155.074 117.108 154.757 115.517 154.632 115.206C154.367 114.538 135.299 115.709 135.299 115.709Z" fill="black"/>
<path fill-rule="evenodd" clip-rule="evenodd" d="M145 118C150.523 118 155 116.881 155 115.5C155 114.119 150.523 113 145 113C139.478 113 135 114.119 135 115.5C135 116.881 139.478 118 145 118Z" fill="#FBD56F"/>
<path fill-rule="evenodd" clip-rule="evenodd" d="M152.299 146.709L151.333 146.206C151.333 146.206 150.881 147.968 151.03 149.222C151.044 149.348 151.098 149.468 151.186 149.564C151.275 149.661 151.393 149.73 151.524 149.762C153.746 150.277 164.322 152.474 171.598 149.381C171.704 149.336 171.795 149.266 171.862 149.178C171.93 149.089 171.971 148.986 171.984 148.878C172.075 148.106 171.759 146.515 171.633 146.206C171.369 145.538 152.299 146.709 152.299 146.709Z" fill="#FBD56F"/>
<path opacity="0.1" fill-rule="evenodd" clip-rule="evenodd" d="M152.299 146.709L151.333 146.206C151.333 146.206 150.881 147.968 151.03 149.222C151.044 149.348 151.098 149.468 151.186 149.564C151.275 149.661 151.393 149.73 151.524 149.762C153.746 150.277 164.322 152.474 171.598 149.381C171.704 149.336 171.795 149.266 171.862 149.178C171.93 149.089 171.971 148.986 171.984 148.878C172.075 148.106 171.759 146.515 171.633 146.206C171.369 145.538 152.299 146.709 152.299 146.709Z" fill="black"/>
<path fill-rule="evenodd" clip-rule="evenodd" d="M162 148C167.522 148 172 146.88 172 145.5C172 144.12 167.522 143 162 143C156.477 143 152 144.12 152 145.5C152 146.88 156.477 148 162 148Z" fill="#FBD56F"/>
<path fill-rule="evenodd" clip-rule="evenodd" d="M156.298 141.709L155.333 141.206C155.333 141.206 154.883 142.968 155.029 144.222C155.043 144.348 155.098 144.468 155.186 144.564C155.274 144.66 155.392 144.729 155.523 144.762C157.746 145.277 168.322 147.474 175.597 144.381C175.702 144.337 175.793 144.267 175.861 144.179C175.93 144.091 175.972 143.988 175.985 143.88C176.073 143.109 175.757 141.515 175.631 141.206C175.37 140.538 156.298 141.709 156.298 141.709Z" fill="#FBD56F"/>
<path opacity="0.1" fill-rule="evenodd" clip-rule="evenodd" d="M156.298 141.709L155.333 141.206C155.333 141.206 154.883 142.968 155.029 144.222C155.043 144.348 155.098 144.468 155.186 144.564C155.274 144.66 155.392 144.729 155.523 144.762C157.746 145.277 168.322 147.474 175.597 144.381C175.702 144.337 175.793 144.267 175.861 144.179C175.93 144.091 175.972 143.988 175.985 143.88C176.073 143.109 175.757 141.515 175.631 141.206C175.37 140.538 156.298 141.709 156.298 141.709Z" fill="black"/>
<path fill-rule="evenodd" clip-rule="evenodd" d="M165 144C170.522 144 175 142.88 175 141.5C175 140.12 170.522 139 165 139C159.477 139 155 140.12 155 141.5C155 142.88 159.477 144 165 144Z" fill="#FBD56F"/>
<path fill-rule="evenodd" clip-rule="evenodd" d="M152.297 137.702L151.334 137.201C151.334 137.201 150.882 138.963 151.03 140.22C151.043 140.347 151.098 140.466 151.187 140.563C151.275 140.659 151.392 140.727 151.524 140.76C153.746 141.277 164.323 143.476 171.599 140.378C171.705 140.333 171.796 140.263 171.863 140.175C171.931 140.087 171.973 139.984 171.984 139.876C172.074 139.104 171.757 137.51 171.631 137.201C171.369 136.546 152.297 137.702 152.297 137.702Z" fill="#FBD56F"/>
<path opacity="0.1" fill-rule="evenodd" clip-rule="evenodd" d="M152.297 137.702L151.334 137.201C151.334 137.201 150.882 138.963 151.03 140.22C151.043 140.347 151.098 140.466 151.187 140.563C151.275 140.659 151.392 140.727 151.524 140.76C153.746 141.277 164.323 143.476 171.599 140.378C171.705 140.333 171.796 140.263 171.863 140.175C171.931 140.087 171.973 139.984 171.984 139.876C172.074 139.104 171.757 137.51 171.631 137.201C171.369 136.546 152.297 137.702 152.297 137.702Z" fill="black"/>
<path fill-rule="evenodd" clip-rule="evenodd" d="M162 139C167.523 139 172 137.881 172 136.5C172 135.119 167.523 134 162 134C156.477 134 152 135.119 152 136.5C152 137.881 156.477 139 162 139Z" fill="#FBD56F"/>
<path fill-rule="evenodd" clip-rule="evenodd" d="M161.3 133.709L160.333 133.207C160.333 133.207 159.881 134.971 160.03 136.217C160.044 136.343 160.098 136.463 160.186 136.56C160.274 136.657 160.393 136.726 160.524 136.758C162.747 137.277 173.323 139.477 180.599 136.377C180.705 136.332 180.796 136.262 180.863 136.174C180.931 136.085 180.973 135.982 180.984 135.874C181.073 135.101 180.759 133.505 180.634 133.195C180.369 132.551 161.3 133.709 161.3 133.709Z" fill="#FBD56F"/>
<path opacity="0.1" fill-rule="evenodd" clip-rule="evenodd" d="M161.3 133.709L160.333 133.207C160.333 133.207 159.881 134.971 160.03 136.217C160.044 136.343 160.098 136.463 160.186 136.56C160.274 136.657 160.393 136.726 160.524 136.758C162.747 137.277 173.323 139.477 180.599 136.377C180.705 136.332 180.796 136.262 180.863 136.174C180.931 136.085 180.973 135.982 180.984 135.874C181.073 135.101 180.759 133.505 180.634 133.195C180.369 132.551 161.3 133.709 161.3 133.709Z" fill="black"/>
<path fill-rule="evenodd" clip-rule="evenodd" d="M170 136C175.523 136 180 134.88 180 133.5C180 132.12 175.523 131 170 131C164.478 131 160 132.12 160 133.5C160 134.88 164.478 136 170 136Z" fill="#FBD56F"/>
<path fill-rule="evenodd" clip-rule="evenodd" d="M155.297 130.707L154.333 130.206C154.333 130.206 153.881 131.966 154.03 133.223C154.044 133.349 154.099 133.468 154.187 133.564C154.275 133.661 154.393 133.729 154.524 133.761C156.747 134.279 167.323 136.474 174.6 133.38C174.705 133.336 174.796 133.265 174.863 133.178C174.931 133.089 174.973 132.987 174.985 132.879C175.073 132.107 174.757 130.516 174.631 130.206C174.37 129.538 155.297 130.707 155.297 130.707Z" fill="#FBD56F"/>
<path opacity="0.1" fill-rule="evenodd" clip-rule="evenodd" d="M155.297 130.707L154.333 130.206C154.333 130.206 153.881 131.966 154.03 133.223C154.044 133.349 154.099 133.468 154.187 133.564C154.275 133.661 154.393 133.729 154.524 133.761C156.747 134.279 167.323 136.474 174.6 133.38C174.705 133.336 174.796 133.265 174.863 133.178C174.931 133.089 174.973 132.987 174.985 132.879C175.073 132.107 174.757 130.516 174.631 130.206C174.37 129.538 155.297 130.707 155.297 130.707Z" fill="black"/>
<path fill-rule="evenodd" clip-rule="evenodd" d="M164 133C169.523 133 174 131.88 174 130.5C174 129.12 169.523 128 164 128C158.478 128 154 129.12 154 130.5C154 131.88 158.478 133 164 133Z" fill="#FBD56F"/>
<path fill-rule="evenodd" clip-rule="evenodd" d="M159.299 126.707L158.333 126.206C158.333 126.206 157.882 127.966 158.03 129.222C158.043 129.349 158.098 129.468 158.187 129.565C158.275 129.661 158.392 129.731 158.524 129.763C160.746 130.278 171.323 132.474 178.596 129.379C178.702 129.335 178.793 129.265 178.862 129.177C178.93 129.089 178.972 128.986 178.984 128.878C179.074 128.107 178.757 126.516 178.631 126.206C178.369 125.538 159.299 126.707 159.299 126.707Z" fill="#FBD56F"/>
<path opacity="0.1" fill-rule="evenodd" clip-rule="evenodd" d="M159.299 126.707L158.333 126.206C158.333 126.206 157.882 127.966 158.03 129.222C158.043 129.349 158.098 129.468 158.187 129.565C158.275 129.661 158.392 129.731 158.524 129.763C160.746 130.278 171.323 132.474 178.596 129.379C178.702 129.335 178.793 129.265 178.862 129.177C178.93 129.089 178.972 128.986 178.984 128.878C179.074 128.107 178.757 126.516 178.631 126.206C178.369 125.538 159.299 126.707 159.299 126.707Z" fill="black"/>
<path fill-rule="evenodd" clip-rule="evenodd" d="M168 128C173.523 128 178 126.88 178 125.5C178 124.12 173.523 123 168 123C162.478 123 158 124.12 158 125.5C158 126.88 162.478 128 168 128Z" fill="#FBD56F"/>
<path fill-rule="evenodd" clip-rule="evenodd" d="M161.297 120.707L160.333 120.206C160.333 120.206 159.881 121.966 160.03 123.222C160.044 123.349 160.098 123.468 160.187 123.565C160.275 123.661 160.393 123.731 160.524 123.763C162.747 124.278 173.323 126.474 180.6 123.379C180.705 123.335 180.796 123.265 180.863 123.177C180.931 123.089 180.973 122.986 180.985 122.878C181.073 122.107 180.757 120.516 180.631 120.206C180.37 119.538 161.297 120.707 161.297 120.707Z" fill="#FBD56F"/>
<path opacity="0.1" fill-rule="evenodd" clip-rule="evenodd" d="M161.297 120.707L160.333 120.206C160.333 120.206 159.881 121.966 160.03 123.222C160.044 123.349 160.098 123.468 160.187 123.565C160.275 123.661 160.393 123.731 160.524 123.763C162.747 124.278 173.323 126.474 180.6 123.379C180.705 123.335 180.796 123.265 180.863 123.177C180.931 123.089 180.973 122.986 180.985 122.878C181.073 122.107 180.757 120.516 180.631 120.206C180.37 119.538 161.297 120.707 161.297 120.707Z" fill="black"/>
<path fill-rule="evenodd" clip-rule="evenodd" d="M170 123C175.523 123 180 121.88 180 120.5C180 119.12 175.523 118 170 118C164.478 118 160 119.12 160 120.5C160 121.88 164.478 123 170 123Z" fill="#FBD56F"/>
<path fill-rule="evenodd" clip-rule="evenodd" d="M90.0342 91.8541C90.0342 88.7644 92.7185 86.2558 96.0313 86.2558C96.3556 86.2558 96.68 86.2805 97 86.3286C96.3593 86.1114 95.68 86 94.9949 86C91.6836 86 89 88.5623 89 91.7234C89 94.0974 90.5149 96.1331 92.672 97C92.776 96.9182 92.9047 96.8206 93.0582 96.7126C92.1295 96.208 91.3622 95.4944 90.832 94.6426C90.3018 93.7908 90.0269 92.8296 90.0342 91.8541Z" fill="#FBD56F"/>
<path opacity="0.1" fill-rule="evenodd" clip-rule="evenodd" d="M90.0342 91.8541C90.0342 88.7644 92.7185 86.2558 96.0313 86.2558C96.3556 86.2558 96.68 86.2805 97 86.3286C96.3593 86.1114 95.68 86 94.9949 86C91.6836 86 89 88.5623 89 91.7234C89 94.0974 90.5149 96.1331 92.672 97C92.776 96.9182 92.9047 96.8206 93.0582 96.7126C92.1295 96.208 91.3622 95.4944 90.832 94.6426C90.3018 93.7908 90.0269 92.8296 90.0342 91.8541Z" fill="black"/>
<path fill-rule="evenodd" clip-rule="evenodd" d="M100.177 90.9673C100.176 91.6575 100.091 92.3425 99.9227 93C100.212 92.9127 100.515 92.8415 100.826 92.7585C100.941 92.2182 101 91.6618 101 91.1025C101 88.0276 99.268 85.4793 97 85C98.8513 85.8756 100.177 88.2145 100.177 90.9673Z" fill="#FBD56F"/>
<path fill-rule="evenodd" clip-rule="evenodd" d="M91.0001 90.8857C90.9937 91.9131 91.2444 92.9251 91.728 93.8213C92.2122 94.7181 92.913 95.4691 93.7608 96C94.7908 95.1515 97.0622 93.591 100.709 92.6875C100.901 92.062 100.999 91.4093 101 90.753C101 88.1328 99.4807 85.9064 97.3579 85.077C97.0658 85.0264 96.7701 85 96.4736 85C93.4494 85.0044 91.0001 87.64 91.0001 90.8857Z" fill="#FBD56F"/>
<path fill-rule="evenodd" clip-rule="evenodd" d="M220.201 159.056C220.807 159.468 221.152 159.703 222.053 159.735C223.46 159.786 227.239 160.795 226.988 161.985C226.737 163.176 222.511 164.664 219.445 164.664C216.38 164.664 202.453 164.418 202.453 164.418V161.54C202.453 161.54 202.005 157.89 202.785 155.676C202.826 155.56 202.874 155.448 202.921 155.339C202.859 155.356 202.802 155.374 202.755 155.391C202.755 155.391 203.257 152.611 202.704 151.967C202.15 151.322 203.508 150.233 203.508 150.233L203.107 148.297L203.71 139.22C203.71 139.22 203.922 137.54 203.464 136.49C203.007 135.44 203.309 127.352 203.71 125.667C204.111 123.983 204.313 121.997 203.306 122.442C202.574 122.77 196.015 123.938 192.066 124.585L191.195 124.727C190.524 125.923 189.616 126.968 188.526 127.8C188.526 127.8 185.507 130.975 185.66 131.595C185.812 132.215 182.243 135.688 182.243 135.688C182.243 135.688 180.134 138.713 180.275 139.309C180.415 139.904 177.708 144.418 177.708 144.418C177.708 144.418 176.451 147.99 175.849 148.336C175.246 148.683 175.246 149.874 175.246 149.874C175.246 149.874 174.341 152.85 173.738 153.148L173.425 154.87L173.433 154.878C173.451 154.897 173.467 154.915 173.484 154.936C174.83 156.444 176.997 158.822 177.608 159.191C177.841 159.331 178.057 159.514 178.296 159.716C178.985 160.299 179.864 161.042 181.881 161.373C184.597 161.818 185.05 164.103 182.988 164.647C180.926 165.191 169.061 164.944 169.061 164.944L159.912 160.925L160.515 158.495C160.515 158.495 160.743 153.745 163.371 151.345L163.469 151.261C163.181 150.376 163.015 149.455 162.977 148.525L169.817 135.181C169.817 135.181 172.036 132.656 171.927 131.115C171.819 129.576 175.556 125.864 175.556 125.864C175.556 125.864 173.445 126.26 171.888 125.07C171.888 125.07 164.232 121.55 161.279 121.55C159.371 121.55 159.083 117.899 159.124 115.307V115.041V115.004C158.681 115.338 158.181 115.588 157.649 115.742C156.189 116.089 157.649 113.708 157.649 113.708C157.649 113.708 158.603 112.321 158.603 111.824C158.603 111.327 159.811 110.237 159.811 110.237L161.098 105.394C161.098 105.394 160.999 103.559 161.501 103.062C162.003 102.565 162.153 101.227 162.153 101.227C162.153 101.227 161.954 98.3987 162.658 97.5054C163.053 97.0013 163.659 96.0865 164.111 95.3856L164.237 95.1932C164.094 94.5735 163.819 93.7003 163.309 93.1423C162.456 92.1973 163.11 90.6032 163.11 90.6032C163.11 90.6032 162.296 81.36 162.844 78.1279C162.573 78.217 162.309 78.3275 162.054 78.4575C162.209 78.3491 162.337 78.2076 162.431 78.0439C162.268 78.1071 162.109 78.1796 161.954 78.2608C162.658 77.8622 163.562 74.8369 163.562 74.8369C165.141 70.5313 166.555 69.1033 167.624 68.0229C167.786 67.859 167.941 67.703 168.087 67.5462C168.813 66.7664 171.458 66.1144 173.194 65.7575C174.03 65.5938 174.894 65.6419 175.706 65.8982C175.825 65.9413 175.953 65.9593 176.08 65.9492C176.365 65.9169 176.652 65.9169 176.936 65.9492H177.209C177.523 65.9492 177.835 65.9837 178.141 66.0526C178.454 66.1438 178.959 64.9511 179.204 63.7626C179.221 63.6743 179.236 63.5881 179.251 63.5048C178.074 62.5484 177.17 61.2989 176.631 59.8814C176.286 58.9716 176.101 58.0086 176.087 57.0356V56.8776V56.7872C175.823 56.9186 175.548 57.027 175.266 57.1117C175.185 57.1369 175.103 57.1577 175.02 57.1735H174.963C174.913 57.1828 174.862 57.1893 174.811 57.1929H174.761C174.707 57.1965 174.653 57.1965 174.599 57.1929H174.569L174.466 57.1656L174.424 57.1462C174.402 57.1347 174.38 57.1218 174.36 57.1067L174.324 57.0794C174.299 57.0572 174.278 57.0327 174.26 57.0062C174.25 56.9889 174.242 56.9717 174.235 56.9545C174.227 56.9394 174.221 56.9236 174.215 56.9078C174.207 56.8855 174.201 56.8633 174.195 56.841V56.8044C174.177 56.7031 174.177 56.5997 174.195 56.4992C174.304 56.0698 174.517 55.6748 174.816 55.3481C174.859 55.2989 174.904 55.2498 174.948 55.2005C175.279 54.8334 175.618 54.4585 175.746 53.9881C175.827 53.6635 175.817 53.3231 175.718 53.0036C175.711 52.9823 175.704 52.9563 175.696 52.9311L175.696 52.9309L175.696 52.9309C175.684 52.8924 175.673 52.8556 175.667 52.8391C175.663 52.8302 175.659 52.8211 175.654 52.8118C175.645 52.7926 175.635 52.7728 175.635 52.753L175.578 52.6129L175.541 52.5289C175.515 52.4737 175.488 52.4185 175.461 52.3619L175.461 52.3618L175.448 52.335L175.386 52.2166L175.339 52.1304C175.254 51.9761 175.165 51.8222 175.075 51.6692C174.966 51.4812 174.857 51.2945 174.759 51.11C174.323 50.2828 174.098 49.3607 174.105 48.4265C174.074 48.0452 174.192 47.6668 174.434 47.3709C174.65 47.1885 174.91 47.0686 175.189 47.0241C175.557 46.9367 175.931 46.8729 176.305 46.8092C176.886 46.7102 177.466 46.6112 178.021 46.4238C178.933 46.1164 179.817 45.4967 180.092 44.5819C180.215 44.1727 180.214 43.7211 180.213 43.2762C180.213 42.5733 180.212 41.887 180.695 41.4108C181.136 40.9757 181.849 40.9139 182.444 41.0963C183.027 41.3139 183.566 41.6341 184.036 42.0406L188.248 45.2849C188.75 45.6741 189.284 46.0726 189.916 46.166C190.294 46.194 190.675 46.1868 191.053 46.1437C191.736 46.1057 192.419 46.2277 193.047 46.4999C193.675 46.7713 194.231 47.1864 194.671 47.7106C195.058 48.2068 195.307 48.7963 195.392 49.4203V49.4498C195.412 49.5209 195.412 49.592 195.412 49.6638V49.7226V49.9244V49.9984V50.1801C195.412 50.1899 195.412 50.197 195.413 50.2041C195.414 50.2183 195.415 50.2325 195.412 50.2684C195.41 50.2839 195.409 50.301 195.409 50.3182L195.409 50.3184C195.407 50.3617 195.405 50.4061 195.392 50.4307C195.382 50.4509 195.381 50.4662 195.381 50.4852C195.38 50.4986 195.379 50.5139 195.375 50.5341C195.365 50.5836 195.353 50.6375 195.343 50.677C195.338 50.698 195.333 50.7181 195.327 50.7387L195.321 50.7627L195.313 50.7947C195.305 50.8301 195.295 50.86 195.284 50.8945L195.277 50.9154L195.27 50.9353L195.263 50.9588L195.263 50.9589L195.263 50.9589C195.253 50.9887 195.244 51.018 195.232 51.0461L195.193 51.1416C195.173 51.1911 195.154 51.24 195.129 51.2895C195.127 51.2927 195.125 51.2961 195.122 51.2997C195.117 51.3073 195.112 51.3157 195.112 51.324C195.08 51.3879 195.048 51.4518 195.011 51.5135C194.872 51.7484 194.701 51.9659 194.53 52.1827C194.229 52.5653 193.929 52.9461 193.81 53.4172V53.4466C193.648 54.1239 193.909 54.7905 194.17 55.457L194.17 55.4571C194.27 55.7107 194.369 55.9643 194.445 56.2184C194.523 56.4798 194.578 56.7469 194.607 57.0184V57.0995C194.622 57.1656 194.622 57.2546 194.622 57.2984V57.4291V57.5936V57.7365V57.8865C194.622 57.9028 194.623 57.9188 194.624 57.9349V57.935V57.935V57.9351C194.626 57.9674 194.627 57.9998 194.622 58.0338L194.619 58.0568L194.611 58.1003C194.606 58.1327 194.6 58.1643 194.597 58.1889C194.595 58.2042 194.593 58.2197 194.59 58.2351C194.585 58.2616 194.58 58.2882 194.58 58.3145C194.536 58.5529 194.307 58.8308 194.12 58.8308C194.087 58.8315 194.054 58.8236 194.026 58.8078C193.996 58.7921 193.973 58.7684 193.955 58.7404C194.216 59.2322 193.739 59.8742 193.175 59.9697C193.106 59.9812 193.035 59.9877 192.964 59.9898H192.91C192.878 60.0731 192.846 60.1543 192.811 60.2354C192.16 61.7506 191.088 63.0474 189.721 63.9716C189.696 64.06 189.669 64.1398 189.642 64.2207L189.642 64.2207C189.628 64.264 189.613 64.3076 189.598 64.3529C189.227 65.5212 188.811 66.882 188.459 68.1803C189.264 68.0862 190.075 68.0625 190.882 68.1092C192.59 68.158 194.1 70.9356 194.1 70.9356C194.1 70.9356 196.763 73.5157 196.964 74.2093C197.166 74.903 199.983 77.6827 199.983 77.6827C199.977 78.2529 199.916 78.8209 199.801 79.3795L200.022 79.5813C200.448 79.9799 200.94 80.4445 201.289 80.8114C202.052 81.6034 204.758 86.9604 204.758 86.9604C204.758 86.9604 206.263 88.7462 206.768 90.2836C207.272 91.8211 208.126 94.0026 208.126 94.0026C208.126 94.0026 209.329 99.1218 209.531 100.361C209.733 101.601 210.488 108.794 210.488 108.794C210.488 108.794 210.141 109.733 209.548 110.963L209.823 110.99C210.739 111.079 211.341 111.125 211.341 111.125C211.341 111.125 215.858 111.371 215.769 119.06C215.681 126.749 215.277 130.52 215.277 130.52C215.277 130.52 214.68 136.869 215.127 137.86C215.576 138.851 215.329 143.119 215.329 143.119C215.329 143.119 215.632 148.715 215.229 149.667C214.825 150.619 215.277 154.587 215.277 154.587H214.786L215.056 154.879C216.212 156.121 217.762 157.666 218.786 158.197C219.437 158.536 219.86 158.824 220.201 159.056ZM181.534 108.173L182.444 108.097H182.442C182.138 108.104 181.835 108.129 181.534 108.173ZM188.007 70.0229C188.135 69.447 188.29 68.8323 188.462 68.1975L188.007 70.0229ZM187.022 109.487C187.892 109.83 188.859 109.83 189.729 109.487L189.726 109.5C191.082 108.892 199.373 108.924 201.855 109.757C202.113 109.839 202.421 109.923 202.768 110.004C202.905 109.762 203.043 109.538 203.171 109.334C203.57 108.72 204.115 108.213 204.758 107.859C205.066 107.679 205.272 107.369 204.819 106.848C203.917 105.807 202.005 98.3176 202.005 98.3176C202.005 98.3176 201.754 94.9426 200.898 93.5057C200.31 92.5801 199.519 91.7995 198.585 91.2236C198.585 91.2236 195.439 86.7715 194.366 84.6043C194.328 84.5297 194.294 84.4562 194.261 84.3865C194.247 84.3576 194.234 84.3294 194.221 84.302C193.995 84.3286 193.86 84.3286 193.86 84.3286C193.86 84.3286 193.355 83.2859 192.452 83.8812C191.779 84.3254 190.627 89.519 189.898 92.8074C189.65 93.926 189.45 94.8241 189.336 95.2399C188.882 96.8785 188.43 100.499 188.43 100.499C188.43 100.499 187.879 103.119 187.476 104.568C187.072 106.016 187.022 109.487 187.022 109.487Z" fill="url(#paint0_linear_0:2103)"/>
<path fill-rule="evenodd" clip-rule="evenodd" d="M202.124 161.013V163.763C202.124 163.763 215.669 164 218.652 164C221.636 164 225.744 162.578 225.988 161.44C226.233 160.302 222.565 159.354 221.196 159.307C219.827 159.259 219.777 158.738 218.016 157.837C217.024 157.329 215.515 155.853 214.39 154.665C213.522 153.748 212.881 153.006 212.881 153.006C212.881 153.006 205.597 152.864 203.494 154.001C203.005 154.262 202.674 154.777 202.447 155.424C201.689 157.534 202.124 161.013 202.124 161.013Z" fill="#434175"/>
<path opacity="0.1" fill-rule="evenodd" clip-rule="evenodd" d="M202 155C203.536 154.573 212.521 154.41 214 154.382C213.128 153.621 212.484 153.005 212.484 153.005C212.484 153.005 205.164 152.886 203.051 153.831C202.565 154.04 202.228 154.467 202 155Z" fill="black"/>
<path fill-rule="evenodd" clip-rule="evenodd" d="M163 109.946L163.791 110.436L164.087 110.615L165.238 111.311C171.393 115.021 188.179 125.084 189.1 125.003C189.344 124.984 190.065 124.873 191.058 124.711L191.908 124.572C195.753 123.932 202.14 122.778 202.856 122.454C203.835 122.014 203.639 123.974 203.248 125.641C202.856 127.307 202.562 135.297 203.003 136.325C203.444 137.355 203.248 139.021 203.248 139.021L202.66 147.991L203.052 149.902C203.052 149.902 201.73 150.981 202.268 151.618C202.807 152.256 202.317 155 202.317 155C203.885 154.412 214.509 154.216 214.509 154.216C214.509 154.216 214.068 150.294 214.459 149.364C214.852 148.432 214.557 142.894 214.557 142.894C214.557 142.894 214.803 138.678 214.362 137.698C213.921 136.717 214.509 130.447 214.509 130.447C214.509 130.447 214.9 126.721 214.998 119.127C215.096 111.531 210.689 111.284 210.689 111.284C210.689 111.284 210.102 111.237 209.22 111.152C207.474 110.986 204.567 110.661 202.623 110.24C202.225 110.159 201.832 110.055 201.446 109.929C199.046 109.11 190.965 109.079 189.646 109.667C188.798 110.005 187.853 110.005 187.006 109.667L185.978 108L176.156 108.839L175.115 108.927L165.446 109.753L164.78 109.809L163 109.946Z" fill="#B643D5"/>
<path opacity="0.1" fill-rule="evenodd" clip-rule="evenodd" d="M202.406 117.741C205.15 119.229 207.768 113.952 209 110.975C207.321 110.797 204.526 110.451 202.656 110C201.415 112.296 199.776 116.313 202.406 117.741Z" fill="black"/>
<path fill-rule="evenodd" clip-rule="evenodd" d="M194 84.8034C194.061 85.1404 194.177 85.4652 194.344 85.7642C195.386 87.9033 198.439 92.3025 198.439 92.3025C199.347 92.8734 200.115 93.6447 200.683 94.5568C201.512 95.9784 201.756 99.3116 201.756 99.3116C201.756 99.3116 203.61 106.71 204.488 107.739C204.927 108.254 204.732 108.56 204.427 108.739C203.804 109.087 203.276 109.584 202.888 110.185C201.608 112.253 199.566 116.351 202.439 117.758C206.341 119.669 210 109.651 210 109.651C210 109.651 209.268 102.544 209.073 101.318C208.878 100.093 207.71 95.0448 207.71 95.0448C207.71 95.0448 206.88 92.8885 206.393 91.3689C205.905 89.8493 204.442 88.0851 204.442 88.0851C204.442 88.0851 201.808 82.7938 201.076 82.0096C200.737 81.6448 200.261 81.1862 199.856 80.7991C199.368 80.3506 198.988 80 198.988 80C198.988 80 193.951 83.6294 194 84.8034Z" fill="#FBCDD4"/>
<path fill-rule="evenodd" clip-rule="evenodd" d="M160 160.934L169.015 164.944C169.015 164.944 180.703 165.192 182.734 164.647C184.764 164.103 184.318 161.825 181.643 161.38C178.969 160.934 178.325 159.746 177.434 159.201C176.831 158.834 174.696 156.46 173.371 154.956C172.733 154.23 172.282 153.718 172.282 153.718C172.282 153.718 170.548 149.114 165.745 150.153C164.868 150.344 164.059 150.773 163.408 151.391C160.82 153.785 160.594 158.525 160.594 158.525L160 160.934Z" fill="#434175"/>
<path opacity="0.1" fill-rule="evenodd" clip-rule="evenodd" d="M164 110.789L165.146 111.476C171.278 115.141 187.999 125.079 188.916 125C189.16 124.98 189.877 124.872 190.867 124.712L191.713 124.573L191.745 124.518C192.238 123.668 192.614 122.755 192.863 121.805C193.889 117.934 188.828 114.972 188.828 114.972L187.755 114.143C186.535 112.106 177.755 110.179 177.755 110.179L176.622 109.424L176.02 109.022L175.859 108.915L174.486 108L167.61 108.485L165.566 109.786L165.351 109.925L164.592 110.409L164 110.789Z" fill="black"/>
<path opacity="0.1" fill-rule="evenodd" clip-rule="evenodd" d="M164 151.346C165.902 157.769 173.851 155.673 173.851 155.673L174 154.858C173.359 154.146 172.907 153.644 172.907 153.644C172.907 153.644 171.167 149.131 166.347 150.15C165.468 150.332 164.656 150.746 164 151.346Z" fill="black"/>
<path fill-rule="evenodd" clip-rule="evenodd" d="M161.127 121.487C164.061 121.487 171.616 124.942 171.616 124.942C173.157 126.109 175.245 125.72 175.245 125.72C175.245 125.72 171.566 129.37 171.665 130.879C171.764 132.387 169.579 134.869 169.579 134.869L162.818 147.957C163.315 157.249 173.057 154.672 173.057 154.672L173.455 152.483C174.052 152.19 174.946 149.271 174.946 149.271C174.946 149.271 174.946 148.103 175.543 147.762C176.14 147.422 177.382 143.918 177.382 143.918C177.382 143.918 180.067 139.49 179.918 138.906C179.769 138.322 181.857 135.356 181.857 135.356C181.857 135.356 185.387 131.949 185.238 131.341C185.089 130.733 188.072 127.618 188.072 127.618C189.151 126.799 190.048 125.774 190.709 124.604C191.217 123.747 191.604 122.827 191.86 121.869C192.703 118.735 189.514 116.2 188.239 115.333C187.93 115.122 187.742 115.01 187.742 115.01L186.647 114.178C186.083 113.246 183.913 112.336 181.735 111.623C180.159 111.11 178.568 110.696 177.551 110.448C176.861 110.292 176.448 110.19 176.448 110.19L175.295 109.431L174.889 109.166L174.519 108.922L173.107 108L169.989 108.217L166.099 108.487L164.019 109.806L163.024 110.433L159.139 112.866C159.139 112.866 159.037 113.803 159.005 115.056C159.005 115.154 159.005 115.251 159.005 115.352C158.958 117.907 159.235 121.487 161.127 121.487Z" fill="#B643D5"/>
<path fill-rule="evenodd" clip-rule="evenodd" d="M176 66.8113L177.04 70.5269C177.04 70.5269 178.872 76.9181 179.07 77.3636C179.268 77.8098 184.071 82.3179 184.269 82.417C184.467 82.5161 187.081 84 187.081 84C187.081 84 187.289 75.8254 187.081 73.4499C187.064 72.9277 187.106 72.4049 187.21 71.8922C187.524 70.0293 188.323 67.2972 188.988 65.1914C189.542 63.4298 190 62.1071 190 62.1071C190 62.1071 178.417 61.6118 178.813 62.7515C178.961 63.1825 178.914 63.9006 178.768 64.6244C178.52 65.8104 178.025 67.0044 177.723 66.9103C177.421 66.8431 177.114 66.8091 176.804 66.8091C176.389 66.7968 176 66.8113 176 66.8113Z" fill="#FBCDD4"/>
<path opacity="0.1" fill-rule="evenodd" clip-rule="evenodd" d="M179 64.8431C180.387 66.1232 182.109 66.8753 183.912 66.9858C185.715 67.0963 187.502 66.5604 189.008 65.4573C189.552 63.5489 190 62.1161 190 62.1161C190 62.1161 178.655 61.5794 179.043 62.8141C179.189 63.281 179.143 64.0589 179 64.8431Z" fill="black"/>
<path fill-rule="evenodd" clip-rule="evenodd" d="M192.994 57.5713C192.994 58.4654 192.851 59.3538 192.569 60.2031C192.498 60.4222 192.416 60.6378 192.323 60.849C191.661 62.4032 190.545 63.7249 189.117 64.6432C187.69 65.5607 186.018 66.0331 184.317 65.9982C182.616 65.9633 180.965 65.4228 179.577 64.4468C178.189 63.4716 177.129 62.1052 176.532 60.5247C176.195 59.6305 176.015 58.6845 176.001 57.7299C176.001 57.6787 176.001 57.6254 176.001 57.5741C175.982 56.4553 176.188 55.3435 176.606 54.3042C177.025 53.265 177.648 52.3183 178.439 51.5202C179.23 50.7221 180.173 50.0883 181.214 49.6558C182.254 49.2234 183.372 49 184.5 49C185.628 49 186.746 49.2234 187.786 49.6558C188.827 50.0883 189.77 50.7221 190.561 51.5202C191.352 52.3183 191.975 53.265 192.394 54.3042C192.812 55.3435 193.018 56.4553 192.999 57.5741L192.994 57.5713Z" fill="#FBCDD4"/>
<path opacity="0.1" fill-rule="evenodd" clip-rule="evenodd" d="M177 67.0067L178.02 70.68C178.02 70.68 179.818 76.9986 180.012 77.439C180.207 77.8801 184.92 82.3371 185.114 82.435C185.308 82.533 187.874 84 187.874 84C187.874 84 188.077 75.9184 187.874 73.5698C187.857 73.0529 187.899 72.536 188 72.0291L187.339 74.7451L187.388 80.1822L187.777 80.4761L186.902 81.798V80.8185C186.902 80.8185 183.792 77.7822 183.306 76.5082C182.821 75.2349 181.072 72.9278 181.072 72.9278C181.072 72.9278 179.079 69.5533 179.031 68.9656C178.995 68.508 178.157 67.4471 177.789 67.0067C177.382 66.9917 177 67.0067 177 67.0067Z" fill="black"/>
<path opacity="0.1" fill-rule="evenodd" clip-rule="evenodd" d="M194 84.0001C194.062 84.351 194.182 84.6893 194.353 85C195.45 84.8853 199.178 84.176 200 79.8322C199.499 79.3651 199.108 79 199.108 79C199.108 79 193.95 82.7775 194 84.0001Z" fill="black"/>
<path opacity="0.1" fill-rule="evenodd" clip-rule="evenodd" d="M160 115C160.973 114.338 161.917 113.439 162.474 113.189C163.301 112.819 164.566 111.616 164.566 111.616C164.566 111.616 164.887 111.409 165.378 111.136C166.28 110.631 167.761 109.903 168.894 109.813C169.909 109.732 173.273 109.526 175.948 109.369L179.411 109.165C179.411 109.165 182.573 108.102 183.935 108.795C184.911 109.26 185.939 109.617 187 109.859C187 109.859 187 109.757 187 109.584L185.978 108.011L175.189 108.886L173.805 108L166.949 108.462L164.913 109.716L163.157 109.859L163.943 110.322L160.141 112.634C160.141 112.634 160.022 113.668 160 115Z" fill="black"/>
<path fill-rule="evenodd" clip-rule="evenodd" d="M158.641 115.964C159.162 115.807 159.649 115.554 160.08 115.22C161.063 114.515 162.008 113.551 162.571 113.286C163.406 112.89 164.683 111.602 164.683 111.602C164.683 111.602 167.287 109.819 169.056 109.67C169.547 109.631 170.544 109.559 171.757 109.48C172.97 109.4 174.459 109.304 175.766 109.232L177.849 109.101L179.664 108.986C179.664 108.986 182.857 107.848 184.233 108.59C185.218 109.088 186.257 109.47 187.328 109.73C187.328 109.73 187.377 106.262 187.77 104.826C188.163 103.39 188.703 100.767 188.703 100.767C188.703 100.767 189.145 97.1508 189.588 95.516C190.029 93.882 191.747 84.7677 192.631 84.1734C193.515 83.5791 194.007 84.6195 194.007 84.6195C194.007 84.6195 199.901 84.5205 200 77.9844C200 77.9844 197.249 75.2102 197.052 74.5169C196.856 73.8235 194.252 71.2481 194.252 71.2481C194.252 71.2481 192.778 68.4739 191.108 68.4248C190.319 68.3785 189.527 68.4038 188.742 68.4992L187.328 74.3187L187.377 79.8173L187.77 80.1144L186.885 81.4513V80.4607C186.885 80.4607 183.741 77.3901 183.25 76.1024C182.759 74.814 180.991 72.4816 180.991 72.4816C180.991 72.4816 178.976 69.0682 178.927 68.4739C178.878 67.8796 177.503 66.2875 177.503 66.2875C177.225 66.255 176.945 66.255 176.667 66.2875C176.543 66.2969 176.419 66.2788 176.302 66.2355C175.508 65.9788 174.663 65.9311 173.845 66.0967C172.148 66.4509 169.564 67.1024 168.856 67.8796C167.776 69.0682 166.203 70.2077 164.435 75.1611L173.963 78.6279L173.133 80.1932L165.55 94.7265C165.55 94.7265 165.305 95.1401 164.959 95.6802C164.516 96.3808 163.924 97.2946 163.536 97.7971C162.849 98.6886 163.045 101.512 163.045 101.512C163.045 101.512 162.897 102.85 162.406 103.345C161.915 103.84 162.013 105.673 162.013 105.673L160.736 110.477C160.736 110.477 159.557 111.568 159.557 112.063C159.557 112.558 158.624 113.945 158.624 113.945C158.624 113.945 157.209 116.32 158.641 115.964Z" fill="#B643D5"/>
<path opacity="0.1" fill-rule="evenodd" clip-rule="evenodd" d="M208 120C208 120 204.93 121.091 204.098 122.653C203.266 124.215 208 120 208 120Z" fill="black"/>
<path opacity="0.1" fill-rule="evenodd" clip-rule="evenodd" d="M207 117C206.902 117.136 202.751 120.974 203.012 121.9C203.273 122.827 207 117 207 117Z" fill="black"/>
<path opacity="0.1" fill-rule="evenodd" clip-rule="evenodd" d="M184 119C184 119 179.422 120.991 179.021 121.867C178.621 122.743 184 119 184 119Z" fill="black"/>
<path opacity="0.1" fill-rule="evenodd" clip-rule="evenodd" d="M184 122C184 122 179.629 123.565 179.043 123.956C178.457 124.347 184 122 184 122Z" fill="black"/>
<path opacity="0.1" fill-rule="evenodd" clip-rule="evenodd" d="M182 126.28C182 126.28 180.176 127.677 179.169 126.579C178.161 125.482 182 126.28 182 126.28Z" fill="black"/>
<path opacity="0.1" fill-rule="evenodd" clip-rule="evenodd" d="M189 90C188.902 90.1461 182.797 101.132 181.185 101.961C179.574 102.792 189 90 189 90Z" fill="black"/>
<path opacity="0.1" fill-rule="evenodd" clip-rule="evenodd" d="M189 94C189 94.242 183.057 106.854 182.083 106.999C181.109 107.144 189 94 189 94Z" fill="black"/>
<path opacity="0.1" fill-rule="evenodd" clip-rule="evenodd" d="M166 102C166 102 163.239 108.61 162.156 108.986C161.072 109.361 166 102 166 102Z" fill="black"/>
<path opacity="0.1" fill-rule="evenodd" clip-rule="evenodd" d="M165 100C165 100 163.833 102 163.123 102C162.414 102 165 100 165 100Z" fill="black"/>
<path opacity="0.1" fill-rule="evenodd" clip-rule="evenodd" d="M192.994 57.6818C192.994 58.5872 192.851 59.4868 192.569 60.346C192.498 60.5679 192.416 60.7861 192.323 61C191.889 60.933 191.479 60.7515 191.136 60.4742C190.772 60.2265 190.467 59.8995 190.245 59.517C190.077 59.1101 189.932 58.6945 189.81 58.2717C189.614 57.7942 189.295 57.3779 188.885 57.066C188.475 56.7542 187.99 56.5575 187.478 56.4977C187.761 56.9911 187.311 57.6444 186.759 57.7308C186.206 57.8172 185.669 57.4845 185.285 57.0725C184.902 56.6605 184.629 56.1592 184.251 55.7473C183.872 55.3353 183.332 55.0076 182.776 55.089C182.285 55.1631 181.909 55.5377 181.499 55.8164C181.089 56.0951 180.517 56.2831 180.124 55.9842C179.902 55.8193 179.795 55.5377 179.583 55.3576C179.04 54.901 178.195 55.3727 177.795 55.9619C177.178 56.8752 176.812 57.4276 176.001 57.8396C176.001 57.7877 176.001 57.7337 176.001 57.6818C175.982 56.5489 176.188 55.4231 176.606 54.3709C177.025 53.3186 177.648 52.3599 178.439 51.5518C179.23 50.7437 180.173 50.102 181.214 49.6641C182.254 49.2262 183.372 49 184.5 49C185.628 49 186.746 49.2262 187.786 49.6641C188.827 50.102 189.77 50.7437 190.561 51.5518C191.352 52.3599 191.975 53.3186 192.394 54.3709C192.812 55.4231 193.018 56.5489 192.999 57.6818H192.994Z" fill="black"/>
<path fill-rule="evenodd" clip-rule="evenodd" d="M177.76 55.9276C178.163 55.3313 179.014 54.8574 179.561 55.319C179.774 55.4979 179.882 55.7805 180.105 55.9493C180.501 56.25 181.079 56.0616 181.49 55.7805C181.901 55.5001 182.285 55.1233 182.776 55.0487C183.333 54.9617 183.875 55.2965 184.261 55.7117C184.647 56.1261 184.919 56.6297 185.302 57.0442C185.686 57.4586 186.227 57.789 186.787 57.7043C187.346 57.6202 187.796 56.9601 187.511 56.4631C188.025 56.5239 188.514 56.7217 188.926 57.0355C189.339 57.3492 189.659 57.768 189.857 58.2477C189.981 58.673 190.127 59.0918 190.294 59.5012C190.519 59.8852 190.827 60.2135 191.195 60.462C191.647 60.7967 192.199 61.0771 192.754 60.9808C193.307 60.8837 193.777 60.2359 193.52 59.7396C193.696 60.0098 194.076 59.6331 194.133 59.315C194.259 58.6179 194.22 57.8999 194.02 57.2202C193.748 56.2971 193.174 55.3834 193.394 54.4458C193.57 53.701 194.201 53.172 194.584 52.5148C195.264 51.3483 195.079 49.7846 194.257 48.7123C193.827 48.1891 193.281 47.7747 192.663 47.503C192.044 47.2305 191.369 47.1088 190.695 47.1457C190.324 47.187 189.95 47.1943 189.577 47.166C188.956 47.074 188.429 46.6697 187.934 46.285L183.786 43.0432C183.325 42.6353 182.795 42.3136 182.22 42.0955C181.636 41.9143 180.934 41.9759 180.489 42.4107C179.712 43.1896 180.204 44.53 179.892 45.585C179.623 46.498 178.754 47.1189 177.857 47.4262C176.959 47.7341 175.996 47.8037 175.071 48.0268C174.797 48.0725 174.54 48.1928 174.329 48.3746C174.09 48.6724 173.973 49.0507 174.005 49.4318C173.999 50.3658 174.22 51.2867 174.648 52.1149C175.128 53.0409 175.885 53.9915 175.62 55.0016C175.477 55.5349 175.066 55.945 174.705 56.3616C173.924 57.2652 173.659 58.5955 175.133 58.1339C176.561 57.6869 176.959 57.1087 177.76 55.9276Z" fill="#434175"/>
<g opacity="0.1">
<path opacity="0.1" fill-rule="evenodd" clip-rule="evenodd" d="M194.892 58.3359C194.831 58.6458 194.447 59.0129 194.266 58.7496C194.517 59.2331 194.05 59.8592 193.487 59.9588C192.924 60.0576 192.367 59.7774 191.904 59.4534C191.532 59.2098 191.22 58.8894 190.993 58.5152C190.781 58.1355 190.714 57.695 190.548 57.2941C190.347 56.8261 190.02 56.4188 189.601 56.1131C189.182 55.8075 188.686 55.6148 188.164 55.5555C188.455 56.039 187.993 56.6821 187.428 56.7647C186.862 56.8465 186.312 56.5225 185.92 56.1188C185.529 55.715 185.25 55.2265 184.863 54.8199C184.476 54.4141 183.923 54.095 183.356 54.1748C182.853 54.2496 182.468 54.6145 182.049 54.8877C181.629 55.1609 181.044 55.3472 180.642 55.055C180.416 54.8905 180.308 54.6145 180.092 54.4409C179.534 53.9912 178.67 54.4529 178.26 55.031C177.449 56.1816 177.045 56.7498 175.603 57.1875C175.131 57.3301 174.834 57.299 174.673 57.1607C174.359 57.8595 174.502 58.4736 175.603 58.1404C177.045 57.7028 177.449 57.1367 178.26 55.9861C178.67 55.4051 179.534 54.9435 180.092 55.3931C180.308 55.5675 180.416 55.8428 180.642 56.0072C181.046 56.3002 181.632 56.1167 182.049 55.8428C182.466 55.5696 182.856 55.2025 183.356 55.1298C183.92 55.0451 184.471 55.3712 184.863 55.7757C185.254 56.1795 185.531 56.6701 185.92 57.0738C186.31 57.4776 186.86 57.7995 187.428 57.7169C187.995 57.635 188.455 56.9919 188.164 56.5077C188.686 56.5663 189.183 56.759 189.602 57.0647C190.021 57.3703 190.348 57.7783 190.548 58.2463C190.673 58.6614 190.821 59.0687 190.993 59.4675C191.22 59.8409 191.532 60.1607 191.904 60.4035C192.367 60.7296 192.924 61.0028 193.487 60.9089C194.05 60.8143 194.527 60.1832 194.266 59.6997C194.447 59.963 194.831 59.5959 194.892 59.2861C194.969 58.8689 194.985 58.4432 194.936 58.0218C194.928 58.1263 194.913 58.2315 194.892 58.3359Z" fill="black"/>
<path opacity="0.1" fill-rule="evenodd" clip-rule="evenodd" d="M176.082 54.1671C176.082 54.1529 176.082 54.1431 176.095 54.1282C176.369 53.1471 175.592 52.2209 175.108 51.3188C174.766 50.6821 174.555 49.9889 174.484 49.276C174.466 49.4024 174.456 49.5301 174.454 49.6579C174.449 50.5671 174.673 51.4642 175.108 52.2718C175.449 52.888 175.914 53.5169 176.082 54.1671Z" fill="black"/>
<path opacity="0.1" fill-rule="evenodd" clip-rule="evenodd" d="M195.346 51.7106C194.957 52.3515 194.316 52.8689 194.138 53.5917C194.066 53.8967 194.066 54.2129 194.138 54.5179C194.323 53.8099 194.952 53.2967 195.336 52.6635C195.701 52.0452 195.838 51.3252 195.723 50.6228C195.673 51.0061 195.545 51.3753 195.346 51.7106Z" fill="black"/>
</g>
<path opacity="0.1" fill-rule="evenodd" clip-rule="evenodd" d="M164 96.3531C164.065 96.624 164.115 96.8985 164.15 97.1751C164.15 97.1751 168.033 106.258 168.524 106.796C168.674 106.963 169.245 107.778 169.962 108.831L170.786 110.044C172.26 112.253 173.928 114.75 173.928 114.75L177.575 117.931C177.575 117.931 185.486 118.563 188 116C187.695 115.786 187.509 115.673 187.509 115.673L186.428 114.833C185.869 113.894 183.724 112.975 181.571 112.256C179.581 112.27 177.951 112.432 177.951 112.432L177.435 111.07L176.895 109.649L174.135 102.426C174.135 102.426 172.361 93.2965 171.771 92.8522C171.181 92.4079 171.331 91.0355 171.331 91.0355C171.331 91.0355 172.41 87.1569 172.016 86.6172C171.623 86.0769 172.656 82.1022 172.656 82.1022C172.555 81.7138 172.395 81.3418 172.184 81L164.598 95.4057C164.598 95.4057 164.339 95.8178 164 96.3531Z" fill="black"/>
<path fill-rule="evenodd" clip-rule="evenodd" d="M173.084 81.159C173.084 81.159 172.061 85.1262 172.451 85.6649C172.84 86.2043 171.769 90.0756 171.769 90.0756C171.769 90.0756 171.625 91.4476 172.207 91.889C172.789 92.3296 174.55 101.445 174.55 101.445L178.322 111.442C178.322 111.442 190.128 110.266 188.912 113.99C187.697 117.715 177.954 116.931 177.954 116.931L174.35 113.746C174.35 113.746 169.48 106.346 168.993 105.806C168.506 105.268 164.658 96.2038 164.658 96.2038C164.658 96.2038 164.464 94.3905 163.635 93.4598C162.807 92.5285 163.441 90.9526 163.441 90.9526C163.441 90.9526 162.418 79.1032 163.489 77.6818C164.561 76.2612 171.964 76.8957 173.084 81.159Z" fill="#FBCDD4"/>
<path opacity="0.1" fill-rule="evenodd" clip-rule="evenodd" d="M167.541 73.6505L164.529 75.4457C164.529 75.4457 163.669 78.3266 163 78.7044C163 78.7044 169.023 75.3981 173.562 83C173.562 83 173.418 82.01 174.04 81.5378C174.662 81.0656 174.518 79.0346 174.518 79.0346C174.683 78.7141 174.827 78.3825 174.948 78.0433C175.379 77.0037 173.141 71.0529 167.541 73.6505Z" fill="black"/>
<path fill-rule="evenodd" clip-rule="evenodd" d="M167.54 73.6506L164.529 75.4452C164.529 75.4452 163.669 78.3263 163 78.7041C163 78.7041 169.022 75.3983 173.56 83C173.56 83 173.417 82.0107 174.038 81.5384C174.66 81.0661 174.516 79.0351 174.516 79.0351C174.682 78.7138 174.825 78.3829 174.947 78.043C175.386 77.004 173.13 71.0528 167.54 73.6506Z" fill="#B643D5"/>
<path fill-rule="evenodd" clip-rule="evenodd" d="M139 160C143.971 160 148 155.523 148 150C148 144.478 143.971 140 139 140C134.029 140 130 144.478 130 150C130 155.523 134.029 160 139 160Z" fill="#FBD56F"/>
<path opacity="0.1" fill-rule="evenodd" clip-rule="evenodd" d="M139 160C143.971 160 148 155.523 148 150C148 144.478 143.971 140 139 140C134.029 140 130 144.478 130 150C130 155.523 134.029 160 139 160Z" fill="black"/>
<path fill-rule="evenodd" clip-rule="evenodd" d="M141 160C145.971 160 150 155.747 150 150.5C150 145.253 145.971 141 141 141C136.029 141 132 145.253 132 150.5C132 155.747 136.029 160 141 160Z" fill="#FBD56F"/>
<path fill-rule="evenodd" clip-rule="evenodd" d="M30.5 155C36.8512 155 42 154.105 42 153C42 151.895 36.8512 151 30.5 151C24.1487 151 19 151.895 19 153C19 154.105 24.1487 155 30.5 155Z" fill="#FA7268"/>
<path fill-rule="evenodd" clip-rule="evenodd" d="M35.8413 150.224C36.3474 149.772 36.8157 149.247 36.9625 148.592C37.1093 147.937 36.8207 147.17 36.1804 146.933C35.4617 146.667 34.6923 147.148 34.1102 147.634C33.5281 148.121 32.8625 148.673 32.1007 148.57C32.4926 148.227 32.7858 147.792 32.9516 147.307C33.1176 146.823 33.1505 146.305 33.0472 145.804C33.0172 145.598 32.9297 145.404 32.7941 145.243C32.3968 144.832 31.673 144.998 31.1947 145.332C29.6762 146.364 29.2535 148.355 29.2459 150.146C29.0916 149.499 29.2206 148.827 29.2181 148.162C29.2155 147.497 29.0258 146.765 28.4588 146.407C28.0975 146.221 27.6917 146.129 27.282 146.141C26.5987 146.117 25.8395 146.183 25.3737 146.664C24.7942 147.265 24.9435 148.27 25.4472 148.929C25.9508 149.588 26.7125 149.999 27.4237 150.456C27.9892 150.782 28.4718 151.226 28.836 151.756C28.8793 151.834 28.9141 151.915 28.9397 152H33.2194C34.1723 151.525 35.0542 150.927 35.8413 150.224Z" fill="#FA7268"/>
<path fill-rule="evenodd" clip-rule="evenodd" d="M92 88.9484L97.8088 86L99.9538 87.9905L100.464 89.4138L101 91.8044L100.528 92.8516L96.8135 93.5375C96.8135 93.5375 94.8342 93.4211 94.5275 93.5767C94.2215 93.7316 92.9712 94 92.9712 94L92 91.5782V88.9484Z" fill="#FBD56F"/>
<defs>
<linearGradient id="paint0_linear_0:2103" x1="226.992" y1="165.001" x2="226.992" y2="41.0202" gradientUnits="userSpaceOnUse">
<stop stop-color="#808080" stop-opacity="0.25"/>
<stop offset="0.54" stop-color="#808080" stop-opacity="0.12"/>
<stop offset="1" stop-color="#808080" stop-opacity="0.1"/>
</linearGradient>
</defs>
</svg>
