<svg width="375" height="278" viewBox="0 0 375 278" fill="none" xmlns="http://www.w3.org/2000/svg">
<path fill-rule="evenodd" clip-rule="evenodd" d="M413 109.395C403.282 108.976 393.55 111.162 383.914 113.3C353.113 120.16 322.173 126.628 291.009 127.684C261.972 128.661 232.588 124.852 204.76 112.465C178.463 100.761 154.184 81.2699 130.08 62.5979C112.383 48.8859 94.5738 35.2869 75.7965 24.8079C39.5326 4.57088 -0.0372118 -3.42912 -38.8059 1.33888C-38.8715 1.34488 -38.9371 1.35688 -39 1.36288V278H412.997V109.395H413Z" fill="#F8E7F8"/>
<path fill-rule="evenodd" clip-rule="evenodd" d="M413 124.401C403.282 124.066 393.55 125.812 383.914 127.521C353.113 132.998 322.173 138.165 291.009 139.005C261.972 139.79 232.588 136.746 204.76 126.856C178.463 117.501 154.184 101.931 130.08 87.011C112.383 76.058 94.5738 65.193 75.7965 56.823C39.5326 40.655 -0.0372118 34.259 -38.8059 38.07C-38.8715 38.076 -38.9371 38.082 -39 38.088V278H412.997V124.401H413Z" fill="#F0BAFF"/>
<path fill-rule="evenodd" clip-rule="evenodd" d="M413 137.458C403.282 137.193 393.55 138.579 383.914 139.941C353.113 144.293 322.173 148.401 291.009 149.065C261.972 149.691 232.588 147.265 204.76 139.404C178.463 131.971 154.184 119.599 130.08 107.745C112.383 99.0399 94.5738 90.4049 75.7965 83.7549C39.5326 70.9029 -0.0372118 65.8229 -38.8059 68.8499C-38.8715 68.8559 -38.9371 68.8619 -39 68.8649V278H413L412.997 137.458H413Z" fill="url(#paint0_radial_0:2525)"/>
<defs>
<radialGradient id="paint0_radial_0:2525" cx="0" cy="0" r="1" gradientUnits="userSpaceOnUse" gradientTransform="translate(7.99999 86.9999) rotate(33.517) scale(642.9 629.54)">
<stop stop-color="#B643D5"/>
<stop offset="1" stop-color="#FB72AD"/>
</radialGradient>
</defs>
</svg>
