<svg width="32" height="25" viewBox="0 0 32 25" fill="none" xmlns="http://www.w3.org/2000/svg">
<path fill-rule="evenodd" clip-rule="evenodd" d="M20.4853 15.5147C19.1783 14.2077 17.6226 13.2402 15.9253 12.6545C17.7432 11.4024 18.9375 9.30694 18.9375 6.9375C18.9375 3.11217 15.8253 0 12 0C8.17467 0 5.0625 3.11217 5.0625 6.9375C5.0625 9.30694 6.25683 11.4024 8.07478 12.6545C6.37744 13.2402 4.82175 14.2077 3.51473 15.5147C1.24823 17.7812 0 20.7947 0 24H1.875C1.875 18.417 6.41705 13.875 12 13.875C17.583 13.875 22.125 18.417 22.125 24H24C24 20.7947 22.7518 17.7812 20.4853 15.5147ZM12 12C9.24301 12 7 9.75704 7 7C7 4.24296 9.24301 2 12 2C14.757 2 17 4.24296 17 7C17 9.75704 14.757 12 12 12Z" fill="white"/>
<path fill-rule="evenodd" clip-rule="evenodd" d="M30.5 15.4682L24 10L22.5 12L27.5 15.5L8 15.4682V18H16.5H27.5L22.5 23L24 24.5L30.5 18.5C30.874 18.118 31.5 17.5384 31.5 17C31.5 16.4616 30.874 15.8482 30.5 15.4682Z" fill="white"/>
</svg>
