<svg width="48" height="62" viewBox="0 0 48 62" fill="none" xmlns="http://www.w3.org/2000/svg">
<path fill-rule="evenodd" clip-rule="evenodd" d="M31.2843 0.458433L31.2694 0.443671C30.9978 0.156737 30.6231 -0.00379856 30.2321 0.000814525C30.1839 -0.00149202 30.1353 0.00312107 30.088 0.0160377H7.95478C3.9763 0.0169603 0.751802 3.31993 0.75 7.39513V54.6212C0.751802 58.6959 3.9763 61.9989 7.95478 62.0002H40.0452C44.0237 61.9989 47.2486 58.6959 47.25 54.6212V17.4005C47.2473 17.0097 47.0978 16.6347 46.832 16.3533L31.2843 0.458433ZM32.0653 5.33957L41.9522 15.4895H35.7875C34.3857 15.4895 32.0653 13.5493 32.0653 11.4978V5.33957ZM40.4555 58.6489H8.38926C6.00765 58.642 4.07906 56.6615 4.07141 54.217V6.94521C4.07141 5.07277 6.00765 3.207 8.38926 3.20007H29.2006V11.0968C29.202 15.175 32.4231 18.4811 36.3967 18.483H43.987V54.217C43.9915 56.6606 41.9807 58.6489 40.4555 58.6489Z" fill="#DADADA"/>
</svg>
