<svg width="22" height="20" viewBox="0 0 22 20" fill="none" xmlns="http://www.w3.org/2000/svg">
<path fill-rule="evenodd" clip-rule="evenodd" d="M5.59687 16.582L2.42291 19.7559C2.09748 20.0814 1.56984 20.0814 1.2444 19.7559C0.918966 19.4305 0.918966 18.9028 1.2444 18.5774L4.2557 15.5661C3.88267 15.2486 3.51658 14.9074 3.15759 14.5441C2.35737 13.7343 1.64913 12.8694 1.03827 12.004C0.823957 11.7004 0.636696 11.4177 0.477321 11.1628C0.379735 11.0067 0.311898 10.8923 0.274698 10.8264C0.13109 10.5721 0.13109 10.2612 0.274698 10.0069C0.311898 9.94103 0.379735 9.82662 0.477321 9.67053C0.636696 9.41562 0.823957 9.13293 1.03827 8.82933C1.64913 7.96394 2.35737 7.09899 3.15759 6.28924C5.48701 3.9321 8.11532 2.5 11.0003 2.5C12.7261 2.5 14.36 3.01244 15.893 3.92878L19.5777 0.244078C19.9032 -0.0813592 20.4308 -0.0813592 20.7562 0.244078C21.0817 0.569515 21.0817 1.09715 20.7562 1.42259L17.2867 4.89211C17.8193 5.31092 18.3382 5.77835 18.8431 6.28924C19.6433 7.09899 20.3515 7.96394 20.9624 8.82933C21.1767 9.13293 21.364 9.41562 21.5233 9.67053C21.6209 9.82662 21.6888 9.94103 21.726 10.0069C21.8696 10.2612 21.8696 10.5721 21.726 10.8264C21.6888 10.8923 21.6209 11.0067 21.5233 11.1628C21.364 11.4177 21.1767 11.7004 20.9624 12.004C20.3515 12.8694 19.6433 13.7343 18.8431 14.5441C16.5136 16.9012 13.8853 18.3333 11.0003 18.3333C9.08148 18.3333 7.27619 17.6998 5.59687 16.582ZM6.80445 15.3744C8.14593 16.2069 9.55091 16.6667 11.0003 16.6667C13.3653 16.6667 15.612 15.4425 17.6576 13.3726C18.3886 12.6328 19.0398 11.8376 19.6008 11.0429C19.7584 10.8196 19.8993 10.6096 20.0231 10.4167C19.8993 10.2237 19.7584 10.0137 19.6008 9.79046C19.0398 8.9957 18.3886 8.20049 17.6576 7.46076C17.1496 6.94676 16.6293 6.48492 16.0978 6.08102L14.2356 7.94319C14.8154 8.60338 15.167 9.46897 15.167 10.4167C15.167 12.4877 13.4881 14.1667 11.417 14.1667C10.4693 14.1667 9.60371 13.8151 8.94352 13.2353L6.80445 15.3744ZM10.1265 12.0523C10.4814 12.3327 10.9296 12.5 11.417 12.5C12.5676 12.5 13.5003 11.5673 13.5003 10.4167C13.5003 9.92932 13.333 9.48106 13.0526 9.1262L10.1265 12.0523ZM11.4873 8.3345L9.33482 10.487C9.33405 10.4636 9.33366 10.4402 9.33366 10.4167C9.33366 9.26607 10.2664 8.33333 11.417 8.33333C11.4405 8.33333 11.464 8.33372 11.4873 8.3345ZM12.8653 6.95656C12.4197 6.76983 11.9304 6.66667 11.417 6.66667C9.34592 6.66667 7.66699 8.3456 7.66699 10.4167C7.66699 10.93 7.77016 11.4193 7.95688 11.8649L5.43897 14.3828C5.06776 14.0735 4.70231 13.7361 4.34306 13.3726C3.61203 12.6328 2.96089 11.8376 2.39988 11.0429C2.24228 10.8196 2.1013 10.6096 1.97755 10.4167C2.1013 10.2237 2.24228 10.0137 2.39988 9.79046C2.96089 8.9957 3.61203 8.20049 4.34306 7.46076C6.38864 5.39082 8.63533 4.16667 11.0003 4.16667C12.261 4.16667 13.488 4.51451 14.6689 5.15287L12.8653 6.95656Z" fill="#B9B9B9"/>
</svg>
