<svg width="14" height="24" viewBox="0 0 14 24" fill="none" xmlns="http://www.w3.org/2000/svg">
<path fill-rule="evenodd" clip-rule="evenodd" d="M13.4144 0.586232C13.0394 0.210897 12.5307 0 12.0003 0C11.4699 0 10.9614 0.210897 10.5863 0.586232L0.585658 10.5967C0.210691 10.9721 0 11.4812 0 12.0121C0 12.543 0.210691 13.0522 0.585658 13.4276L10.5863 23.438C10.9634 23.8027 11.4687 24.0045 11.9931 23.9999C12.5175 23.9954 13.0192 23.7848 13.39 23.4136C13.7609 23.0424 13.9712 22.5402 13.9758 22.0153C13.9804 21.4903 13.7788 20.9846 13.4144 20.6071L4.82785 12.0121L13.4144 3.41717C13.7894 3.04173 14 2.53254 14 2.00165C14 1.47075 13.7894 0.961672 13.4144 0.586232Z" fill="#4E5053"/>
</svg>
