<svg width="39" height="39" viewBox="0 0 39 39" fill="none" xmlns="http://www.w3.org/2000/svg">
<path fill-rule="evenodd" clip-rule="evenodd" d="M0 19.4112C0 30.115 8.7075 38.8237 19.4112 38.8237C30.115 38.8237 38.8237 30.115 38.8225 19.4112C38.8225 8.7075 30.115 0 19.4112 0C8.7075 0 0 8.7075 0 19.4112ZM2.2175 19.4113C2.2175 9.93125 9.93 2.2175 19.4113 2.2175C28.8913 2.2175 36.6037 9.93125 36.6037 19.4113C36.6037 28.8913 28.8913 36.6037 19.4113 36.6037C9.93 36.6037 2.2175 28.8913 2.2175 19.4113Z" fill="white" fill-opacity="0.728091"/>
<path fill-rule="evenodd" clip-rule="evenodd" d="M26.4175 21.2188H11.11C10.4975 21.2188 10 20.7237 10 20.11C10 19.4975 10.4963 19 11.11 19H26.4175C27.03 19 27.5263 19.4975 27.5263 20.11C27.5263 20.7237 27.0312 21.2188 26.4175 21.2188Z" fill="white" fill-opacity="0.728091"/>
<path fill-rule="evenodd" clip-rule="evenodd" d="M19.11 28.5263C18.4975 28.5263 18 28.03 18 27.4175V12.11C18 11.4975 18.4975 11 19.11 11C19.7225 11 20.2188 11.4975 20.2188 12.11V27.4175C20.2188 28.0312 19.7237 28.5263 19.11 28.5263Z" fill="white" fill-opacity="0.728091"/>
</svg>
