<svg width="26" height="26" viewBox="0 0 26 26" fill="none" xmlns="http://www.w3.org/2000/svg">
<path d="M12.333 2.83325H11.333C11.333 3.38554 11.7807 3.83325 12.333 3.83325V2.83325ZM12.9997 3.08789L12.3328 3.83302C12.7124 4.17284 13.2869 4.17284 13.6666 3.83302L12.9997 3.08789ZM13.6663 2.83325V3.83325C14.2186 3.83325 14.6663 3.38554 14.6663 2.83325H13.6663ZM12.9997 12.4392L13.8324 11.8855C13.647 11.6067 13.3345 11.4392 12.9997 11.4392C12.6649 11.4392 12.3523 11.6067 12.1669 11.8855L12.9997 12.4392ZM12.1852 13.1431L11.7586 12.2387C11.5013 12.3601 11.3078 12.5853 11.2267 12.858C11.1456 13.1307 11.1845 13.425 11.3336 13.6673L12.1852 13.1431ZM12.333 13.6666H11.333C11.333 14.2189 11.7807 14.6666 12.333 14.6666V13.6666ZM2.72708 12.9999L3.28075 13.8327C3.55954 13.6473 3.72708 13.3347 3.72708 12.9999C3.72708 12.6651 3.55954 12.3525 3.28075 12.1672L2.72708 12.9999ZM3.83301 3.83325V2.83325C3.28072 2.83325 2.83301 3.28097 2.83301 3.83325H3.83301ZM4.83301 4.83325C5.38529 4.83325 5.83301 4.38554 5.83301 3.83325C5.83301 3.28097 5.38529 2.83325 4.83301 2.83325V4.83325ZM2.83301 4.83325C2.83301 5.38554 3.28072 5.83325 3.83301 5.83325C4.38529 5.83325 4.83301 5.38554 4.83301 4.83325H2.83301ZM21.1663 2.83325C20.6141 2.83325 20.1663 3.28097 20.1663 3.83325C20.1663 4.38554 20.6141 4.83325 21.1663 4.83325V2.83325ZM22.1663 3.83325H23.1663C23.1663 3.28097 22.7186 2.83325 22.1663 2.83325V3.83325ZM21.1663 4.83325C21.1663 5.38554 21.6141 5.83325 22.1663 5.83325C22.7186 5.83325 23.1663 5.38554 23.1663 4.83325H21.1663ZM3.83301 11.3333H2.83301C2.83301 11.8855 3.28072 12.3333 3.83301 12.3333V11.3333ZM4.83301 10.3333C4.83301 9.78097 4.38529 9.33325 3.83301 9.33325C3.28072 9.33325 2.83301 9.78097 2.83301 10.3333H4.83301ZM4.83301 12.3333C5.38529 12.3333 5.83301 11.8855 5.83301 11.3333C5.83301 10.781 5.38529 10.3333 4.83301 10.3333V12.3333ZM5.83301 9.33325H4.83301C4.83301 9.88554 5.28072 10.3333 5.83301 10.3333V9.33325ZM5.83301 5.83325V4.83325C5.28072 4.83325 4.83301 5.28097 4.83301 5.83325H5.83301ZM9.33301 9.33325V10.3333C9.88529 10.3333 10.333 9.88554 10.333 9.33325H9.33301ZM9.33301 5.83325H10.333C10.333 5.28097 9.88529 4.83325 9.33301 4.83325V5.83325ZM12.333 10.3333C12.333 9.78097 11.8853 9.33325 11.333 9.33325C10.7807 9.33325 10.333 9.78097 10.333 10.3333H12.333ZM11.333 11.3333V12.3333C11.8853 12.3333 12.333 11.8855 12.333 11.3333H11.333ZM10.333 10.3333C9.78072 10.3333 9.33301 10.781 9.33301 11.3333C9.33301 11.8855 9.78072 12.3333 10.333 12.3333V10.3333ZM14.6663 11.3333H13.6663C13.6663 11.8855 14.1141 12.3333 14.6663 12.3333V11.3333ZM15.6663 10.3333C15.6663 9.78097 15.2186 9.33325 14.6663 9.33325C14.1141 9.33325 13.6663 9.78097 13.6663 10.3333H15.6663ZM15.6663 12.3333C16.2186 12.3333 16.6663 11.8855 16.6663 11.3333C16.6663 10.781 16.2186 10.3333 15.6663 10.3333V12.3333ZM16.6663 9.33325H15.6663C15.6663 9.88554 16.1141 10.3333 16.6663 10.3333V9.33325ZM16.6663 5.83325V4.83325C16.1141 4.83325 15.6663 5.28097 15.6663 5.83325H16.6663ZM20.1663 9.33325V10.3333C20.7186 10.3333 21.1663 9.88554 21.1663 9.33325H20.1663ZM20.1663 5.83325H21.1663C21.1663 5.28097 20.7186 4.83325 20.1663 4.83325V5.83325ZM23.1663 10.3333C23.1663 9.78097 22.7186 9.33325 22.1663 9.33325C21.6141 9.33325 21.1663 9.78097 21.1663 10.3333H23.1663ZM22.1663 11.3333V12.3333C22.7186 12.3333 23.1663 11.8855 23.1663 11.3333H22.1663ZM21.1663 10.3333C20.6141 10.3333 20.1663 10.781 20.1663 11.3333C20.1663 11.8855 20.6141 12.3333 21.1663 12.3333V10.3333ZM3.83301 14.6666V13.6666C3.28072 13.6666 2.83301 14.1143 2.83301 14.6666H3.83301ZM4.83301 15.6666C5.38529 15.6666 5.83301 15.2189 5.83301 14.6666C5.83301 14.1143 5.38529 13.6666 4.83301 13.6666V15.6666ZM2.83301 15.6666C2.83301 16.2189 3.28072 16.6666 3.83301 16.6666C4.38529 16.6666 4.83301 16.2189 4.83301 15.6666H2.83301ZM3.83301 22.1666H2.83301C2.83301 22.7189 3.28072 23.1666 3.83301 23.1666V22.1666ZM4.83301 21.1666C4.83301 20.6143 4.38529 20.1666 3.83301 20.1666C3.28072 20.1666 2.83301 20.6143 2.83301 21.1666H4.83301ZM4.83301 23.1666C5.38529 23.1666 5.83301 22.7189 5.83301 22.1666C5.83301 21.6143 5.38529 21.1666 4.83301 21.1666V23.1666ZM5.83301 20.1666H4.83301C4.83301 20.7189 5.28072 21.1666 5.83301 21.1666V20.1666ZM5.83301 16.6666V15.6666C5.28072 15.6666 4.83301 16.1143 4.83301 16.6666H5.83301ZM9.33301 20.1666V21.1666C9.88529 21.1666 10.333 20.7189 10.333 20.1666H9.33301ZM9.33301 16.6666H10.333C10.333 16.1143 9.88529 15.6666 9.33301 15.6666V16.6666ZM12.333 21.1666C12.333 20.6143 11.8853 20.1666 11.333 20.1666C10.7807 20.1666 10.333 20.6143 10.333 21.1666H12.333ZM11.333 22.1666V23.1666C11.8853 23.1666 12.333 22.7189 12.333 22.1666H11.333ZM10.333 21.1666C9.78072 21.1666 9.33301 21.6143 9.33301 22.1666C9.33301 22.7189 9.78072 23.1666 10.333 23.1666V21.1666ZM8.99967 8.99992V7.99992C8.44739 7.99992 7.99967 8.44763 7.99967 8.99992H8.99967ZM7.44671 7.16658L8.00038 7.99932C8.36753 7.75521 8.53148 7.29945 8.40398 6.87739C8.27647 6.45534 7.8876 6.16658 7.44671 6.16658V7.16658ZM7.16634 7.44695H6.16634C6.16634 7.88785 6.45509 8.27672 6.87715 8.40422C7.2992 8.53173 7.75496 8.36777 7.99907 8.00063L7.16634 7.44695ZM7.16634 7.16658V6.16658C6.61406 6.16658 6.16634 6.6143 6.16634 7.16658H7.16634ZM17.9997 7.16658V6.16658C17.7345 6.16658 17.4801 6.27194 17.2926 6.45948C17.105 6.64701 16.9997 6.90137 16.9997 7.16658H17.9997ZM18.833 7.16658H19.833C19.833 6.6143 19.3853 6.16658 18.833 6.16658L18.833 7.16658ZM17.9997 7.99992H16.9997C16.9997 8.5522 17.4474 8.99992 17.9997 8.99992V7.99992ZM18.833 7.99992V8.99992C19.3853 8.99992 19.833 8.5522 19.833 7.99992H18.833ZM8.99967 19.8333V18.8333C8.44739 18.8333 7.99967 19.281 7.99967 19.8333H8.99967ZM7.44671 17.9999L8.00038 18.8327C8.36753 18.5885 8.53148 18.1328 8.40398 17.7107C8.27648 17.2887 7.8876 16.9999 7.44671 16.9999V17.9999ZM7.16634 18.2803H6.16634C6.16634 18.7212 6.45509 19.1101 6.87715 19.2376C7.2992 19.3651 7.75496 19.2011 7.99907 18.834L7.16634 18.2803ZM7.16634 17.9999V16.9999C6.61406 16.9999 6.16634 17.4476 6.16634 17.9999H7.16634ZM3.83301 0.833252C2.17615 0.833252 0.833008 2.1764 0.833008 3.83325H2.83301C2.83301 3.28097 3.28072 2.83325 3.83301 2.83325V0.833252ZM11.333 0.833252H3.83301V2.83325H11.333V0.833252ZM13.333 2.83325C13.333 1.72868 12.4376 0.833252 11.333 0.833252V2.83325H13.333ZM13.6666 2.34275C13.3134 2.02665 12.8446 1.83325 12.333 1.83325V3.83325L12.3328 3.83302L13.6666 2.34275ZM13.6663 1.83325C13.1547 1.83325 12.6859 2.02666 12.3328 2.34275L13.6666 3.83302L13.6663 3.83325V1.83325ZM14.6663 0.833252C13.5618 0.833252 12.6663 1.72868 12.6663 2.83325H14.6663V0.833252ZM22.1663 0.833252H14.6663V2.83325H22.1663V0.833252ZM25.1663 3.83325C25.1663 2.1764 23.8232 0.833252 22.1663 0.833252V2.83325C22.7186 2.83325 23.1663 3.28097 23.1663 3.83325H25.1663ZM25.1663 11.3333V3.83325H23.1663V11.3333H25.1663ZM22.1663 14.3333C23.8232 14.3333 25.1663 12.9901 25.1663 11.3333H23.1663C23.1663 11.8855 22.7186 12.3333 22.1663 12.3333V14.3333ZM14.6663 14.3333H22.1663V12.3333H14.6663V14.3333ZM12.1669 12.9929C12.7027 13.7987 13.6219 14.3333 14.6663 14.3333V12.3333C14.3195 12.3333 14.0132 12.1575 13.8324 11.8855L12.1669 12.9929ZM12.6118 14.0476C13.1095 13.8128 13.531 13.4461 13.8324 12.9929L12.1669 11.8855C12.0657 12.0378 11.924 12.1607 11.7586 12.2387L12.6118 14.0476ZM13.333 13.6666C13.333 13.2843 13.2248 12.9243 13.0368 12.6189L11.3336 13.6673L11.333 13.6666H13.333ZM14.333 14.6666C14.333 13.562 13.4376 12.6666 12.333 12.6666V14.6666H14.333ZM14.333 22.1666V14.6666H12.333V22.1666H14.333ZM11.333 25.1666C12.9899 25.1666 14.333 23.8234 14.333 22.1666H12.333C12.333 22.7189 11.8853 23.1666 11.333 23.1666V25.1666ZM3.83301 25.1666H11.333V23.1666H3.83301V25.1666ZM0.833008 22.1666C0.833008 23.8234 2.17615 25.1666 3.83301 25.1666V23.1666C3.28072 23.1666 2.83301 22.7189 2.83301 22.1666H0.833008ZM0.833008 14.6666V22.1666H2.83301V14.6666H0.833008ZM2.17341 12.1672C1.36759 12.703 0.833008 13.6221 0.833008 14.6666H2.83301C2.83301 14.3197 3.00877 14.0135 3.28075 13.8327L2.17341 12.1672ZM0.833008 11.3333C0.833008 12.3777 1.36759 13.2969 2.17341 13.8327L3.28075 12.1672C3.00877 11.9864 2.83301 11.6801 2.83301 11.3333H0.833008ZM0.833008 3.83325V11.3333H2.83301V3.83325H0.833008ZM3.83301 4.83325H4.83301V2.83325H3.83301V4.83325ZM4.83301 4.83325V3.83325H2.83301V4.83325H4.83301ZM4.83301 2.83325C3.72844 2.83325 2.83301 3.72868 2.83301 4.83325H4.83301V2.83325ZM21.1663 4.83325H22.1663V2.83325H21.1663V4.83325ZM23.1663 4.83325C23.1663 3.72868 22.2709 2.83325 21.1663 2.83325V4.83325H23.1663ZM21.1663 3.83325V4.83325H23.1663V3.83325H21.1663ZM4.83301 11.3333V10.3333H2.83301V11.3333H4.83301ZM4.83301 10.3333H3.83301V12.3333H4.83301V10.3333ZM2.83301 10.3333C2.83301 11.4378 3.72844 12.3333 4.83301 12.3333V10.3333H2.83301ZM6.83301 9.33325V5.83325H4.83301V9.33325H6.83301ZM9.33301 8.33325H5.83301V10.3333H9.33301V8.33325ZM8.33301 5.83325V9.33325H10.333V5.83325H8.33301ZM5.83301 6.83325H9.33301V4.83325H5.83301V6.83325ZM10.333 10.3333V11.3333H12.333V10.3333H10.333ZM10.333 12.3333C11.4376 12.3333 12.333 11.4378 12.333 10.3333H10.333V12.3333ZM11.333 10.3333H10.333V12.3333H11.333V10.3333ZM15.6663 11.3333V10.3333H13.6663V11.3333H15.6663ZM15.6663 10.3333H14.6663V12.3333H15.6663V10.3333ZM13.6663 10.3333C13.6663 11.4378 14.5618 12.3333 15.6663 12.3333V10.3333H13.6663ZM17.6663 9.33325V5.83325H15.6663V9.33325H17.6663ZM20.1663 8.33325H16.6663V10.3333H20.1663V8.33325ZM19.1663 5.83325V9.33325H21.1663V5.83325H19.1663ZM16.6663 6.83325H20.1663V4.83325H16.6663V6.83325ZM21.1663 10.3333V11.3333H23.1663V10.3333H21.1663ZM21.1663 12.3333C22.2709 12.3333 23.1663 11.4378 23.1663 10.3333H21.1663V12.3333ZM22.1663 10.3333H21.1663V12.3333H22.1663V10.3333ZM3.83301 15.6666H4.83301V13.6666H3.83301V15.6666ZM4.83301 15.6666V14.6666H2.83301V15.6666H4.83301ZM4.83301 13.6666C3.72844 13.6666 2.83301 14.562 2.83301 15.6666H4.83301V13.6666ZM4.83301 22.1666V21.1666H2.83301V22.1666H4.83301ZM4.83301 21.1666H3.83301V23.1666H4.83301V21.1666ZM2.83301 21.1666C2.83301 22.2712 3.72844 23.1666 4.83301 23.1666V21.1666H2.83301ZM6.83301 20.1666V16.6666H4.83301V20.1666H6.83301ZM9.33301 19.1666H5.83301V21.1666H9.33301V19.1666ZM8.33301 16.6666V20.1666H10.333V16.6666H8.33301ZM5.83301 17.6666H9.33301V15.6666H5.83301V17.6666ZM10.333 21.1666V22.1666H12.333V21.1666H10.333ZM10.333 23.1666C11.4376 23.1666 12.333 22.2712 12.333 21.1666H10.333V23.1666ZM11.333 21.1666H10.333V23.1666H11.333V21.1666ZM7.16634 4.16658C5.50949 4.16658 4.16634 5.50973 4.16634 7.16658H6.16634C6.16634 6.6143 6.61406 6.16658 7.16634 6.16658V4.16658ZM7.99967 4.16658H7.16634V6.16658H7.99967V4.16658ZM10.9997 7.16658C10.9997 5.50973 9.65653 4.16658 7.99967 4.16658V6.16658C8.55196 6.16658 8.99967 6.6143 8.99967 7.16658H10.9997ZM10.9997 7.99992V7.16658H8.99967V7.99992H10.9997ZM8.99967 9.99992C10.1042 9.99992 10.9997 9.10449 10.9997 7.99992H8.99967V9.99992ZM7.99967 10.9999C9.10424 10.9999 9.99967 10.1045 9.99967 8.99992H7.99967V10.9999ZM7.16634 10.9999H7.99967V8.99992H7.16634V10.9999ZM4.16634 7.99992C4.16634 9.65677 5.50949 10.9999 7.16634 10.9999V8.99992C6.61406 8.99992 6.16634 8.5522 6.16634 7.99992H4.16634ZM4.16634 7.16658V7.99992H6.16634V7.16658H4.16634ZM6.89303 6.33385C6.67134 6.48126 6.48101 6.67158 6.33361 6.89328L7.99907 8.00063C7.99936 8.0002 7.99995 7.99961 8.00038 7.99932L6.89303 6.33385ZM8.16634 7.44695V7.16658H6.16634V7.44695H8.16634ZM7.16634 8.16658H7.44671V6.16658H7.16634V8.16658ZM17.9997 4.16658C16.3428 4.16658 14.9997 5.50973 14.9997 7.16658H16.9997C16.9997 6.6143 17.4474 6.16658 17.9997 6.16658V4.16658ZM18.833 4.16658H17.9997V6.16658H18.833V4.16658ZM21.833 7.16658C21.833 5.50973 20.4899 4.16658 18.833 4.16658V6.16658C19.3853 6.16658 19.833 6.6143 19.833 7.16658H21.833ZM21.833 7.99992V7.16658H19.833V7.99992H21.833ZM18.833 10.9999C20.4899 10.9999 21.833 9.65677 21.833 7.99992H19.833C19.833 8.5522 19.3853 8.99992 18.833 8.99992V10.9999ZM17.9997 10.9999H18.833V8.99992H17.9997V10.9999ZM14.9997 7.99992C14.9997 9.65677 16.3428 10.9999 17.9997 10.9999V8.99992C17.4474 8.99992 16.9997 8.5522 16.9997 7.99992H14.9997ZM14.9997 7.16658V7.99992H16.9997V7.16658H14.9997ZM17.9997 8.16658H18.833L18.833 6.16658H17.9997L17.9997 8.16658ZM18.9997 7.99992V7.16658H16.9997V7.99992H18.9997ZM18.833 6.99992H17.9997V8.99992H18.833V6.99992ZM17.833 7.16658V7.99992H19.833V7.16658H17.833ZM7.16634 14.9999C5.50949 14.9999 4.16634 16.3431 4.16634 17.9999H6.16634C6.16634 17.4476 6.61406 16.9999 7.16634 16.9999V14.9999ZM7.99967 14.9999H7.16634V16.9999H7.99967V14.9999ZM10.9997 17.9999C10.9997 16.3431 9.65653 14.9999 7.99967 14.9999V16.9999C8.55196 16.9999 8.99967 17.4476 8.99967 17.9999H10.9997ZM10.9997 18.8333V17.9999H8.99967V18.8333H10.9997ZM8.99967 20.8333C10.1042 20.8333 10.9997 19.9378 10.9997 18.8333H8.99967V20.8333ZM7.99967 21.8333C9.10424 21.8333 9.99967 20.9378 9.99967 19.8333H7.99967V21.8333ZM7.16634 21.8333H7.99967V19.8333H7.16634V21.8333ZM4.16634 18.8333C4.16634 20.4901 5.50949 21.8333 7.16634 21.8333V19.8333C6.61406 19.8333 6.16634 19.3855 6.16634 18.8333H4.16634ZM4.16634 17.9999V18.8333H6.16634V17.9999H4.16634ZM6.89304 17.1672C6.67134 17.3146 6.48101 17.5049 6.33361 17.7266L7.99907 18.834C7.99936 18.8335 7.99995 18.8329 8.00038 18.8327L6.89304 17.1672ZM8.16634 18.2803V17.9999H6.16634V18.2803H8.16634ZM7.16634 18.9999H7.44671V16.9999H7.16634V18.9999Z" fill="#B9B9B9"/>
<path d="M22.1667 18.8334V14.6667H18.8333V17.1667H15.5V14.6667" stroke="#B9B9B9" stroke-width="2" stroke-linecap="round" stroke-linejoin="round"/>
<path d="M22.1667 22.1667H15.5V20.5" stroke="#B9B9B9" stroke-width="2" stroke-linecap="round" stroke-linejoin="round"/>
</svg>
