<svg width="24" height="24" viewBox="0 0 24 24" fill="none" xmlns="http://www.w3.org/2000/svg">
<path d="M23 19V14H19V17H15V14" stroke="#B9B9B9" stroke-width="2" stroke-linecap="round" stroke-linejoin="round"/>
<path d="M23 23H15V21" stroke="#B9B9B9" stroke-width="2" stroke-linecap="round" stroke-linejoin="round"/>
<path fill-rule="evenodd" clip-rule="evenodd" d="M10 14V23H1V14H10ZM6 18H5V19H6V18ZM10 1V10H1V1H10ZM23 1V10H14V1H23ZM6 5H5V6H6V5ZM19 5H18V6H19V5Z" stroke="#B9B9B9" stroke-width="2" stroke-linecap="round" stroke-linejoin="round"/>
<path d="M23 19V14H19V17H15V14" stroke="#B9B9B9" stroke-width="2" stroke-linecap="round" stroke-linejoin="round"/>
<path d="M23 23H15V21" stroke="#B9B9B9" stroke-width="2" stroke-linecap="round" stroke-linejoin="round"/>
</svg>
