<svg width="20" height="24" viewBox="0 0 20 24" fill="none" xmlns="http://www.w3.org/2000/svg">
<path d="M9.99967 8.33333C7.97475 8.33333 6.33301 9.97485 6.33301 12H8.33301C8.33301 11.0795 9.07925 10.3333 9.99967 10.3333V8.33333ZM13.6663 12C13.6663 9.97485 12.0246 8.33333 9.99967 8.33333V10.3333C10.9201 10.3333 11.6663 11.0795 11.6663 12H13.6663ZM9.99967 15.6667C12.0247 15.6667 13.6663 14.025 13.6663 12H11.6663C11.6663 12.9204 10.9201 13.6667 9.99967 13.6667V15.6667ZM6.33301 12C6.33301 14.025 7.97467 15.6667 9.99967 15.6667V13.6667C9.07925 13.6667 8.33301 12.9204 8.33301 12H6.33301ZM10.333 12C10.333 12.1841 10.1838 12.3333 9.99967 12.3333V10.3333C9.07923 10.3333 8.33301 11.0795 8.33301 12H10.333ZM9.99967 11.6667C10.1838 11.6667 10.333 11.8159 10.333 12H8.33301C8.33301 12.9204 9.07925 13.6667 9.99967 13.6667V11.6667ZM9.66634 12C9.66634 11.8159 9.81552 11.6667 9.99967 11.6667V13.6667C10.9201 13.6667 11.6663 12.9204 11.6663 12H9.66634ZM9.99967 12.3333C9.81558 12.3333 9.66634 12.1841 9.66634 12H11.6663C11.6663 11.0795 10.9201 10.3333 9.99967 10.3333V12.3333ZM9.99967 16.6667C7.97467 16.6667 6.33301 18.3084 6.33301 20.3333H8.33301C8.33301 19.4129 9.07925 18.6667 9.99967 18.6667V16.6667ZM13.6663 20.3333C13.6663 18.3084 12.0247 16.6667 9.99967 16.6667V18.6667C10.9201 18.6667 11.6663 19.4129 11.6663 20.3333H13.6663ZM9.99967 24C12.0246 24 13.6663 22.3585 13.6663 20.3333H11.6663C11.6663 21.2538 10.9201 22 9.99967 22V24ZM6.33301 20.3333C6.33301 22.3585 7.97475 24 9.99967 24V22C9.07925 22 8.33301 21.2538 8.33301 20.3333H6.33301ZM10.333 20.3333C10.333 20.5175 10.1838 20.6667 9.99967 20.6667V18.6667C9.07925 18.6667 8.33301 19.4129 8.33301 20.3333H10.333ZM9.99967 20C10.1838 20 10.333 20.1492 10.333 20.3333H8.33301C8.33301 21.2538 9.07923 22 9.99967 22V20ZM9.66634 20.3333C9.66634 20.1492 9.81558 20 9.99967 20V22C10.9201 22 11.6663 21.2538 11.6663 20.3333H9.66634ZM9.99967 20.6667C9.81552 20.6667 9.66634 20.5175 9.66634 20.3333H11.6663C11.6663 19.4129 10.9201 18.6667 9.99967 18.6667V20.6667ZM9.99967 0C7.97477 0 6.33301 1.64152 6.33301 3.66662H8.33301C8.33301 2.74618 9.07924 2 9.99967 2V0ZM13.6663 3.66662C13.6663 1.64152 12.0246 0 9.99967 0V2C10.9201 2 11.6663 2.74618 11.6663 3.66662H13.6663ZM9.99967 7.33333C12.0247 7.33333 13.6663 5.69174 13.6663 3.66662H11.6663C11.6663 4.58715 10.9201 5.33333 9.99967 5.33333V7.33333ZM6.33301 3.66662C6.33301 5.69174 7.97469 7.33333 9.99967 7.33333V5.33333C9.07925 5.33333 8.33301 4.58715 8.33301 3.66662H6.33301ZM10.333 3.66662C10.333 3.85081 10.1838 4 9.99967 4V2C9.07923 2 8.33301 2.7462 8.33301 3.66662H10.333ZM9.99967 3.33333C10.1838 3.33333 10.333 3.48257 10.333 3.66662H8.33301C8.33301 4.58715 9.07925 5.33333 9.99967 5.33333V3.33333ZM9.66634 3.66662C9.66634 3.48257 9.81554 3.33333 9.99967 3.33333V5.33333C10.9201 5.33333 11.6663 4.58715 11.6663 3.66662H9.66634ZM9.99967 4C9.81559 4 9.66634 3.85081 9.66634 3.66662H11.6663C11.6663 2.7462 10.9201 2 9.99967 2V4Z" fill="#B9B9B9"/>
</svg>
