<svg width="24" height="24" viewBox="0 0 24 24" fill="none" xmlns="http://www.w3.org/2000/svg">
<path d="M23.8858 9.48229C23.9994 9.1977 24.0291 8.88455 23.9711 8.58245C23.9132 8.28035 23.7702 8.00287 23.5603 7.78513L16.0604 0L13.9395 2.20163L18.8789 7.32892H0.000173777V10.443H22.4998C22.7965 10.4431 23.0865 10.3518 23.3332 10.1808C23.5799 10.0098 23.7722 9.76674 23.8858 9.48229V9.48229ZM0.114172 14.5177C0.000616888 14.8023 -0.0290695 15.1154 0.0288701 15.4176C0.0868098 15.7197 0.229772 15.9971 0.439668 16.2149L7.93956 24L10.0605 21.7984L5.1211 16.6711H23.9998V13.557H1.50015C1.20346 13.5567 0.91337 13.6479 0.666633 13.8189C0.419896 13.9899 0.227621 14.2331 0.114172 14.5177V14.5177Z" fill="#DADADA"/>
</svg>
