<svg width="36" height="36" viewBox="0 0 36 36" fill="none" xmlns="http://www.w3.org/2000/svg">
<path fill-rule="evenodd" clip-rule="evenodd" d="M30.728 23.272C28.7674 21.3116 26.4339 19.8603 23.8879 18.9817C26.6148 17.1036 28.4062 13.9604 28.4062 10.4062C28.4062 4.66826 23.738 0 18 0C12.262 0 7.59375 4.66826 7.59375 10.4062C7.59375 13.9604 9.38524 17.1036 12.1122 18.9817C9.56616 19.8603 7.23263 21.3116 5.2721 23.272C1.87235 26.6719 0 31.192 0 36H2.8125C2.8125 27.6256 9.62557 20.8125 18 20.8125C26.3744 20.8125 33.1875 27.6256 33.1875 36H36C36 31.192 34.1277 26.6719 30.728 23.272ZM18 18C13.8645 18 10.5 14.6356 10.5 10.5C10.5 6.36444 13.8645 3 18 3C22.1355 3 25.5 6.36444 25.5 10.5C25.5 14.6356 22.1355 18 18 18Z" fill="white"/>
</svg>
